<?xml version="1.0" standalone="no"?>
<!DOCTYPE svg PUBLIC "-//W3C//DTD SVG 1.1//EN" "http://www.w3.org/Graphics/SVG/1.1/DTD/svg11.dtd" >
<svg xmlns="http://www.w3.org/2000/svg" xmlns:xlink="http://www.w3.org/1999/xlink" version="1.1">
<metadata>
Created by FontForge 20170731 at Mon Jul  3 10:47:02 2017
 By Aleksey,,,
Copyright (c)2016. Neue Hans Kendrick is a trademark of Alfredo Marco Pradil. All rights reserved.
</metadata>
<defs>
<font id="NeueHansKendrick-Regular" horiz-adv-x="0" >
  <font-face 
    font-family="Neue Hans Kendrick"
    font-weight="400"
    font-stretch="normal"
    units-per-em="2048"
    panose-1="0 0 5 0 0 0 0 0 0 0"
    ascent="1536"
    descent="-512"
    x-height="963"
    cap-height="1536"
    bbox="-1628 -621 2652 2600"
    underline-thickness="102"
    underline-position="-202"
    unicode-range="U+0020-FB02"
  />
<missing-glyph horiz-adv-x="1237" 
d="M199 1536h839v-1536h-839v1536zM907 131v1274h-577v-1274h577z" />
    <glyph glyph-name="fi" unicode="fi" horiz-adv-x="1141" 
d="M967 963v-963h-166v809h-416v-809h-168v809h-162v154h162v297q0 91 35.5 158.5t100.5 104t151 36.5q41 0 76.5 -8t54.5 -21v-166q-22 17 -52 27t-59 10q-63 0 -101 -44.5t-38 -117.5v-276h582zM805 1173q-33 32 -33 78q0 47 33 79t80 32q45 0 77.5 -32t32.5 -79
q0 -45 -32.5 -77.5t-77.5 -32.5q-47 0 -80 32z" />
    <glyph glyph-name="fl" unicode="fl" horiz-adv-x="1163" 
d="M639 809h-254v-809h-168v809h-162v154h162v297q0 91 35.5 158.5t100.5 104t151 36.5q41 0 76.5 -8t54.5 -21v-166q-22 17 -52 27t-59 10q-63 0 -101 -44.5t-38 -117.5v-276h254v-154zM821 1536h168v-1536h-168v1536z" />
    <glyph glyph-name="f_f" unicode="ff" horiz-adv-x="1212" 
d="M1204 803h-264v-803h-168v803h-387v-803h-168v803h-151v6h-11v154h162v297q0 91 35.5 158.5t100.5 104t151 36.5q41 0 76.5 -8t54.5 -21v-166q-22 17 -52 27t-59 10q-63 0 -101 -44.5t-38 -117.5v-276h387v297q0 91 35.5 158.5t100.5 104t151 36.5q41 0 76.5 -8t54.5 -21
v-166q-22 17 -52 27t-59 10q-63 0 -101 -44.5t-38 -117.5v-276h264v-160z" />
    <glyph glyph-name="f_f_i" unicode="ffi" horiz-adv-x="1675" 
d="M217 809h-162v154h162v297q0 91 35.5 158.5t100.5 104t151 36.5q41 0 76.5 -8t54.5 -21v-166q-22 17 -52 27t-59 10q-63 0 -101 -44.5t-38 -117.5v-276h387v297q0 91 35.5 158.5t100.5 104t151 36.5q41 0 76.5 -8t54.5 -21v-166q-22 17 -52 27t-59 10q-63 0 -101 -44.5
t-38 -117.5v-276h561v-963h-166v809h-395v-809h-168v809h-387v-809h-168v809zM1340 1173q-33 32 -33 78q0 47 33 79t79 32t78.5 -32t32.5 -79q0 -45 -33 -77.5t-78 -32.5q-46 0 -79 32z" />
    <glyph glyph-name="f_f_l" unicode="ffl" horiz-adv-x="1696" 
d="M1204 803h-264v-803h-168v803h-387v-803h-168v803h-151v6h-11v154h162v297q0 91 35.5 158.5t100.5 104t151 36.5q41 0 76.5 -8t54.5 -21v-166q-22 17 -52 27t-59 10q-63 0 -101 -44.5t-38 -117.5v-276h387v297q0 91 35.5 158.5t100.5 104t151 36.5q41 0 76.5 -8t54.5 -21
v-166q-22 17 -52 27t-59 10q-63 0 -101 -44.5t-38 -117.5v-276h264v-160zM1354 1536h168v-1536h-168v1536z" />
    <glyph glyph-name=".notdef" horiz-adv-x="1237" 
d="M199 1536h839v-1536h-839v1536zM907 131v1274h-577v-1274h577z" />
    <glyph glyph-name=".null" 
 />
    <glyph glyph-name="nonmarkingreturn" horiz-adv-x="682" 
 />
    <glyph glyph-name="space" unicode=" " horiz-adv-x="512" 
 />
    <glyph glyph-name="exclam" unicode="!" horiz-adv-x="635" 
d="M225 1536h168v-1094h-168v1094zM252.5 -4.5q-26.5 15.5 -42 42t-15.5 56.5q0 48 34 81.5t80 33.5q47 0 81 -33.5t34 -81.5q0 -30 -16 -56.5t-42.5 -42t-56.5 -15.5t-56.5 15.5z" />
    <glyph glyph-name="quotedbl" unicode="&#x22;" horiz-adv-x="987" 
d="M242 1536h159l2 -643h-161v643zM584 1536h161v-643h-163z" />
    <glyph glyph-name="numbersign" unicode="#" horiz-adv-x="1489" 
d="M373 358h-289l16 127h289l72 478h-291l20 124h285l53 361h123l-49 -361h387l51 361h125l-51 -361h291l-21 -124h-286l-68 -478h287l-17 -127h-286l-56 -358h-122l51 358h-391l-50 -358h-124zM903 485l70 478h-389l-68 -478h387z" />
    <glyph glyph-name="dollar" unicode="$" horiz-adv-x="1221" 
d="M1049 200.5q-49 -88.5 -133.5 -142t-192.5 -70.5v-164h-166v159q-137 15 -255 79.5t-194 158.5l125 125q149 -211 381 -211q89 0 159.5 32.5t110.5 92.5t40 139q0 81 -46 138t-114.5 94t-186.5 86q-128 54 -208.5 102t-135.5 129.5t-55 204.5q0 112 49.5 199.5t135.5 139
t194 62.5v162h166v-171q190 -36 328 -197l-105 -109q-87 92 -163.5 127t-170.5 35q-73 0 -132 -28t-93.5 -81t-34.5 -127q0 -77 40 -131t102.5 -89t160.5 -75q25 -10 31 -13q133 -53 215.5 -100t139.5 -132.5t57 -218.5q0 -117 -49 -205.5z" />
    <glyph glyph-name="percent" unicode="%" horiz-adv-x="1569" 
d="M259.5 970.5q-72.5 42.5 -115 115.5t-42.5 159q0 85 42.5 156t115 113t158.5 42q85 0 156 -42t113 -113t42 -156q0 -87 -42 -159.5t-113 -115t-156 -42.5q-86 0 -158.5 42.5zM1161 1536h180l-933 -1536h-185zM505 1091q40 24 63.5 65t23.5 89q0 46 -23.5 86t-63.5 64
t-87 24q-48 0 -89 -24t-65 -64t-24 -86q0 -48 24 -89t64.5 -65t89.5 -24q47 0 87 24zM997.5 26.5q-71.5 42.5 -113.5 114.5t-42 158q0 85 42.5 156t114 113t156.5 42t156.5 -42t114 -113t42.5 -156q0 -86 -42.5 -158t-114 -114.5t-156.5 -42.5q-86 0 -157.5 42.5z
M1243.5 145q40.5 24 64 65t23.5 89q0 47 -24 87t-64.5 63.5t-87.5 23.5q-48 0 -88.5 -23.5t-64 -63.5t-23.5 -87q0 -48 23.5 -89t64 -65t88.5 -24t88.5 24z" />
    <glyph glyph-name="ampersand" unicode="&#x26;" horiz-adv-x="1456" 
d="M325.5 32q-100.5 57 -156.5 157.5t-56 228.5q0 102 38.5 178t106 139t197.5 162q-85 98 -121.5 177t-36.5 159q0 91 42.5 165t118 116t171.5 42t172.5 -41.5t119 -113.5t42.5 -160q0 -75 -32.5 -136t-85 -111.5t-147.5 -127.5l306 -395l202 256l129 -102l-225 -283
l264 -342l-219 -4l-164 215q-110 -113 -215.5 -174.5t-220.5 -61.5q-129 0 -229.5 57zM711.5 1065q37.5 32 63.5 74.5t26 95.5q0 51 -25 89.5t-66.5 59.5t-88.5 21q-75 0 -119.5 -47.5t-44.5 -126.5q0 -43 14 -79t36.5 -67.5t65.5 -82.5l23 -27q78 58 115.5 90zM711.5 195
q82.5 54 175.5 149l-328 426q-101 -74 -156.5 -123t-89.5 -105.5t-34 -123.5q0 -69 35 -133.5t95.5 -104t133.5 -39.5q86 0 168.5 54z" />
    <glyph glyph-name="quotesingle" unicode="'" horiz-adv-x="647" 
d="M242 1536h164v-643h-164v643z" />
    <glyph glyph-name="parenleft" unicode="(" horiz-adv-x="625" 
d="M306 -224.5q-94 153.5 -145.5 374t-51.5 497.5q0 273 51.5 495t146 377.5t221.5 237.5l76 -102q-170 -118 -266 -374.5t-96 -633.5q0 -382 95.5 -634.5t266.5 -368.5l-76 -105q-128 83 -222 236.5z" />
    <glyph glyph-name="parenright" unicode=")" horiz-adv-x="625" 
d="M21 -356q171 116 266.5 368.5t95.5 634.5q0 377 -96 633.5t-266 374.5l76 102q127 -82 221.5 -237.5t146 -377.5t51.5 -495q0 -277 -51.5 -497.5t-145.5 -374t-222 -236.5z" />
    <glyph glyph-name="asterisk" unicode="*" horiz-adv-x="961" 
d="M268 979l160 238l-291 -13v94l291 -16l-160 242l82 45l131 -250l129 250l84 -45l-162 -242l291 16v-94l-291 13l162 -238l-84 -49l-129 252l-131 -252z" />
    <glyph glyph-name="plus" unicode="+" horiz-adv-x="1200" 
d="M520 596h-407v160h407v407h160v-407h407v-160h-407v-408h-160v408z" />
    <glyph glyph-name="comma" unicode="," horiz-adv-x="635" 
d="M457 63l-150 -440h-125l110 371q-27 15 -44 41.5t-17 58.5q0 30 16 56.5t42.5 42.5t56.5 16q47 0 81 -34t34 -81q0 -18 -4 -31z" />
    <glyph glyph-name="hyphen" unicode="-" horiz-adv-x="1044" 
d="M164 547h717v-131h-717v131z" />
    <glyph glyph-name="period" unicode="." horiz-adv-x="635" 
d="M237 13.5q-34 33.5 -34 80.5q0 30 15.5 56.5t42 42.5t56.5 16q47 0 81 -34t34 -81t-34 -80.5t-81 -33.5q-46 0 -80 33.5z" />
    <glyph glyph-name="slash" unicode="/" horiz-adv-x="1174" 
d="M1047 1700h161l-1079 -2048h-164z" />
    <glyph glyph-name="zero" unicode="0" horiz-adv-x="1270" 
d="M352 82.5q-126 102.5 -198 282.5t-72 403q0 225 68 404.5t193.5 281.5t291.5 102q165 0 290.5 -102t194 -281.5t68.5 -404.5q0 -222 -72.5 -402t-199 -283t-281.5 -103q-157 0 -283 102.5zM836.5 212q85.5 79 131.5 223t46 333q0 195 -49.5 333.5t-135 209.5t-192.5 71
q-108 0 -194 -71t-135.5 -209.5t-49.5 -333.5q0 -190 46 -333.5t132 -222.5t201 -79q114 0 199.5 79z" />
    <glyph glyph-name="one" unicode="1" horiz-adv-x="1270" 
d="M612 1362h-317v174h491v-1536h-174v1362z" />
    <glyph glyph-name="two" unicode="2" horiz-adv-x="1270" 
d="M1143 174v-174h-1045v16q336 345 507.5 555.5t226.5 329t55 221.5q0 83 -37 142t-100 89.5t-140 30.5q-84 0 -147 -36t-97 -100t-34 -148l-189 2q0 134 62.5 238t170.5 161.5t241 57.5q127 0 228 -52t158.5 -148.5t57.5 -223.5q0 -145 -72 -295t-197 -305t-322 -361h673z
" />
    <glyph glyph-name="three" unicode="3" horiz-adv-x="1270" 
d="M352 36q-120 56 -190 157.5t-70 232.5l174 2q0 -86 46 -150.5t126 -99.5t180 -35q103 0 183 36.5t125 104.5t45 160q0 93 -45.5 160t-125.5 102t-182 35h-155v164h147q81 0 141.5 33t93 90t32.5 127q0 69 -32.5 123t-93 84.5t-141.5 30.5q-79 0 -139.5 -28.5t-94.5 -80
t-34 -117.5h-174q0 114 58.5 202.5t159.5 137.5t224 49t223.5 -49t159 -138t58.5 -204q0 -113 -57.5 -196.5t-162.5 -128.5q148 -45 231 -150.5t83 -253.5q0 -136 -70 -239.5t-190 -160t-267 -56.5q-146 0 -266 56z" />
    <glyph glyph-name="four" unicode="4" horiz-adv-x="1270" 
d="M1231 324h-273v-324h-174v324h-741v112l698 1100h217v-1049h273v-163zM784 487v835l-512 -835h512z" />
    <glyph glyph-name="five" unicode="5" horiz-adv-x="1270" 
d="M924 957.5q112 -64.5 175.5 -180t63.5 -261.5q0 -153 -69.5 -274.5t-191.5 -189.5t-273 -68q-130 0 -244 51.5t-189 152.5t-87 244h184q16 -93 67 -155.5t122 -92.5t149 -30q98 0 176 45.5t122 126.5t44 182q0 102 -44.5 183t-120 126t-167.5 45q-86 0 -167 -40.5
t-134 -112.5h-182l139 827h799v-168h-660l-78 -452q62 53 144 79.5t170 26.5q140 0 252 -64.5z" />
    <glyph glyph-name="six" unicode="6" horiz-adv-x="1270" 
d="M1101.5 246q-70.5 -120 -190.5 -191t-260 -71q-152 0 -279.5 68t-202.5 187t-75 265q0 185 131 348l543 684h215l-449 -535q61 23 148 23q109 0 223.5 -65t190.5 -184t76 -270q0 -139 -70.5 -259zM830.5 201q80.5 47 126 126.5t45.5 174.5q0 111 -50 196.5t-134.5 132
t-184.5 46.5q-110 0 -193.5 -49t-129 -132.5t-45.5 -185.5q0 -107 49.5 -188t137 -124.5t197.5 -43.5q101 0 181.5 47z" />
    <glyph glyph-name="seven" unicode="7" horiz-adv-x="1270" 
d="M1176 1536v-115l-795 -1421h-205l783 1370h-848v166h1065z" />
    <glyph glyph-name="eight" unicode="8" horiz-adv-x="1270" 
d="M386 41.5q-113 61.5 -178 168t-65 234.5q0 132 69.5 240t186.5 166q-83 48 -125.5 132t-42.5 192q0 106 53.5 193.5t146 138t206.5 50.5q113 0 205 -50.5t145 -138t53 -193.5q0 -109 -42.5 -192.5t-125.5 -131.5q118 -58 187 -165.5t69 -240.5q0 -128 -65 -234.5
t-177.5 -168t-250.5 -61.5q-136 0 -249 61.5zM758.5 937.5q55.5 32.5 88 88t32.5 121.5q0 67 -32.5 123t-87.5 88.5t-122 32.5t-123 -32.5t-88.5 -88.5t-32.5 -123t32.5 -122t88.5 -87.5t123 -32.5q66 0 121.5 32.5zM795 177q73 44 115 118.5t42 161.5q0 88 -42 160.5
t-114.5 114.5t-160.5 42q-87 0 -159.5 -42t-114.5 -114.5t-42 -160.5q0 -87 42.5 -161.5t115 -118.5t158.5 -44q87 0 160 44z" />
    <glyph glyph-name="nine" unicode="9" horiz-adv-x="1270" 
d="M1030 684l-543 -684h-215l449 535q-61 -23 -148 -23q-109 0 -223.5 65t-190.5 184t-76 270q0 139 70.5 259t190.5 191t260 71q152 0 279.5 -68t202.5 -187t75 -265q0 -185 -131 -348zM815.5 708q83.5 49 129 132.5t45.5 185.5q0 107 -49.5 188t-137 124.5t-197.5 43.5
q-101 0 -181.5 -47t-126 -126.5t-45.5 -174.5q0 -111 50 -196.5t134.5 -132t184.5 -46.5q110 0 193.5 49z" />
    <glyph glyph-name="colon" unicode=":" horiz-adv-x="621" 
d="M229 848.5q-34 33.5 -34 81.5q0 30 15.5 56.5t42 42t56.5 15.5t56.5 -15.5t42.5 -42t16 -56.5q0 -48 -34 -81.5t-81 -33.5q-46 0 -80 33.5zM229 13.5q-34 33.5 -34 80.5q0 30 15.5 56.5t42 42.5t56.5 16q47 0 81 -34t34 -81t-34 -80.5t-81 -33.5q-46 0 -80 33.5z" />
    <glyph glyph-name="semicolon" unicode=";" horiz-adv-x="623" 
d="M242.5 848.5q-33.5 33.5 -33.5 81.5q0 46 33.5 80t81.5 34q30 0 56.5 -15.5t42 -42t15.5 -56.5q0 -48 -34 -81.5t-80 -33.5q-48 0 -81.5 33.5zM380.5 193q26.5 -16 42 -42.5t15.5 -56.5q0 -18 -4 -31l-149 -440h-125l110 371q-27 15 -44 41.5t-17 58.5q0 47 34.5 81
t80.5 34q30 0 56.5 -16z" />
    <glyph glyph-name="less" unicode="&#x3c;" horiz-adv-x="1360" 
d="M1225 1206l-963 -485l963 -488v-180l-1131 572v190l1131 567v-176z" />
    <glyph glyph-name="equal" unicode="=" horiz-adv-x="1243" 
d="M260 965h723v-160h-723v160zM260 549h723v-158h-723v158z" />
    <glyph glyph-name="greater" unicode="&#x3e;" horiz-adv-x="1360" 
d="M1266 815v-190l-1131 -572v180l963 488l-963 485v176z" />
    <glyph glyph-name="question" unicode="?" horiz-adv-x="1036" 
d="M430 559q0 91 26.5 148.5t65.5 88.5t102 66q59 32 94 59.5t59 76t24 124.5q0 79 -38 141.5t-105 98t-152 35.5q-81 0 -146 -35.5t-103.5 -98.5t-41.5 -141h-152q1 119 59 215.5t159 151.5t225 55q127 0 228.5 -54.5t158.5 -150.5t57 -217q0 -104 -31 -171.5t-75 -104.5
t-113 -78q-51 -31 -80 -53t-48 -55.5t-19 -81.5v-148h-154v129zM457.5 -4.5q-26.5 15.5 -42.5 41.5t-16 57q0 30 16 56.5t42.5 42.5t56.5 16q48 0 81.5 -34t33.5 -81t-33.5 -80.5t-81.5 -33.5q-30 0 -56.5 15.5z" />
    <glyph glyph-name="at" unicode="@" horiz-adv-x="1755" 
d="M511.5 -136q-173.5 93 -273 262.5t-99.5 389.5q0 211 102 383.5t279 271.5t391 99q190 0 351 -74.5t257.5 -221t96.5 -351.5q0 -156 -51.5 -267t-138.5 -167t-191 -56q-81 0 -128.5 42t-55.5 106h-4q-38 -60 -106.5 -103t-149.5 -43q-86 0 -150 40.5t-98.5 113.5
t-34.5 168q0 118 50.5 221.5t140.5 166t202 62.5q77 0 134 -33.5t83 -87.5h4l21 95h123q-31 -165 -78 -398q-16 -74 -16 -121q0 -53 22 -80.5t72 -27.5q61 0 110.5 42.5t79 123t29.5 188.5q0 166 -72 288t-202.5 186.5t-301.5 64.5q-182 0 -323.5 -81.5t-220 -225.5
t-78.5 -326q0 -188 82 -328.5t225 -216t321 -75.5q155 0 279 44t229 134l76 -95q-116 -102 -268 -154t-330 -52q-216 0 -389.5 93zM954.5 313q54.5 51 80.5 125t26 145q0 88 -37.5 143.5t-122.5 55.5q-71 0 -125 -49t-83 -125.5t-29 -156.5q0 -74 36.5 -131.5t118.5 -57.5
q81 0 135.5 51z" />
    <glyph glyph-name="A" unicode="A" horiz-adv-x="1360" 
d="M1041 246h-722l-96 -246h-194l651 1578l651 -1578h-194zM978 408l-297 760l-298 -760h595z" />
    <glyph glyph-name="B" unicode="B" horiz-adv-x="1366" 
d="M1182 644q73 -98 73 -238q0 -117 -56 -210t-152.5 -144.5t-212.5 -51.5h-617v1536h543q117 0 214.5 -52.5t154.5 -146t57 -211.5q0 -119 -53.5 -207.5t-151.5 -136.5q128 -40 201 -138zM976 1241q-36 57 -98 89t-137 32h-352v-510h352q74 0 136 34t98.5 93.5t36.5 132.5
q0 72 -36 129zM947 206.5q62 32.5 98 90t36 129.5t-36 131t-98 93t-136 34h-422v-510h422q74 0 136 32.5z" />
    <glyph glyph-name="C" unicode="C" horiz-adv-x="1495" 
d="M488 85.5q-181 105.5 -286.5 286t-105.5 396.5t105.5 396.5t286.5 286t397 105.5q148 0 300.5 -63.5t256.5 -167.5l-125 -123q-83 85 -198 132.5t-234 47.5q-169 0 -310 -81.5t-223 -222.5t-82 -310t82 -310t223 -222.5t310 -81.5q119 0 234 47.5t198 132.5l125 -123
q-104 -104 -256.5 -167.5t-300.5 -63.5q-216 0 -397 105.5z" />
    <glyph glyph-name="D" unicode="D" horiz-adv-x="1501" 
d="M217 1536h424q209 0 385 -103.5t279.5 -279.5t103.5 -385t-103.5 -385t-279.5 -279.5t-385 -103.5h-424v1536zM639 174q165 0 301.5 77t215.5 213t79 304t-79 304t-215.5 213t-301.5 77h-250v-1188h250z" />
    <glyph glyph-name="E" unicode="E" horiz-adv-x="1165" 
d="M391 1368v-516h584v-168h-584v-516h670v-168h-844v1536h844v-168h-670z" />
    <glyph glyph-name="F" unicode="F" horiz-adv-x="1118" 
d="M391 1368v-516h584v-168h-584v-684h-174v1536h844v-168h-670z" />
    <glyph glyph-name="G" unicode="G" horiz-adv-x="1630" 
d="M1483 809v-809h-154l-10 113q-98 -63 -211.5 -98t-222.5 -35q-216 0 -397 105.5t-286.5 286t-105.5 396.5t105.5 396.5t286.5 286t397 105.5q148 0 300.5 -63.5t256.5 -167.5l-125 -123q-83 85 -198 132.5t-234 47.5q-169 0 -310 -81.5t-223 -222.5t-82 -310t82 -310
t223 -222.5t310 -81.5q116 0 228.5 45.5t195.5 126.5v319h-439v164h613z" />
    <glyph glyph-name="H" unicode="H" horiz-adv-x="1616" 
d="M1399 1536v-1536h-174v682h-834v-682h-174v1536h174v-680h834v680h174z" />
    <glyph glyph-name="I" unicode="I" horiz-adv-x="608" 
d="M217 1536h174v-1536h-174v1536z" />
    <glyph glyph-name="J" unicode="J" horiz-adv-x="1026" 
d="M166.5 0.5q-80.5 20.5 -148.5 60.5l80 156q47 -32 115.5 -49.5t130.5 -17.5q99 0 171.5 46t110.5 124t38 172v1044h174v-1073q0 -139 -64 -249t-179.5 -172t-262.5 -62q-85 0 -165.5 20.5z" />
    <glyph glyph-name="K" unicode="K" horiz-adv-x="1296" 
d="M1047 0l-656 761v-761h-174v1536h174v-733l631 733h221l-649 -754l674 -782h-221z" />
    <glyph glyph-name="L" unicode="L" horiz-adv-x="987" 
d="M958 174v-174h-741v1536h174v-1362h567z" />
    <glyph glyph-name="M" unicode="M" horiz-adv-x="1866" 
d="M1647 1620v-1620h-172v1052l-545 -855l-537 851v-1048h-174v1620l713 -1113z" />
    <glyph glyph-name="N" unicode="N" horiz-adv-x="1575" 
d="M1358 -67l-967 1193v-1126h-174v1603l969 -1192v1125h172v-1603z" />
    <glyph glyph-name="O" unicode="O" horiz-adv-x="1765" 
d="M487 86q-181 106 -287 286.5t-106 395.5t106 395.5t287 286.5t396 106q214 0 395 -106t287 -287t106 -395t-106 -395t-287 -287t-395 -106q-215 0 -396 106zM1192 236q141 82 223 223t82 309t-82 309t-223 223t-309 82q-167 0 -308.5 -82t-224 -223t-82.5 -309t82.5 -309
t224 -223t308.5 -82q168 0 309 82z" />
    <glyph glyph-name="P" unicode="P" horiz-adv-x="1348" 
d="M1070.5 1478q98.5 -58 156 -156.5t57.5 -215.5q0 -118 -57.5 -215.5t-156 -154t-216.5 -56.5h-463v-680h-174v1536h637q118 0 216.5 -58zM976.5 876.5q61.5 30.5 97.5 88.5t36 139q0 78 -36 138t-98 93t-138 33h-447v-522h447q77 0 138.5 30.5z" />
    <glyph glyph-name="Q" unicode="Q" horiz-adv-x="1821" 
d="M1612 -23l-203 204q-106 -95 -241.5 -148t-284.5 -53q-215 0 -396 106t-287 286.5t-106 395.5t106 395.5t287 286.5t396 106q214 0 395 -106t287 -287t106 -395q0 -129 -40 -248.5t-113 -218.5l211 -207zM1100.5 193q103.5 39 186.5 110l-167 168l111 111l162 -159
q50 75 77 162.5t27 182.5q0 168 -82 309t-223 223t-309 82q-167 0 -308.5 -82t-224 -223t-82.5 -309t82.5 -309t224 -223t308.5 -82q114 0 217.5 39z" />
    <glyph glyph-name="R" unicode="R" horiz-adv-x="1405" 
d="M767 680h-376v-680h-174v1536h637q118 0 216.5 -58t156 -156.5t57.5 -215.5q0 -101 -42.5 -187.5t-117.5 -146t-170 -81.5l367 -691h-188zM391 846h447q77 0 138.5 30.5t97.5 88.5t36 139q0 78 -36 138t-98 93t-138 33h-447v-522z" />
    <glyph glyph-name="S" unicode="S" horiz-adv-x="1135" 
d="M286 47q-137 67 -223 174l125 125q149 -211 381 -211q89 0 159.5 32.5t110.5 92.5t40 139q0 81 -46 138t-114.5 94t-186.5 86q-128 54 -208.5 102t-135.5 129.5t-55 204.5q0 121 57 212.5t155 141t218 49.5q140 0 251 -56.5t192 -151.5l-105 -109q-87 92 -163.5 127
t-170.5 35q-73 0 -132 -28t-93.5 -81t-34.5 -127q0 -77 40 -131t102.5 -89t160.5 -75q25 -10 31 -13q133 -53 215.5 -100t139.5 -132.5t57 -218.5q0 -135 -64 -231t-171.5 -145.5t-237.5 -49.5q-157 0 -294 67z" />
    <glyph glyph-name="T" unicode="T" horiz-adv-x="1075" 
d="M1047 1362h-422v-1362h-174v1362h-422v174h1018v-174z" />
    <glyph glyph-name="U" unicode="U" horiz-adv-x="1526" 
d="M464 47.5q-132 67.5 -207 187t-75 269.5v1032h174v-1004q0 -108 52 -194.5t145 -135t209 -48.5t209 49t145.5 135t52.5 194v1004h174v-1032q0 -150 -74.5 -269.5t-207 -187t-299.5 -67.5q-166 0 -298 67.5z" />
    <glyph glyph-name="V" unicode="V" horiz-adv-x="1360" 
d="M1331 1536l-651 -1580l-651 1580h192l460 -1174l458 1174h192z" />
    <glyph glyph-name="W" unicode="W" horiz-adv-x="1946" 
d="M1266 -44l-293 710l-293 -711l-651 1581h188l469 -1180l202 516l-274 664h183l176 -447l176 447h182l-273 -663l204 -517l467 1180h188z" />
    <glyph glyph-name="X" unicode="X" horiz-adv-x="1319" 
d="M1067 0l-408 635l-407 -635h-211l523 779l-509 757h209l396 -611l395 611h209l-510 -756l524 -780h-211z" />
    <glyph glyph-name="Y" unicode="Y" horiz-adv-x="1270" 
d="M723 728v-728h-174v725l-537 811h217l407 -629l408 629h213z" />
    <glyph glyph-name="Z" unicode="Z" horiz-adv-x="1356" 
d="M369 174h915v-174h-1245l928 1362h-844v174h1174z" />
    <glyph glyph-name="bracketleft" unicode="[" horiz-adv-x="647" 
d="M209 1782h412v-129h-265v-2036h265v-129h-412v2294z" />
    <glyph glyph-name="backslash" unicode="\" horiz-adv-x="1174" 
d="M-35 1700h164l1079 -2048h-161z" />
    <glyph glyph-name="bracketright" unicode="]" horiz-adv-x="647" 
d="M26 -512v129h265v2036h-265v129h412v-2294h-412z" />
    <glyph glyph-name="asciicircum" unicode="^" horiz-adv-x="1448" 
d="M1225 406l-501 995l-501 -995h-145l569 1130h154l569 -1130h-145z" />
    <glyph glyph-name="underscore" unicode="_" horiz-adv-x="1491" 
d="M234 -51h1024v-131h-1024v131z" />
    <glyph glyph-name="grave" unicode="`" horiz-adv-x="487" 
d="M12 1432l98 108l301 -326l-63 -71z" />
    <glyph glyph-name="a" unicode="a" horiz-adv-x="1253" 
d="M1081 963v-963h-168v137q-63 -74 -153.5 -114.5t-202.5 -40.5q-127 0 -238 67t-177 182t-66 250q0 136 66 250.5t177 182t238 67.5q112 0 202.5 -40.5t153.5 -114.5v137h168zM747.5 190q76.5 45 121 122t44.5 169t-44.5 169t-120.5 122t-168 45t-169 -45t-122 -122
t-45 -169t45 -169t122 -122t169 -45q91 0 167.5 45z" />
    <glyph glyph-name="b" unicode="b" horiz-adv-x="1255" 
d="M936 913.5q111 -67.5 177 -182t66 -250.5q0 -135 -66 -250t-177 -182t-238 -67q-112 0 -202.5 40.5t-153.5 114.5v-137h-168v1536h168v-710q63 74 153.5 114.5t202.5 40.5q127 0 238 -67.5zM844 190q77 45 122 122t45 169t-45 169t-122 122t-169 45t-168 -45t-120.5 -122
t-44.5 -169t44.5 -169t121 -122t167.5 -45q92 0 169 45z" />
    <glyph glyph-name="c" unicode="c" horiz-adv-x="1098" 
d="M324.5 48.5q-115.5 66.5 -183 181t-67.5 251.5t67.5 252t183 181.5t253.5 66.5q100 0 190 -36t158.5 -102t107.5 -153l-153 -69q-42 89 -121.5 142.5t-181.5 53.5q-95 0 -172 -44t-120.5 -121t-43.5 -171t43.5 -171t120.5 -121t172 -44q102 0 181.5 53.5t121.5 143.5
l153 -70q-39 -87 -107.5 -152.5t-158 -101.5t-190.5 -36q-138 0 -253.5 66.5z" />
    <glyph glyph-name="d" unicode="d" horiz-adv-x="1255" 
d="M1081 1536v-1536h-168v137q-63 -74 -153.5 -114.5t-202.5 -40.5q-127 0 -238 67t-177 182t-66 250q0 136 66 250.5t177 182t238 67.5q112 0 202.5 -40.5t153.5 -114.5v710h168zM747.5 190q76.5 45 121 122t44.5 169t-44.5 169t-120.5 122t-168 45t-169 -45t-122 -122
t-45 -169t45 -169t122 -122t169 -45q91 0 167.5 45z" />
    <glyph glyph-name="e" unicode="e" horiz-adv-x="1139" 
d="M1077 459h-844q5 -90 52.5 -164.5t125 -118t167.5 -43.5t167 43.5t125 118.5l142 -57q-63 -119 -178 -187.5t-254 -68.5q-140 0 -255.5 67t-182 181.5t-66.5 250.5q0 137 67 251.5t182 181.5t253 67q136 0 250.5 -64.5t181.5 -176.5t67 -248v-33zM435.5 799.5
q-66.5 -29.5 -114 -83t-70.5 -122.5h649q-22 69 -69 122t-112.5 83t-140.5 30q-76 0 -142.5 -29.5z" />
    <glyph glyph-name="f" unicode="f" horiz-adv-x="647" 
d="M639 809h-254v-809h-168v809h-162v154h162v297q0 91 35.5 158.5t100.5 104t151 36.5q41 0 76.5 -8t54.5 -21v-166q-22 17 -52 27t-59 10q-63 0 -101 -44.5t-38 -117.5v-276h254v-154z" />
    <glyph glyph-name="g" unicode="g" horiz-adv-x="1253" 
d="M1079 963v-963q0 -137 -67.5 -252t-183.5 -181.5t-253 -66.5q-96 0 -184 35t-157 97.5t-111 144.5l135 94q42 -93 127 -150t190 -57q91 0 167.5 45t121.5 122t45 169v125q-59 -69 -143.5 -106t-192.5 -37q-136 0 -250.5 67t-181.5 181.5t-67 250.5q0 137 67 252
t181.5 181.5t250.5 66.5q108 0 192.5 -37t143.5 -106v125h170zM744.5 190.5q76.5 45.5 121.5 122.5t45 168q0 92 -44.5 169t-121 122t-167.5 45q-93 0 -170 -45t-121.5 -122t-44.5 -169q0 -91 44.5 -168t121.5 -122.5t170 -45.5q90 0 166.5 45.5z" />
    <glyph glyph-name="h" unicode="h" horiz-adv-x="1071" 
d="M750 934q80 -47 127 -127t47 -174v-633h-168v621q0 56 -27.5 103t-74.5 74t-103 27q-57 0 -104.5 -26t-75.5 -71t-29 -100v-628h-168v1536h168v-643q47 42 107 65t126 23q95 0 175 -47z" />
    <glyph glyph-name="i" unicode="i" horiz-adv-x="514" 
d="M178.5 1173.5q-33.5 32.5 -33.5 77.5q0 47 33.5 79t79.5 32q45 0 78 -32t33 -79q0 -45 -33 -77.5t-78 -32.5q-46 0 -79.5 32.5zM174 963h166v-963h-166v963z" />
    <glyph glyph-name="j" unicode="j" horiz-adv-x="514" 
d="M178.5 1173.5q-33.5 32.5 -33.5 77.5q0 47 33.5 79t79.5 32q45 0 78 -32t33 -79q0 -45 -33 -77.5t-78 -32.5q-46 0 -79.5 32.5zM174 963h166v-1444h-166v1444z" />
    <glyph glyph-name="k" unicode="k" horiz-adv-x="1016" 
d="M795 0l-453 502v-502h-168v1536h168v-990l373 417h227l-407 -433l487 -530h-227z" />
    <glyph glyph-name="l" unicode="l" horiz-adv-x="516" 
d="M174 1536h168v-1536h-168v1536z" />
    <glyph glyph-name="m" unicode="m" horiz-adv-x="1614" 
d="M1291 931.5q82 -49.5 129.5 -134t47.5 -185.5v-612h-168v610q0 57 -26.5 104.5t-71.5 75t-98 27.5q-55 0 -100.5 -28t-72 -75.5t-26.5 -105.5v-608h-168v610q0 57 -26.5 104.5t-72 75t-99.5 27.5q-55 0 -100 -28t-71 -75.5t-26 -105.5v-608h-168v963h168v-87
q44 49 101 77t120 28q74 0 144 -38t120 -103q51 66 124.5 103.5t158.5 37.5q99 0 181 -49.5z" />
    <glyph glyph-name="n" unicode="n" horiz-adv-x="1071" 
d="M750 934q80 -47 127 -127t47 -174v-633h-168v621q0 56 -27.5 103t-74.5 74t-103 27q-57 0 -104.5 -26t-75.5 -71t-29 -100v-628h-168v963h168v-69q47 41 107 64t126 23q95 0 175 -47z" />
    <glyph glyph-name="o" unicode="o" horiz-adv-x="1155" 
d="M324.5 49q-115.5 67 -183 181.5t-67.5 250.5t67.5 251t183 182t253.5 67q137 0 252 -67t182 -182t67 -251t-67 -250.5t-182 -181.5t-252 -67q-138 0 -253.5 67zM745 190q76 45 121 122.5t45 168.5q0 92 -44.5 169t-121 122t-167.5 45q-93 0 -170 -45t-121.5 -122
t-44.5 -169t44.5 -169t121.5 -122t170 -45q91 0 167 45z" />
    <glyph glyph-name="p" unicode="p" horiz-adv-x="1255" 
d="M936 913.5q111 -67.5 177.5 -182t66.5 -250.5q0 -135 -66.5 -249.5t-177.5 -182t-238 -67.5q-112 0 -202.5 40.5t-153.5 114.5v-629h-168v1455h168v-137q63 74 153.5 114.5t202.5 40.5q127 0 238 -67.5zM845 190q77 45 122 122t45 169t-45 169t-122 122t-169 45
t-168.5 -45t-121 -122t-44.5 -169t44.5 -169t121 -122t168.5 -45t169 45z" />
    <glyph glyph-name="q" unicode="q" horiz-adv-x="1255" 
d="M1081 963v-1455h-168v629q-63 -74 -153.5 -114.5t-202.5 -40.5q-127 0 -238 67.5t-177.5 182t-66.5 249.5q0 136 66.5 250.5t177.5 182t238 67.5q112 0 202.5 -40.5t153.5 -114.5v137h168zM747.5 190q76.5 45 121 122t44.5 169t-44.5 169t-121 122t-168.5 45t-169 -45
t-122 -122t-45 -169t45 -169t122 -122t169 -45t168.5 45z" />
    <glyph glyph-name="r" unicode="r" horiz-adv-x="721" 
d="M667 971q36 -10 62 -27l-57 -143q-40 16 -78 16q-71 0 -128.5 -40t-90.5 -110t-33 -157v-510h-168v963h168v-150q40 80 102.5 124t145.5 44q41 0 77 -10z" />
    <glyph glyph-name="s" unicode="s" horiz-adv-x="874" 
d="M234 16q-87 34 -164 90l94 138q52 -48 124.5 -79.5t151.5 -31.5q85 0 136 38t51 103q0 46 -27.5 74.5t-66 43t-115.5 36.5q-101 28 -160.5 52.5t-103 77t-43.5 140.5q0 89 46 153t125 97t175 33q83 0 163.5 -25t143.5 -69l-96 -129q-107 76 -226 76q-80 0 -127 -32
t-47 -87q0 -41 27.5 -67t69 -41t115.5 -35q21 -5 28 -7q85 -23 143.5 -51.5t97.5 -83.5t39 -143q0 -95 -44 -164t-124.5 -105t-187.5 -36q-111 0 -198 34z" />
    <glyph glyph-name="t" unicode="t" horiz-adv-x="633" 
d="M602 809h-201v-809h-170v809h-202v154h202v346h170v-346h201v-154z" />
    <glyph glyph-name="u" unicode="u" horiz-adv-x="1032" 
d="M321.5 26.5q-83.5 44.5 -129 127.5t-45.5 194v615h168v-596q0 -68 25.5 -118t71 -77t104.5 -27t104.5 27t71 77t25.5 118v596h168v-615q0 -111 -45.5 -194t-129 -127.5t-194.5 -44.5t-194.5 44.5z" />
    <glyph glyph-name="v" unicode="v" horiz-adv-x="942" 
d="M938 963l-468 -1006l-466 1006h180l287 -658l287 658h180z" />
    <glyph glyph-name="w" unicode="w" horiz-adv-x="1432" 
d="M1026 -52l-311 682l-311 -682l-388 1015h183l222 -608l294 661l296 -666l222 613h182z" />
    <glyph glyph-name="x" unicode="x" horiz-adv-x="1047" 
d="M422 481l-402 482h203l299 -361l301 361h203l-401 -482l401 -481h-203l-299 360l-299 -360h-205z" />
    <glyph glyph-name="y" unicode="y" horiz-adv-x="985" 
d="M971 963l-584 -1455h-178l194 492l-391 963h187l300 -773l283 773h189z" />
    <glyph glyph-name="z" unicode="z" horiz-adv-x="936" 
d="M347 154h527v-154h-831l533 809h-496v154h801z" />
    <glyph glyph-name="braceleft" unicode="{" horiz-adv-x="586" 
d="M320.5 -477.5q-48.5 34.5 -76 94.5t-27.5 133v498q0 102 -10.5 160t-43 98.5t-100.5 73.5v110q68 32 100.5 73.5t43 99.5t10.5 159v496q0 74 27.5 134.5t75.5 95t108 34.5h90v-121h-55q-61 0 -87 -45.5t-26 -134.5v-488q0 -84 -10.5 -146.5t-41 -116.5t-89.5 -95
q59 -41 89.5 -95t41 -117t10.5 -147v-489q0 -89 26 -132.5t87 -43.5h55v-123h-90q-59 0 -107.5 34.5z" />
    <glyph glyph-name="bar" unicode="|" horiz-adv-x="637" 
d="M262 1536h113v-1843h-113v1843z" />
    <glyph glyph-name="braceright" unicode="}" horiz-adv-x="586" 
d="M68 -512v123h55q61 0 87 43.5t26 132.5v489q0 84 10.5 147t41 117t89.5 95q-59 41 -89.5 95t-41 116.5t-10.5 146.5v488q0 89 -26 134.5t-87 45.5h-55v121h90q60 0 108 -34.5t75.5 -95t27.5 -134.5v-496q0 -101 10.5 -159t43 -99.5t100.5 -73.5v-110
q-68 -33 -100.5 -73.5t-43 -98.5t-10.5 -160v-498q0 -73 -27.5 -133t-76 -94.5t-107.5 -34.5h-90z" />
    <glyph glyph-name="asciitilde" unicode="~" horiz-adv-x="1417" 
d="M804 366.5q-53 24.5 -87 55.5t-74 76q-37 42 -67.5 61t-67.5 19q-49 0 -85.5 -29t-55 -78.5t-17.5 -108.5h-149q-1 10 -1 30q0 99 38.5 175t109 118t162.5 42q81 0 138 -35.5t120 -111.5q36 -45 67.5 -68t75.5 -23q45 0 82 26.5t56.5 74.5t15.5 112h149q2 -24 2 -36
q0 -92 -37.5 -166t-104.5 -116t-150 -42q-67 0 -120 24.5z" />
    <glyph glyph-name="exclamdown" unicode="&#xa1;" horiz-adv-x="651" 
d="M381.5 1028.5q26.5 -15.5 42.5 -42t16 -56.5q0 -48 -34 -81.5t-81 -33.5q-46 0 -80 33.5t-34 81.5q0 30 15.5 56.5t42 42t56.5 15.5t56.5 -15.5zM409 582v-1094h-168v1094h168z" />
    <glyph glyph-name="cent" unicode="&#xa2;" horiz-adv-x="1223" 
d="M820.5 438.5q79.5 53.5 121.5 143.5l153 -70q-53 -118 -158 -194.5t-237 -91.5v-228h-108v226q-127 11 -232 80t-165 178.5t-60 238.5t60 239t164.5 179t232.5 80v217h108v-219q132 -15 237 -92t158 -195l-153 -69q-42 89 -121.5 142.5t-181.5 53.5q-95 0 -172 -44
t-120.5 -121t-43.5 -171t43.5 -171t120.5 -121t172 -44q102 0 181.5 53.5z" />
    <glyph glyph-name="sterling" unicode="&#xa3;" horiz-adv-x="1376" 
d="M500 164h731v-164h-1073v152l164 8v512h-164v153h164v242q0 141 60.5 252.5t169 174t247.5 62.5q98 0 190.5 -42.5t161.5 -118.5t98 -170l-170 -76q-11 65 -52.5 117.5t-102 82t-125.5 29.5q-89 0 -157 -39t-105 -109.5t-37 -162.5v-242h381v-153h-381v-508z" />
    <glyph glyph-name="currency" unicode="&#xa4;" horiz-adv-x="1389" 
d="M552.5 318q-68.5 23 -126.5 67l-104 -106l-93 98l105 102q-44 57 -66 124.5t-22 139.5q0 73 22 141t66 124l-103 100l93 98l104 -106q58 45 127 68.5t141 23.5q70 0 137.5 -23t124.5 -67l103 102l94 -92l-102 -102q44 -58 67 -126.5t23 -140.5q0 -71 -23 -139.5
t-67 -126.5l102 -100l-92 -98l-105 106q-57 -44 -126 -67t-140 -23t-139.5 23zM852 468.5q73 42.5 115.5 115t42.5 159.5q0 86 -43 158.5t-116 115t-159 42.5t-159 -43t-115.5 -116.5t-42.5 -160.5q0 -86 43 -158t115.5 -113.5t158.5 -41.5q87 0 160 42.5z" />
    <glyph glyph-name="yen" unicode="&#xa5;" horiz-adv-x="1456" 
d="M647 281h-405v143h405v172h-405v143h395l-526 797h217l407 -629l408 629h213l-527 -797h398v-143h-406v-172h404v-143h-404v-281h-174v281z" />
    <glyph glyph-name="brokenbar" unicode="&#xa6;" horiz-adv-x="637" 
d="M262 1536h113v-737h-113v737zM262 430h113v-737h-113v737z" />
    <glyph glyph-name="section" unicode="&#xa7;" horiz-adv-x="1196" 
d="M386 -562.5q-112 58.5 -179 150.5l139 111q44 -70 117.5 -107.5t164.5 -37.5q71 0 128.5 24.5t91 73.5t33.5 121q0 74 -41 126.5t-102 88t-166 83.5q-130 58 -211 108.5t-138 135t-57 210.5q0 100 35 180t100 139q-162 114 -162 303q0 124 56.5 217.5t154 144t216.5 50.5
q132 0 242.5 -58.5t178.5 -150.5l-139 -111q-44 70 -117 107.5t-163 37.5q-108 0 -179.5 -54t-75.5 -156q-3 -77 37.5 -131t101.5 -90t170 -86q130 -59 211 -109t138 -135t57 -211q0 -100 -34.5 -181t-98.5 -137q76 -56 118 -130.5t42 -177.5q0 -123 -56 -215.5t-153 -142
t-216 -49.5q-132 0 -244 58.5zM820 275.5q34 54.5 34 126.5q0 78 -42.5 134t-105 93.5t-170.5 87.5q-55 25 -67 31q-61 -31 -95 -85t-34 -127q0 -79 42.5 -135t106 -93t172.5 -87l66 -31q59 31 93 85.5z" />
    <glyph glyph-name="dieresis" unicode="&#xa8;" horiz-adv-x="877" 
d="M169 1174q-34 33 -34 79q0 49 34 82t81 33t81 -33t34 -82q0 -30 -16 -55.5t-42.5 -41t-56.5 -15.5q-47 0 -81 33zM546 1174q-34 33 -34 79q0 49 34 82t81 33q48 0 81 -33t33 -82q0 -46 -33.5 -79t-80.5 -33t-81 33z" />
    <glyph glyph-name="copyright" unicode="&#xa9;" horiz-adv-x="1847" 
d="M529 86q-181 106 -287.5 287.5t-106.5 394.5t106.5 394.5t287.5 287.5t395 106q213 0 394 -106.5t287.5 -287.5t106.5 -394t-106.5 -394t-287.5 -287.5t-394 -106.5q-214 0 -395 106zM1271.5 172q158.5 92 250.5 249.5t92 346.5t-92 346.5t-250.5 249.5t-347.5 92
q-188 0 -346 -92t-250 -250t-92 -346t92 -346t250 -250t346 -92q189 0 347.5 92zM705 388.5q-101 58.5 -159.5 159t-58.5 220.5t58.5 220.5t159.5 159t221 58.5q82 0 166 -35t143 -94l-70 -67q-46 47 -109.5 73.5t-129.5 26.5q-94 0 -172.5 -45t-124 -123.5t-45.5 -173.5
q0 -94 45.5 -171.5t124 -123t172.5 -45.5q66 0 129.5 26.5t109.5 73.5l70 -69q-59 -59 -143 -94t-166 -35q-120 0 -221 58.5z" />
    <glyph glyph-name="ordfeminine" unicode="&#xaa;" horiz-adv-x="1018" 
d="M805 1536v-614h-115v119q-40 -62 -102.5 -97t-138.5 -35q-84 0 -155 43t-113 116.5t-42 160.5q0 86 42 159.5t113 116.5t155 43q76 0 138.5 -35t102.5 -97v120h115zM581 1039.5q50 29.5 79.5 79.5t29.5 110q0 59 -29.5 108t-79.5 78t-110 29q-59 0 -109 -29t-79 -78
t-29 -108q0 -60 29 -110t79 -79.5t109 -29.5q60 0 110 29.5z" />
    <glyph glyph-name="guillemotleft" unicode="&#xab;" horiz-adv-x="967" 
d="M55 481l312 377h143l-311 -377l311 -377h-143zM432 481l311 377h148l-311 -377l311 -377h-148z" />
    <glyph glyph-name="logicalnot" unicode="&#xac;" horiz-adv-x="1638" 
d="M1231 750h-1112v149h1259v-674h-147v525z" />
    <glyph glyph-name="uni00AD" unicode="&#xad;" horiz-adv-x="1053" 
d="M168 548h717v-145h-717v145z" />
    <glyph glyph-name="registered" unicode="&#xae;" horiz-adv-x="1847" 
d="M1318 1449.5q181 -106.5 287.5 -287.5t106.5 -394t-106.5 -394t-287.5 -287.5t-394 -106.5q-214 0 -395 106t-287.5 287.5t-106.5 394.5t106.5 394.5t287.5 287.5t395 106q213 0 394 -106.5zM1271.5 172q158.5 92 250.5 249.5t92 346.5t-92 346.5t-250.5 249.5t-347.5 92
q-188 0 -346 -92t-250 -250t-92 -346t92 -346t250 -250t346 -92q189 0 347.5 92zM1232 830q-48 -69 -127 -100l206 -458h-121l-197 439h-237v-439h-113v992h358q77 0 141 -37t101 -100.5t37 -139.5q0 -88 -48 -157zM756 819h235q77 0 126.5 44.5t49.5 121.5q0 50 -23 88.5
t-63.5 60t-89.5 21.5h-235v-336z" />
    <glyph glyph-name="macron" unicode="&#xaf;" horiz-adv-x="967" 
d="M166 1348h635v-115h-635v115z" />
    <glyph glyph-name="degree" unicode="&#xb0;" horiz-adv-x="1018" 
d="M343 1130q-76 45 -120.5 120.5t-44.5 164.5q0 90 44.5 165.5t120 120t165.5 44.5q89 0 164.5 -44.5t120.5 -120.5t45 -165q0 -88 -45 -164t-121 -121t-164 -45q-89 0 -165 45zM628.5 1208q55.5 32 87.5 87t32 120t-32 120.5t-87.5 87.5t-120.5 32t-120.5 -32t-87.5 -87.5
t-32 -120.5t32 -120t87.5 -87t120.5 -32t120.5 32z" />
    <glyph glyph-name="uni00B2" unicode="&#xb2;" horiz-adv-x="713" 
d="M643 766v-152h-604v86q182 193 271.5 302t118 164.5t28.5 100.5q0 68 -35.5 98.5t-85.5 30.5q-59 0 -91 -36t-32 -97h-166q0 87 36.5 152t102.5 100t152 35q82 0 145.5 -33t99 -95.5t35.5 -147.5q0 -71 -30.5 -141t-99.5 -156t-191 -211h346z" />
    <glyph glyph-name="uni00B3" unicode="&#xb3;" horiz-adv-x="707" 
d="M608 1035q37 -61 37 -138q0 -81 -40.5 -148.5t-111 -107t-155.5 -39.5q-82 0 -150.5 35t-108.5 97.5t-40 141.5l168 2q0 -51 39 -85t94 -34q60 0 99.5 41t39.5 101q0 59 -39 96t-98 37h-86v141h76q47 0 78.5 33t31.5 80q0 46 -31.5 75t-78.5 29q-45 0 -73 -26.5
t-28 -67.5l-163 2q0 73 34.5 129t94.5 87.5t135 31.5q72 0 132 -32.5t95 -87.5t35 -122q0 -55 -23 -99.5t-65 -74.5q65 -36 102 -97z" />
    <glyph glyph-name="acute" unicode="&#xb4;" horiz-adv-x="496" 
d="M45 1214l303 326l96 -108l-333 -289z" />
    <glyph glyph-name="uni00B5" unicode="&#xb5;" horiz-adv-x="1196" 
d="M1022 963v-963h-166v140q-54 -74 -134 -116t-173 -42q-70 0 -134 24.5t-114 69.5v-557h-127v1444h168v-582q0 -68 34 -126t92.5 -92t127.5 -34q70 0 130 34t95 92t35 126v582h166z" />
    <glyph glyph-name="paragraph" unicode="&#xb6;" horiz-adv-x="1161" 
d="M518 850h-65q-171 0 -268 89.5t-97 254.5t96.5 253.5t268.5 88.5h159v-1843h-94v1157zM805 1536h94v-1843h-94v1843z" />
    <glyph glyph-name="periodcentered" unicode="&#xb7;" horiz-adv-x="604" 
d="M236.5 671.5q-27.5 26.5 -27.5 65.5q0 37 27.5 64.5t64.5 27.5t65.5 -27.5t28.5 -64.5q0 -39 -28 -65.5t-66 -26.5q-37 0 -64.5 26.5z" />
    <glyph glyph-name="cedilla" unicode="&#xb8;" horiz-adv-x="614" 
d="M173.5 -493q-68.5 39 -97.5 96l92 37q22 -30 64 -51t81 -21q47 0 79 32.5t32 80.5q0 49 -31 77t-83 28q-41 0 -85 -17l-80 51l93 184h100l-66 -139q28 6 54 6q56 0 101.5 -24t71 -67.5t25.5 -98.5q0 -59 -28 -107.5t-76 -77t-107 -28.5q-71 0 -139.5 39z" />
    <glyph glyph-name="uni00B9" unicode="&#xb9;" horiz-adv-x="477" 
d="M172 1384h-133v152h299v-922h-166v770z" />
    <glyph glyph-name="ordmasculine" unicode="&#xba;" horiz-adv-x="938" 
d="M300 952q-76 43 -120.5 116t-44.5 161q0 87 44.5 160t121 116t166.5 43q91 0 168 -43t121.5 -116t44.5 -160q0 -88 -44.5 -161t-121 -116t-168.5 -43q-91 0 -167 43zM577 1039.5q50 29.5 79.5 79.5t29.5 110q0 59 -29.5 108t-79.5 78t-110 29q-59 0 -109 -29t-79 -78
t-29 -108q0 -60 29 -110t79 -79.5t109 -29.5q60 0 110 29.5z" />
    <glyph glyph-name="guillemotright" unicode="&#xbb;" horiz-adv-x="967" 
d="M387 481l-311 377h143l311 -377l-311 -377h-143zM764 481l-311 377h147l311 -377l-311 -377h-147z" />
    <glyph glyph-name="onequarter" unicode="&#xbc;" horiz-adv-x="1667" 
d="M172 1384h-133v152h299v-922h-166v770zM1179 1536h177l-1072 -1536h-176zM1593 195h-84v-195h-166v195h-438v104l383 623h221v-576h84v-151zM1343 346v406l-238 -406h238z" />
    <glyph glyph-name="onehalf" unicode="&#xbd;" horiz-adv-x="1700" 
d="M172 1384h-133v152h299v-922h-166v770zM1179 1536h177l-1072 -1536h-176zM1630 152v-152h-604v86q182 193 271.5 302t118 164.5t28.5 100.5q0 68 -35.5 98.5t-85.5 30.5q-59 0 -91 -36t-32 -97h-166q0 87 36.5 152t102.5 100t152 35q82 0 145.5 -33t99 -95.5t35.5 -147.5
q0 -71 -30.5 -141t-99.5 -156t-191 -211h346z" />
    <glyph glyph-name="threequarters" unicode="&#xbe;" horiz-adv-x="1897" 
d="M608 1035q37 -61 37 -138q0 -81 -40.5 -148.5t-111 -107t-155.5 -39.5q-82 0 -150.5 35t-108.5 97.5t-40 141.5l168 2q0 -51 39 -85t94 -34q60 0 99.5 41t39.5 101q0 59 -39 96t-98 37h-86v141h76q47 0 78.5 33t31.5 80q0 46 -31.5 75t-78.5 29q-45 0 -73 -26.5
t-28 -67.5l-163 2q0 73 34.5 129t94.5 87.5t135 31.5q72 0 132 -32.5t95 -87.5t35 -122q0 -55 -23 -99.5t-65 -74.5q65 -36 102 -97zM1409 1536h177l-1072 -1536h-176zM1823 195h-84v-195h-166v195h-438v104l383 623h221v-576h84v-151zM1573 346v406l-238 -406h238z" />
    <glyph glyph-name="questiondown" unicode="&#xbf;" horiz-adv-x="1034" 
d="M578.5 1030.5q26.5 -15.5 42.5 -41.5t16 -57q0 -30 -16 -56.5t-42.5 -42.5t-56.5 -16q-48 0 -81.5 34t-33.5 81t33.5 80.5t81.5 33.5q30 0 56.5 -15.5zM606 467q0 -91 -26.5 -148.5t-65.5 -88.5t-102 -66q-59 -32 -94 -59.5t-59 -76t-24 -124.5q0 -79 38 -141.5t105 -98
t152 -35.5q81 0 146 35.5t103.5 98.5t41.5 141h152q-1 -119 -59 -215.5t-159 -151.5t-225 -55q-127 0 -228.5 54.5t-158.5 150.5t-57 217q0 104 31 171.5t75 104.5t113 78q51 31 80 53t48 55.5t19 81.5v148h154v-129z" />
    <glyph glyph-name="Agrave" unicode="&#xc0;" horiz-adv-x="1360" 
d="M1041 246h-722l-96 -246h-194l651 1578l651 -1578h-194zM978 408l-297 760l-298 -760h595zM348 1944l98 108l301 -326l-63 -71z" />
    <glyph glyph-name="Aacute" unicode="&#xc1;" horiz-adv-x="1360" 
d="M1041 246h-722l-96 -246h-194l651 1578l651 -1578h-194zM978 408l-297 760l-298 -760h595zM575 1726l303 326l96 -108l-333 -289z" />
    <glyph glyph-name="Acircumflex" unicode="&#xc2;" horiz-adv-x="1360" 
d="M1041 246h-722l-96 -246h-194l651 1578l651 -1578h-194zM978 408l-297 760l-298 -760h595zM393 1710l200 297h173l202 -297l-86 -51l-200 237l-205 -237z" />
    <glyph glyph-name="Atilde" unicode="&#xc3;" horiz-adv-x="1360" 
d="M1041 246h-722l-96 -246h-194l651 1578l651 -1578h-194zM978 408l-297 760l-298 -760h595zM707.5 1671.5q-44.5 31.5 -78.5 81.5q-20 30 -39 42.5t-43 12.5q-47 0 -72.5 -45t-25.5 -114h-125q0 80 26.5 144t76 101t116.5 37q62 0 107 -30.5t81 -81.5q19 -27 37.5 -41.5
t48.5 -14.5q47 0 72 40.5t25 119.5h123q0 -80 -25.5 -144.5t-75 -101.5t-119.5 -37q-65 0 -109.5 31.5z" />
    <glyph glyph-name="Adieresis" unicode="&#xc4;" horiz-adv-x="1360" 
d="M1041 246h-722l-96 -246h-194l651 1578l651 -1578h-194zM978 408l-297 760l-298 -760h595zM413 1685.5q-34 33.5 -34 79.5q0 48 34 81.5t81 33.5q46 0 80.5 -33.5t34.5 -81.5q0 -30 -16 -56t-42.5 -41.5t-56.5 -15.5q-47 0 -81 33.5zM790 1685.5q-34 33.5 -34 79.5
q0 48 34 81.5t81 33.5t80.5 -33t33.5 -82q0 -47 -33.5 -80t-80.5 -33t-81 33.5z" />
    <glyph glyph-name="Aring" unicode="&#xc5;" horiz-adv-x="1360" 
d="M1041 246h-722l-96 -246h-194l651 1578l651 -1578h-194zM978 408l-297 760l-298 -760h595zM574 1702.5q-50 29.5 -79.5 78.5t-29.5 107t29.5 107.5t79 78.5t108.5 29q58 0 106.5 -29t77.5 -78.5t29 -107.5t-29 -107t-78 -78.5t-106 -29.5q-58 0 -108 29.5zM769 1799
q36 36 36 89q0 33 -17 62.5t-45 47t-61 17.5q-34 0 -62.5 -17.5t-44.5 -47t-16 -62.5q0 -54 35 -89.5t88 -35.5q51 0 87 36z" />
    <glyph glyph-name="AE" unicode="&#xc6;" horiz-adv-x="1810" 
d="M1030 1362v-506h586v-174h-586v-508h672v-174h-842v365h-492l-143 -365h-196l616 1536h1057v-174h-672zM860 530v856h-92l-335 -856h427z" />
    <glyph glyph-name="Ccedilla" unicode="&#xc7;" horiz-adv-x="1495" 
d="M1198.5 48.5q-143.5 -62.5 -286.5 -67.5l-55 -116q29 6 54 6q56 0 101.5 -24t71 -67.5t25.5 -98.5q0 -59 -28 -107.5t-76 -77t-107 -28.5q-71 0 -139.5 39t-97.5 96l92 37q22 -30 64 -51t81 -21q47 0 79 32.5t32 80.5q0 49 -31 77t-83 28q-41 0 -85 -17l-80 51l82 163
q-200 18 -363.5 126.5t-258 281.5t-94.5 377q0 216 105.5 396.5t286.5 286t397 105.5q148 0 300.5 -63.5t256.5 -167.5l-125 -123q-83 85 -198 132.5t-234 47.5q-169 0 -310 -81.5t-223 -222.5t-82 -310t82 -310t223 -222.5t310 -81.5q119 0 234 47.5t198 132.5l125 -123
q-100 -100 -243.5 -162.5z" />
    <glyph glyph-name="Egrave" unicode="&#xc8;" horiz-adv-x="1165" 
d="M391 1368v-516h584v-168h-584v-516h670v-168h-844v1536h844v-168h-670zM305 1944l98 108l301 -326l-63 -71z" />
    <glyph glyph-name="Eacute" unicode="&#xc9;" horiz-adv-x="1165" 
d="M391 1368v-516h584v-168h-584v-516h670v-168h-844v1536h844v-168h-670zM532 1726l303 326l96 -108l-333 -289z" />
    <glyph glyph-name="Ecircumflex" unicode="&#xca;" horiz-adv-x="1165" 
d="M391 1368v-516h584v-168h-584v-516h670v-168h-844v1536h844v-168h-670zM350 1710l200 297h173l202 -297l-86 -51l-200 237l-205 -237z" />
    <glyph glyph-name="Edieresis" unicode="&#xcb;" horiz-adv-x="1165" 
d="M391 1368v-516h584v-168h-584v-516h670v-168h-844v1536h844v-168h-670zM370 1685.5q-34 33.5 -34 79.5q0 48 34 81.5t81 33.5q46 0 80.5 -33.5t34.5 -81.5q0 -30 -16 -56t-42.5 -41.5t-56.5 -15.5q-47 0 -81 33.5zM747 1685.5q-34 33.5 -34 79.5q0 48 34 81.5t81 33.5
t80.5 -33t33.5 -82q0 -47 -33.5 -80t-80.5 -33t-81 33.5z" />
    <glyph glyph-name="Igrave" unicode="&#xcc;" horiz-adv-x="608" 
d="M217 1536h174v-1536h-174v1536zM-31 1944l98 108l301 -326l-63 -71z" />
    <glyph glyph-name="Iacute" unicode="&#xcd;" horiz-adv-x="608" 
d="M217 1536h174v-1536h-174v1536zM196 1726l303 326l96 -108l-333 -289z" />
    <glyph glyph-name="Icircumflex" unicode="&#xce;" horiz-adv-x="608" 
d="M217 1536h174v-1536h-174v1536zM14 1710l200 297h173l202 -297l-86 -51l-200 237l-205 -237z" />
    <glyph glyph-name="Idieresis" unicode="&#xcf;" horiz-adv-x="608" 
d="M217 1536h174v-1536h-174v1536zM34 1685.5q-34 33.5 -34 79.5q0 48 34 81.5t81 33.5q46 0 80.5 -33.5t34.5 -81.5q0 -30 -16 -56t-42.5 -41.5t-56.5 -15.5q-47 0 -81 33.5zM411 1685.5q-34 33.5 -34 79.5q0 48 34 81.5t81 33.5t80.5 -33t33.5 -82q0 -47 -33.5 -80
t-80.5 -33t-81 33.5z" />
    <glyph glyph-name="Eth" unicode="&#xd0;" horiz-adv-x="1501" 
d="M1026 1432.5q176 -103.5 279.5 -279.5t103.5 -385t-103.5 -385t-279.5 -279.5t-385 -103.5h-424v698h-158v119h158v719h424q209 0 385 -103.5zM940.5 251q136.5 77 215.5 213t79 304t-79 304t-215.5 213t-301.5 77h-250v-545h272v-119h-272v-524h250q165 0 301.5 77z" />
    <glyph glyph-name="Ntilde" unicode="&#xd1;" horiz-adv-x="1575" 
d="M1358 -67l-967 1193v-1126h-174v1603l969 -1192v1125h172v-1603zM811.5 1671.5q-44.5 31.5 -78.5 81.5q-20 30 -39 42.5t-43 12.5q-47 0 -72.5 -45t-25.5 -114h-125q0 80 26.5 144t76 101t116.5 37q62 0 107 -30.5t81 -81.5q19 -27 37.5 -41.5t48.5 -14.5q47 0 72 40.5
t25 119.5h123q0 -80 -25.5 -144.5t-75 -101.5t-119.5 -37q-65 0 -109.5 31.5z" />
    <glyph glyph-name="Ograve" unicode="&#xd2;" horiz-adv-x="1765" 
d="M487 86q-181 106 -287 286.5t-106 395.5t106 395.5t287 286.5t396 106q214 0 395 -106t287 -287t106 -395t-106 -395t-287 -287t-395 -106q-215 0 -396 106zM1192 236q141 82 223 223t82 309t-82 309t-223 223t-309 82q-167 0 -308.5 -82t-224 -223t-82.5 -309t82.5 -309
t224 -223t308.5 -82q168 0 309 82zM549 1944l98 108l301 -326l-63 -71z" />
    <glyph glyph-name="Oacute" unicode="&#xd3;" horiz-adv-x="1765" 
d="M487 86q-181 106 -287 286.5t-106 395.5t106 395.5t287 286.5t396 106q214 0 395 -106t287 -287t106 -395t-106 -395t-287 -287t-395 -106q-215 0 -396 106zM1192 236q141 82 223 223t82 309t-82 309t-223 223t-309 82q-167 0 -308.5 -82t-224 -223t-82.5 -309t82.5 -309
t224 -223t308.5 -82q168 0 309 82zM776 1726l303 326l96 -108l-333 -289z" />
    <glyph glyph-name="Ocircumflex" unicode="&#xd4;" horiz-adv-x="1765" 
d="M487 86q-181 106 -287 286.5t-106 395.5t106 395.5t287 286.5t396 106q214 0 395 -106t287 -287t106 -395t-106 -395t-287 -287t-395 -106q-215 0 -396 106zM1192 236q141 82 223 223t82 309t-82 309t-223 223t-309 82q-167 0 -308.5 -82t-224 -223t-82.5 -309t82.5 -309
t224 -223t308.5 -82q168 0 309 82zM594 1710l200 297h173l202 -297l-86 -51l-200 237l-205 -237z" />
    <glyph glyph-name="Otilde" unicode="&#xd5;" horiz-adv-x="1765" 
d="M487 86q-181 106 -287 286.5t-106 395.5t106 395.5t287 286.5t396 106q214 0 395 -106t287 -287t106 -395t-106 -395t-287 -287t-395 -106q-215 0 -396 106zM1192 236q141 82 223 223t82 309t-82 309t-223 223t-309 82q-167 0 -308.5 -82t-224 -223t-82.5 -309t82.5 -309
t224 -223t308.5 -82q168 0 309 82zM908.5 1671.5q-44.5 31.5 -78.5 81.5q-20 30 -39 42.5t-43 12.5q-47 0 -72.5 -45t-25.5 -114h-125q0 80 26.5 144t76 101t116.5 37q62 0 107 -30.5t81 -81.5q19 -27 37.5 -41.5t48.5 -14.5q47 0 72 40.5t25 119.5h123q0 -80 -25.5 -144.5
t-75 -101.5t-119.5 -37q-65 0 -109.5 31.5z" />
    <glyph glyph-name="Odieresis" unicode="&#xd6;" horiz-adv-x="1765" 
d="M487 86q-181 106 -287 286.5t-106 395.5t106 395.5t287 286.5t396 106q214 0 395 -106t287 -287t106 -395t-106 -395t-287 -287t-395 -106q-215 0 -396 106zM1192 236q141 82 223 223t82 309t-82 309t-223 223t-309 82q-167 0 -308.5 -82t-224 -223t-82.5 -309t82.5 -309
t224 -223t308.5 -82q168 0 309 82zM614 1685.5q-34 33.5 -34 79.5q0 48 34 81.5t81 33.5q46 0 80.5 -33.5t34.5 -81.5q0 -30 -16 -56t-42.5 -41.5t-56.5 -15.5q-47 0 -81 33.5zM991 1685.5q-34 33.5 -34 79.5q0 48 34 81.5t81 33.5t80.5 -33t33.5 -82q0 -47 -33.5 -80
t-80.5 -33t-81 33.5z" />
    <glyph glyph-name="multiply" unicode="&#xd7;" horiz-adv-x="1065" 
d="M152 395l268 269l-268 266l110 112l270 -266l269 266l112 -112l-270 -266l270 -269l-112 -112l-269 268l-270 -268z" />
    <glyph glyph-name="Oslash" unicode="&#xd8;" horiz-adv-x="1765" 
d="M1597.5 1102q73.5 -156 73.5 -334q0 -214 -106 -395t-287 -287t-395 -106q-207 0 -387 101l-125 -179l-129 78l130 187q-130 110 -204 266.5t-74 334.5q0 215 106 395.5t287 286.5t396 106q104 0 202.5 -26.5t185.5 -75.5l124 178l127 -80l-128 -184q130 -110 203.5 -266
zM322 514.5q54 -118.5 150 -204.5l699 1001q-131 71 -288 71q-167 0 -308.5 -82t-224 -223t-82.5 -309q0 -135 54 -253.5zM1192 236q141 82 223 223t82 309q0 135 -53.5 253.5t-149.5 204.5l-698 -1002q134 -70 287 -70q168 0 309 82z" />
    <glyph glyph-name="Ugrave" unicode="&#xd9;" horiz-adv-x="1526" 
d="M464 47.5q-132 67.5 -207 187t-75 269.5v1032h174v-1004q0 -108 52 -194.5t145 -135t209 -48.5t209 49t145.5 135t52.5 194v1004h174v-1032q0 -150 -74.5 -269.5t-207 -187t-299.5 -67.5q-166 0 -298 67.5zM428 1944l98 108l301 -326l-63 -71z" />
    <glyph glyph-name="Uacute" unicode="&#xda;" horiz-adv-x="1526" 
d="M464 47.5q-132 67.5 -207 187t-75 269.5v1032h174v-1004q0 -108 52 -194.5t145 -135t209 -48.5t209 49t145.5 135t52.5 194v1004h174v-1032q0 -150 -74.5 -269.5t-207 -187t-299.5 -67.5q-166 0 -298 67.5zM655 1726l303 326l96 -108l-333 -289z" />
    <glyph glyph-name="Ucircumflex" unicode="&#xdb;" horiz-adv-x="1526" 
d="M464 47.5q-132 67.5 -207 187t-75 269.5v1032h174v-1004q0 -108 52 -194.5t145 -135t209 -48.5t209 49t145.5 135t52.5 194v1004h174v-1032q0 -150 -74.5 -269.5t-207 -187t-299.5 -67.5q-166 0 -298 67.5zM473 1710l200 297h173l202 -297l-86 -51l-200 237l-205 -237z
" />
    <glyph glyph-name="Udieresis" unicode="&#xdc;" horiz-adv-x="1526" 
d="M464 47.5q-132 67.5 -207 187t-75 269.5v1032h174v-1004q0 -108 52 -194.5t145 -135t209 -48.5t209 49t145.5 135t52.5 194v1004h174v-1032q0 -150 -74.5 -269.5t-207 -187t-299.5 -67.5q-166 0 -298 67.5zM493 1685.5q-34 33.5 -34 79.5q0 48 34 81.5t81 33.5
q46 0 80.5 -33.5t34.5 -81.5q0 -30 -16 -56t-42.5 -41.5t-56.5 -15.5q-47 0 -81 33.5zM870 1685.5q-34 33.5 -34 79.5q0 48 34 81.5t81 33.5t80.5 -33t33.5 -82q0 -47 -33.5 -80t-80.5 -33t-81 33.5z" />
    <glyph glyph-name="Yacute" unicode="&#xdd;" horiz-adv-x="1270" 
d="M723 728v-728h-174v725l-537 811h217l407 -629l408 629h213zM530 1726l303 326l96 -108l-333 -289z" />
    <glyph glyph-name="Thorn" unicode="&#xde;" horiz-adv-x="1260" 
d="M984.5 1265q98.5 -58 156 -157t57.5 -217q0 -116 -57.5 -213.5t-156 -154t-214.5 -56.5h-385v-467h-168v1528h168v-205h385q116 0 214.5 -58zM894 668q61 33 95.5 92t34.5 135t-34.5 135t-95.5 92t-138 33h-371v-520h371q77 0 138 33z" />
    <glyph glyph-name="germandbls" unicode="&#xdf;" horiz-adv-x="1290" 
d="M1142.5 628.5q67.5 -102.5 67.5 -229.5q0 -115 -53.5 -206t-145.5 -142t-202 -51h-172v174h143q71 0 130 27t94.5 80t35.5 127q0 77 -39 142t-105.5 102.5t-145.5 37.5h-117v141h49q77 0 141.5 37.5t102 102.5t37.5 143t-38.5 140t-107 97t-155.5 35q-90 0 -163.5 -37.5
t-115 -103t-41.5 -147.5v-1098h-168v1098q0 125 63.5 225t174.5 156.5t247 56.5q133 0 238.5 -54.5t165 -149.5t59.5 -214q0 -101 -43 -187.5t-118 -145.5q114 -54 181.5 -156.5z" />
    <glyph glyph-name="agrave" unicode="&#xe0;" horiz-adv-x="1253" 
d="M1081 963v-963h-168v137q-63 -74 -153.5 -114.5t-202.5 -40.5q-127 0 -238 67t-177 182t-66 250q0 136 66 250.5t177 182t238 67.5q112 0 202.5 -40.5t153.5 -114.5v137h168zM747.5 190q76.5 45 121 122t44.5 169t-44.5 169t-120.5 122t-168 45t-169 -45t-122 -122
t-45 -169t45 -169t122 -122t169 -45q91 0 167.5 45zM244 1371l98 108l301 -326l-63 -71z" />
    <glyph glyph-name="aacute" unicode="&#xe1;" horiz-adv-x="1253" 
d="M1081 963v-963h-168v137q-63 -74 -153.5 -114.5t-202.5 -40.5q-127 0 -238 67t-177 182t-66 250q0 136 66 250.5t177 182t238 67.5q112 0 202.5 -40.5t153.5 -114.5v137h168zM747.5 190q76.5 45 121 122t44.5 169t-44.5 169t-120.5 122t-168 45t-169 -45t-122 -122
t-45 -169t45 -169t122 -122t169 -45q91 0 167.5 45zM471 1153l303 326l96 -108l-333 -289z" />
    <glyph glyph-name="acircumflex" unicode="&#xe2;" horiz-adv-x="1253" 
d="M1081 963v-963h-168v137q-63 -74 -153.5 -114.5t-202.5 -40.5q-127 0 -238 67t-177 182t-66 250q0 136 66 250.5t177 182t238 67.5q112 0 202.5 -40.5t153.5 -114.5v137h168zM747.5 190q76.5 45 121 122t44.5 169t-44.5 169t-120.5 122t-168 45t-169 -45t-122 -122
t-45 -169t45 -169t122 -122t169 -45q91 0 167.5 45zM289 1137l200 297h173l202 -297l-86 -51l-200 237l-205 -237z" />
    <glyph glyph-name="atilde" unicode="&#xe3;" horiz-adv-x="1253" 
d="M1081 963v-963h-168v137q-63 -74 -153.5 -114.5t-202.5 -40.5q-127 0 -238 67t-177 182t-66 250q0 136 66 250.5t177 182t238 67.5q112 0 202.5 -40.5t153.5 -114.5v137h168zM747.5 190q76.5 45 121 122t44.5 169t-44.5 169t-120.5 122t-168 45t-169 -45t-122 -122
t-45 -169t45 -169t122 -122t169 -45q91 0 167.5 45zM603.5 1098.5q-44.5 31.5 -78.5 81.5q-20 30 -39 42.5t-43 12.5q-47 0 -72.5 -45t-25.5 -114h-125q0 80 26.5 144t76 101t116.5 37q62 0 107 -30.5t81 -81.5q19 -27 37.5 -41.5t48.5 -14.5q47 0 72 40.5t25 119.5h123
q0 -80 -25.5 -144.5t-75 -101.5t-119.5 -37q-65 0 -109.5 31.5z" />
    <glyph glyph-name="adieresis" unicode="&#xe4;" horiz-adv-x="1253" 
d="M1081 963v-963h-168v137q-63 -74 -153.5 -114.5t-202.5 -40.5q-127 0 -238 67t-177 182t-66 250q0 136 66 250.5t177 182t238 67.5q112 0 202.5 -40.5t153.5 -114.5v137h168zM747.5 190q76.5 45 121 122t44.5 169t-44.5 169t-120.5 122t-168 45t-169 -45t-122 -122
t-45 -169t45 -169t122 -122t169 -45q91 0 167.5 45zM309 1174q-34 33 -34 79q0 49 34 82t81 33t81 -33t34 -82q0 -30 -16 -55.5t-42.5 -41t-56.5 -15.5q-47 0 -81 33zM686 1174q-34 33 -34 79q0 49 34 82t81 33q48 0 81 -33t33 -82q0 -46 -33.5 -79t-80.5 -33t-81 33z" />
    <glyph glyph-name="aring" unicode="&#xe5;" horiz-adv-x="1253" 
d="M1081 963v-963h-168v137q-63 -74 -153.5 -114.5t-202.5 -40.5q-127 0 -238 67t-177 182t-66 250q0 136 66 250.5t177 182t238 67.5q112 0 202.5 -40.5t153.5 -114.5v137h168zM747.5 190q76.5 45 121 122t44.5 169t-44.5 169t-120.5 122t-168 45t-169 -45t-122 -122
t-45 -169t45 -169t122 -122t169 -45q91 0 167.5 45zM490 1155.5q-50 29.5 -79.5 79t-29.5 106.5q0 58 29.5 107.5t79 78.5t108.5 29q58 0 106.5 -29t77.5 -78.5t29 -107.5q0 -57 -29 -106.5t-78 -79t-106 -29.5q-58 0 -108 29.5zM685 1252.5q36 35.5 36 88.5q0 34 -16.5 63
t-45 46.5t-61.5 17.5q-34 0 -62 -17.5t-44.5 -46.5t-16.5 -63q0 -53 35.5 -88.5t87.5 -35.5q51 0 87 35.5z" />
    <glyph glyph-name="ae" unicode="&#xe6;" horiz-adv-x="1798" 
d="M1736 459h-844q5 -90 52.5 -164.5t125 -118t167.5 -43.5t167 43.5t125 118.5l142 -57q-63 -119 -178 -187.5t-254 -68.5q-119 0 -221.5 49.5t-172.5 135.5q-96 -87 -204 -136t-209 -49q-102 0 -181 38t-123 108t-44 161q0 146 122.5 224.5t375.5 78.5h153v37
q0 63 -29 112.5t-80 77t-116 27.5q-77 0 -139 -39t-80 -100l-164 53q24 65 80.5 115t135.5 78t169 28q115 0 205.5 -45.5t139.5 -125.5q70 80 168.5 125.5t211.5 45.5q136 0 250.5 -64.5t181.5 -176.5t67 -248v-33zM1094.5 799.5q-66.5 -29.5 -114 -83t-70.5 -122.5h649
q-22 69 -69 122t-112.5 83t-140.5 30q-76 0 -142.5 -29.5zM604 176q88 47 163 128q-25 64 -31 140h-224q-260 0 -260 -159q0 -72 50 -114t136 -42q78 0 166 47z" />
    <glyph glyph-name="ccedilla" unicode="&#xe7;" horiz-adv-x="1098" 
d="M759.5 198.5q79.5 53.5 121.5 143.5l153 -70q-54 -122 -163.5 -199t-247.5 -89l-56 -119q29 6 54 6q56 0 101.5 -24t71 -67.5t25.5 -98.5q0 -59 -28 -107.5t-76 -77t-107 -28.5q-71 0 -139.5 39t-97.5 96l92 37q22 -30 64 -51t81 -21q47 0 79 32.5t32 80.5q0 49 -31 77
t-83 28q-41 0 -85 -17l-80 51l83 165q-126 13 -228.5 81.5t-161.5 177.5t-59 237q0 137 67.5 252t183 181.5t253.5 66.5q100 0 190 -36t158.5 -102t107.5 -153l-153 -69q-42 89 -121.5 142.5t-181.5 53.5q-95 0 -172 -44t-120.5 -121t-43.5 -171t43.5 -171t120.5 -121
t172 -44q102 0 181.5 53.5z" />
    <glyph glyph-name="egrave" unicode="&#xe8;" horiz-adv-x="1139" 
d="M1077 459h-844q5 -90 52.5 -164.5t125 -118t167.5 -43.5t167 43.5t125 118.5l142 -57q-63 -119 -178 -187.5t-254 -68.5q-140 0 -255.5 67t-182 181.5t-66.5 250.5q0 137 67 251.5t182 181.5t253 67q136 0 250.5 -64.5t181.5 -176.5t67 -248v-33zM435.5 799.5
q-66.5 -29.5 -114 -83t-70.5 -122.5h649q-22 69 -69 122t-112.5 83t-140.5 30q-76 0 -142.5 -29.5zM254 1381l98 108l301 -326l-63 -71z" />
    <glyph glyph-name="eacute" unicode="&#xe9;" horiz-adv-x="1139" 
d="M1077 459h-844q5 -90 52.5 -164.5t125 -118t167.5 -43.5t167 43.5t125 118.5l142 -57q-63 -119 -178 -187.5t-254 -68.5q-140 0 -255.5 67t-182 181.5t-66.5 250.5q0 137 67 251.5t182 181.5t253 67q136 0 250.5 -64.5t181.5 -176.5t67 -248v-33zM435.5 799.5
q-66.5 -29.5 -114 -83t-70.5 -122.5h649q-22 69 -69 122t-112.5 83t-140.5 30q-76 0 -142.5 -29.5zM481 1163l303 326l96 -108l-333 -289z" />
    <glyph glyph-name="ecircumflex" unicode="&#xea;" horiz-adv-x="1139" 
d="M1077 459h-844q5 -90 52.5 -164.5t125 -118t167.5 -43.5t167 43.5t125 118.5l142 -57q-63 -119 -178 -187.5t-254 -68.5q-140 0 -255.5 67t-182 181.5t-66.5 250.5q0 137 67 251.5t182 181.5t253 67q136 0 250.5 -64.5t181.5 -176.5t67 -248v-33zM435.5 799.5
q-66.5 -29.5 -114 -83t-70.5 -122.5h649q-22 69 -69 122t-112.5 83t-140.5 30q-76 0 -142.5 -29.5zM299 1147l200 297h173l202 -297l-86 -51l-200 237l-205 -237z" />
    <glyph glyph-name="edieresis" unicode="&#xeb;" horiz-adv-x="1139" 
d="M1077 459h-844q5 -90 52.5 -164.5t125 -118t167.5 -43.5t167 43.5t125 118.5l142 -57q-63 -119 -178 -187.5t-254 -68.5q-140 0 -255.5 67t-182 181.5t-66.5 250.5q0 137 67 251.5t182 181.5t253 67q136 0 250.5 -64.5t181.5 -176.5t67 -248v-33zM435.5 799.5
q-66.5 -29.5 -114 -83t-70.5 -122.5h649q-22 69 -69 122t-112.5 83t-140.5 30q-76 0 -142.5 -29.5zM319 1184q-34 33 -34 79q0 49 34 82t81 33t81 -33t34 -82q0 -30 -16 -55.5t-42.5 -41t-56.5 -15.5q-47 0 -81 33zM696 1184q-34 33 -34 79q0 49 34 82t81 33q48 0 81 -33
t33 -82q0 -46 -33.5 -79t-80.5 -33t-81 33z" />
    <glyph glyph-name="igrave" unicode="&#xec;" horiz-adv-x="516" 
d="M174 963h168v-963h-168v963zM-76 1371l98 108l301 -326l-63 -71z" />
    <glyph glyph-name="iacute" unicode="&#xed;" horiz-adv-x="516" 
d="M174 963h168v-963h-168v963zM151 1153l303 326l96 -108l-333 -289z" />
    <glyph glyph-name="icircumflex" unicode="&#xee;" horiz-adv-x="516" 
d="M174 963h168v-963h-168v963zM-31 1137l200 297h173l202 -297l-86 -51l-200 237l-205 -237z" />
    <glyph glyph-name="idieresis" unicode="&#xef;" horiz-adv-x="516" 
d="M174 963h168v-963h-168v963zM-11 1174q-34 33 -34 79q0 49 34 82t81 33t81 -33t34 -82q0 -30 -16 -55.5t-42.5 -41t-56.5 -15.5q-47 0 -81 33zM366 1174q-34 33 -34 79q0 49 34 82t81 33q48 0 81 -33t33 -82q0 -46 -33.5 -79t-80.5 -33t-81 33z" />
    <glyph glyph-name="eth" unicode="&#xf0;" horiz-adv-x="1217" 
d="M1106 463q0 -143 -68.5 -252.5t-186 -169t-261.5 -59.5q-141 0 -260 67t-188.5 181.5t-69.5 250.5t69.5 251t188.5 182t260 67q85 0 163.5 -28t144.5 -79q-70 220 -223 343l-106 -136l-77 60l104 130q-130 74 -289 77l27 122q182 0 341 -99l89 112l74 -58l-86 -109
q108 -88 187.5 -217.5t123 -291.5t43.5 -342v-2zM765.5 174.5q80.5 47.5 127.5 129t47 177.5q0 97 -47 178.5t-127.5 129t-175.5 47.5q-98 0 -179 -47.5t-128 -129t-47 -178.5t47 -178t128 -128.5t179 -47.5q95 0 175.5 47.5z" />
    <glyph glyph-name="ntilde" unicode="&#xf1;" horiz-adv-x="1071" 
d="M750 934q80 -47 127 -127t47 -174v-633h-168v621q0 56 -27.5 103t-74.5 74t-103 27q-57 0 -104.5 -26t-75.5 -71t-29 -100v-628h-168v963h168v-69q47 41 107 64t126 23q95 0 175 -47zM576.5 1098.5q-44.5 31.5 -78.5 81.5q-20 30 -39 42.5t-43 12.5q-47 0 -72.5 -45
t-25.5 -114h-125q0 80 26.5 144t76 101t116.5 37q62 0 107 -30.5t81 -81.5q19 -27 37.5 -41.5t48.5 -14.5q47 0 72 40.5t25 119.5h123q0 -80 -25.5 -144.5t-75 -101.5t-119.5 -37q-65 0 -109.5 31.5z" />
    <glyph glyph-name="ograve" unicode="&#xf2;" horiz-adv-x="1155" 
d="M324.5 49q-115.5 67 -183 181.5t-67.5 250.5t67.5 251t183 182t253.5 67q137 0 252 -67t182 -182t67 -251t-67 -250.5t-182 -181.5t-252 -67q-138 0 -253.5 67zM745 190q76 45 121 122.5t45 168.5q0 92 -44.5 169t-121 122t-167.5 45q-93 0 -170 -45t-121.5 -122
t-44.5 -169t44.5 -169t121.5 -122t170 -45q91 0 167 45zM244 1371l98 108l301 -326l-63 -71z" />
    <glyph glyph-name="oacute" unicode="&#xf3;" horiz-adv-x="1155" 
d="M324.5 49q-115.5 67 -183 181.5t-67.5 250.5t67.5 251t183 182t253.5 67q137 0 252 -67t182 -182t67 -251t-67 -250.5t-182 -181.5t-252 -67q-138 0 -253.5 67zM745 190q76 45 121 122.5t45 168.5q0 92 -44.5 169t-121 122t-167.5 45q-93 0 -170 -45t-121.5 -122
t-44.5 -169t44.5 -169t121.5 -122t170 -45q91 0 167 45zM471 1153l303 326l96 -108l-333 -289z" />
    <glyph glyph-name="ocircumflex" unicode="&#xf4;" horiz-adv-x="1155" 
d="M324.5 49q-115.5 67 -183 181.5t-67.5 250.5t67.5 251t183 182t253.5 67q137 0 252 -67t182 -182t67 -251t-67 -250.5t-182 -181.5t-252 -67q-138 0 -253.5 67zM745 190q76 45 121 122.5t45 168.5q0 92 -44.5 169t-121 122t-167.5 45q-93 0 -170 -45t-121.5 -122
t-44.5 -169t44.5 -169t121.5 -122t170 -45q91 0 167 45zM289 1137l200 297h173l202 -297l-86 -51l-200 237l-205 -237z" />
    <glyph glyph-name="otilde" unicode="&#xf5;" horiz-adv-x="1155" 
d="M324.5 49q-115.5 67 -183 181.5t-67.5 250.5t67.5 251t183 182t253.5 67q137 0 252 -67t182 -182t67 -251t-67 -250.5t-182 -181.5t-252 -67q-138 0 -253.5 67zM745 190q76 45 121 122.5t45 168.5q0 92 -44.5 169t-121 122t-167.5 45q-93 0 -170 -45t-121.5 -122
t-44.5 -169t44.5 -169t121.5 -122t170 -45q91 0 167 45zM603.5 1098.5q-44.5 31.5 -78.5 81.5q-20 30 -39 42.5t-43 12.5q-47 0 -72.5 -45t-25.5 -114h-125q0 80 26.5 144t76 101t116.5 37q62 0 107 -30.5t81 -81.5q19 -27 37.5 -41.5t48.5 -14.5q47 0 72 40.5t25 119.5h123
q0 -80 -25.5 -144.5t-75 -101.5t-119.5 -37q-65 0 -109.5 31.5z" />
    <glyph glyph-name="odieresis" unicode="&#xf6;" horiz-adv-x="1155" 
d="M324.5 49q-115.5 67 -183 181.5t-67.5 250.5t67.5 251t183 182t253.5 67q137 0 252 -67t182 -182t67 -251t-67 -250.5t-182 -181.5t-252 -67q-138 0 -253.5 67zM745 190q76 45 121 122.5t45 168.5q0 92 -44.5 169t-121 122t-167.5 45q-93 0 -170 -45t-121.5 -122
t-44.5 -169t44.5 -169t121.5 -122t170 -45q91 0 167 45zM309 1174q-34 33 -34 79q0 49 34 82t81 33t81 -33t34 -82q0 -30 -16 -55.5t-42.5 -41t-56.5 -15.5q-47 0 -81 33zM686 1174q-34 33 -34 79q0 49 34 82t81 33q48 0 81 -33t33 -82q0 -46 -33.5 -79t-80.5 -33t-81 33z
" />
    <glyph glyph-name="divide" unicode="&#xf7;" horiz-adv-x="952" 
d="M414.5 929q-27.5 16 -44 43t-16.5 60q0 32 16.5 60t44 44.5t58.5 16.5q32 0 60.5 -16.5t45.5 -44.5t17 -60q0 -50 -36.5 -84.5t-86.5 -34.5q-31 0 -58.5 16zM115 756h723v-160h-723v160zM414.5 214.5q-27.5 15.5 -44 43t-16.5 61.5q0 31 16.5 58.5t44 44t58.5 16.5
q32 0 60.5 -16.5t45.5 -44t17 -58.5q0 -51 -36.5 -85.5t-86.5 -34.5q-31 0 -58.5 15.5z" />
    <glyph glyph-name="oslash" unicode="&#xf8;" horiz-adv-x="1155" 
d="M1033 691.5q46 -98.5 46 -210.5q0 -136 -67 -250.5t-182 -181.5t-252 -67q-130 0 -243 61l-105 -151l-88 53l109 156q-83 69 -130 168t-47 212q0 136 67.5 251t183 182t253.5 67q130 0 244 -62l104 149l87 -54l-107 -154q81 -70 127 -168.5zM269.5 346.5
q27.5 -63.5 76.5 -109.5l380 545q-70 35 -148 35q-93 0 -170 -45t-121.5 -122t-44.5 -169q0 -71 27.5 -134.5zM745 190q76 45 121 122.5t45 168.5q0 70 -27 132.5t-74 109.5l-380 -545q69 -33 148 -33q91 0 167 45z" />
    <glyph glyph-name="ugrave" unicode="&#xf9;" horiz-adv-x="1032" 
d="M321.5 26.5q-83.5 44.5 -129 127.5t-45.5 194v615h168v-596q0 -68 25.5 -118t71 -77t104.5 -27t104.5 27t71 77t25.5 118v596h168v-615q0 -111 -45.5 -194t-129 -127.5t-194.5 -44.5t-194.5 44.5zM182 1371l98 108l301 -326l-63 -71z" />
    <glyph glyph-name="uacute" unicode="&#xfa;" horiz-adv-x="1032" 
d="M321.5 26.5q-83.5 44.5 -129 127.5t-45.5 194v615h168v-596q0 -68 25.5 -118t71 -77t104.5 -27t104.5 27t71 77t25.5 118v596h168v-615q0 -111 -45.5 -194t-129 -127.5t-194.5 -44.5t-194.5 44.5zM409 1153l303 326l96 -108l-333 -289z" />
    <glyph glyph-name="ucircumflex" unicode="&#xfb;" horiz-adv-x="1032" 
d="M321.5 26.5q-83.5 44.5 -129 127.5t-45.5 194v615h168v-596q0 -68 25.5 -118t71 -77t104.5 -27t104.5 27t71 77t25.5 118v596h168v-615q0 -111 -45.5 -194t-129 -127.5t-194.5 -44.5t-194.5 44.5zM227 1137l200 297h173l202 -297l-86 -51l-200 237l-205 -237z" />
    <glyph glyph-name="udieresis" unicode="&#xfc;" horiz-adv-x="1032" 
d="M321.5 26.5q-83.5 44.5 -129 127.5t-45.5 194v615h168v-596q0 -68 25.5 -118t71 -77t104.5 -27t104.5 27t71 77t25.5 118v596h168v-615q0 -111 -45.5 -194t-129 -127.5t-194.5 -44.5t-194.5 44.5zM247 1174q-34 33 -34 79q0 49 34 82t81 33t81 -33t34 -82
q0 -30 -16 -55.5t-42.5 -41t-56.5 -15.5q-47 0 -81 33zM624 1174q-34 33 -34 79q0 49 34 82t81 33q48 0 81 -33t33 -82q0 -46 -33.5 -79t-80.5 -33t-81 33z" />
    <glyph glyph-name="yacute" unicode="&#xfd;" horiz-adv-x="985" 
d="M971 963l-584 -1455h-178l194 492l-391 963h187l300 -773l283 773h189zM374 1153l303 326l96 -108l-333 -289z" />
    <glyph glyph-name="thorn" unicode="&#xfe;" horiz-adv-x="1247" 
d="M928 913.5q111 -67.5 177 -182t66 -250.5q0 -135 -66 -250t-177 -182t-238 -67q-106 0 -194 37.5t-152 105.5v-606h-168v2017h168v-699q64 69 152 106.5t194 37.5q127 0 238 -67.5zM837.5 190q76.5 45 121.5 122.5t45 168.5q0 92 -45 169t-121.5 122t-167.5 45
q-92 0 -169 -45t-122 -122t-45 -169t45 -169t122 -122t169 -45q91 0 167.5 45z" />
    <glyph glyph-name="ydieresis" unicode="&#xff;" horiz-adv-x="985" 
d="M971 963l-584 -1455h-178l194 492l-391 963h187l300 -773l283 773h189zM212 1174q-34 33 -34 79q0 49 34 82t81 33t81 -33t34 -82q0 -30 -16 -55.5t-42.5 -41t-56.5 -15.5q-47 0 -81 33zM589 1174q-34 33 -34 79q0 49 34 82t81 33q48 0 81 -33t33 -82q0 -46 -33.5 -79
t-80.5 -33t-81 33z" />
    <glyph glyph-name="Amacron" unicode="&#x100;" horiz-adv-x="1360" 
d="M1041 246h-722l-96 -246h-194l651 1578l651 -1578h-194zM978 408l-297 760l-298 -760h595zM365 1860h635v-115h-635v115z" />
    <glyph glyph-name="amacron" unicode="&#x101;" horiz-adv-x="1253" 
d="M1081 963v-963h-168v137q-63 -74 -153.5 -114.5t-202.5 -40.5q-127 0 -238 67t-177 182t-66 250q0 136 66 250.5t177 182t238 67.5q112 0 202.5 -40.5t153.5 -114.5v137h168zM747.5 190q76.5 45 121 122t44.5 169t-44.5 169t-120.5 122t-168 45t-169 -45t-122 -122
t-45 -169t45 -169t122 -122t169 -45q91 0 167.5 45zM261 1287h635v-115h-635v115z" />
    <glyph glyph-name="Abreve" unicode="&#x102;" horiz-adv-x="1360" 
d="M1041 246h-722l-96 -246h-194l651 1578l651 -1578h-194zM978 408l-297 760l-298 -760h595zM506 1750.5q-77 38.5 -120.5 110t-43.5 167.5h136q0 -91 52.5 -150t149.5 -59q99 0 152 59t53 150h135q0 -96 -43.5 -167.5t-121 -110t-175.5 -38.5q-97 0 -174 38.5z" />
    <glyph glyph-name="abreve" unicode="&#x103;" horiz-adv-x="1253" 
d="M1081 963v-963h-168v137q-63 -74 -153.5 -114.5t-202.5 -40.5q-127 0 -238 67t-177 182t-66 250q0 136 66 250.5t177 182t238 67.5q112 0 202.5 -40.5t153.5 -114.5v137h168zM747.5 190q76.5 45 121 122t44.5 169t-44.5 169t-120.5 122t-168 45t-169 -45t-122 -122
t-45 -169t45 -169t122 -122t169 -45q91 0 167.5 45zM402 1177.5q-77 38.5 -120.5 110t-43.5 167.5h136q0 -91 52.5 -150t149.5 -59q99 0 152 59t53 150h135q0 -96 -43.5 -167.5t-121 -110t-175.5 -38.5q-97 0 -174 38.5z" />
    <glyph glyph-name="Aogonek" unicode="&#x104;" horiz-adv-x="1360" 
d="M1454 -426q-53 -53 -118.5 -79t-137.5 -26q-114 0 -182 56t-68 156q0 172 215 319h-26l-96 246h-722l-96 -246h-194l651 1578l651 -1578q-114 -48 -189 -122.5t-75 -158.5q0 -55 33 -82.5t86 -27.5q47 0 98 21.5t88 58.5zM978 408l-297 760l-298 -760h595z" />
    <glyph glyph-name="aogonek" unicode="&#x105;" horiz-adv-x="1253" 
d="M1204 -426q-53 -53 -118.5 -79t-137.5 -26q-114 0 -182 56t-68 156q0 172 215 319v137q-63 -74 -153.5 -114.5t-202.5 -40.5q-127 0 -238 67t-177 182t-66 250q0 136 66 250.5t177 182t238 67.5q112 0 202.5 -40.5t153.5 -114.5v137h168v-963q-114 -48 -189 -122.5
t-75 -158.5q0 -55 33 -82.5t86 -27.5q47 0 98 21.5t88 58.5zM747.5 190q76.5 45 121 122t44.5 169t-44.5 169t-120.5 122t-168 45t-169 -45t-122 -122t-45 -169t45 -169t122 -122t169 -45q91 0 167.5 45z" />
    <glyph glyph-name="Cacute" unicode="&#x106;" horiz-adv-x="1495" 
d="M488 85.5q-181 105.5 -286.5 286t-105.5 396.5t105.5 396.5t286.5 286t397 105.5q148 0 300.5 -63.5t256.5 -167.5l-125 -123q-83 85 -198 132.5t-234 47.5q-169 0 -310 -81.5t-223 -222.5t-82 -310t82 -310t223 -222.5t310 -81.5q119 0 234 47.5t198 132.5l125 -123
q-104 -104 -256.5 -167.5t-300.5 -63.5q-216 0 -397 105.5zM778 1726l303 326l96 -108l-333 -289z" />
    <glyph glyph-name="cacute" unicode="&#x107;" horiz-adv-x="1098" 
d="M324.5 48.5q-115.5 66.5 -183 181t-67.5 251.5t67.5 252t183 181.5t253.5 66.5q100 0 190 -36t158.5 -102t107.5 -153l-153 -69q-42 89 -121.5 142.5t-181.5 53.5q-95 0 -172 -44t-120.5 -121t-43.5 -171t43.5 -171t120.5 -121t172 -44q102 0 181.5 53.5t121.5 143.5
l153 -70q-39 -87 -107.5 -152.5t-158 -101.5t-190.5 -36q-138 0 -253.5 66.5zM471 1153l303 326l96 -108l-333 -289z" />
    <glyph glyph-name="Cdotaccent" unicode="&#x10a;" horiz-adv-x="1495" 
d="M488 85.5q-181 105.5 -286.5 286t-105.5 396.5t105.5 396.5t286.5 286t397 105.5q148 0 300.5 -63.5t256.5 -167.5l-125 -123q-83 85 -198 132.5t-234 47.5q-169 0 -310 -81.5t-223 -222.5t-82 -310t82 -310t223 -222.5t310 -81.5q119 0 234 47.5t198 132.5l125 -123
q-104 -104 -256.5 -167.5t-300.5 -63.5q-216 0 -397 105.5zM804 1739.5q-34 33.5 -34 79.5q0 49 34 82t81 33t81 -33t34 -82q0 -30 -16 -56t-42.5 -41.5t-56.5 -15.5q-47 0 -81 33.5z" />
    <glyph glyph-name="cdotaccent" unicode="&#x10b;" horiz-adv-x="1098" 
d="M324.5 48.5q-115.5 66.5 -183 181t-67.5 251.5t67.5 252t183 181.5t253.5 66.5q100 0 190 -36t158.5 -102t107.5 -153l-153 -69q-42 89 -121.5 142.5t-181.5 53.5q-95 0 -172 -44t-120.5 -121t-43.5 -171t43.5 -171t120.5 -121t172 -44q102 0 181.5 53.5t121.5 143.5
l153 -70q-39 -87 -107.5 -152.5t-158 -101.5t-190.5 -36q-138 0 -253.5 66.5zM497 1166.5q-34 33.5 -34 79.5q0 49 34 82t81 33t81 -33t34 -82q0 -30 -16 -56t-42.5 -41.5t-56.5 -15.5q-47 0 -81 33.5z" />
    <glyph glyph-name="Ccaron" unicode="&#x10c;" horiz-adv-x="1495" 
d="M488 85.5q-181 105.5 -286.5 286t-105.5 396.5t105.5 396.5t286.5 286t397 105.5q148 0 300.5 -63.5t256.5 -167.5l-125 -123q-83 85 -198 132.5t-234 47.5q-169 0 -310 -81.5t-223 -222.5t-82 -310t82 -310t223 -222.5t310 -81.5q119 0 234 47.5t198 132.5l125 -123
q-104 -104 -256.5 -167.5t-300.5 -63.5q-216 0 -397 105.5zM596 1995l88 53l201 -240l198 240l88 -53l-202 -297h-173z" />
    <glyph glyph-name="ccaron" unicode="&#x10d;" horiz-adv-x="1098" 
d="M324.5 48.5q-115.5 66.5 -183 181t-67.5 251.5t67.5 252t183 181.5t253.5 66.5q100 0 190 -36t158.5 -102t107.5 -153l-153 -69q-42 89 -121.5 142.5t-181.5 53.5q-95 0 -172 -44t-120.5 -121t-43.5 -171t43.5 -171t120.5 -121t172 -44q102 0 181.5 53.5t121.5 143.5
l153 -70q-39 -87 -107.5 -152.5t-158 -101.5t-190.5 -36q-138 0 -253.5 66.5zM289 1422l88 53l201 -240l198 240l88 -53l-202 -297h-173z" />
    <glyph glyph-name="Dcaron" unicode="&#x10e;" horiz-adv-x="1501" 
d="M217 1536h424q209 0 385 -103.5t279.5 -279.5t103.5 -385t-103.5 -385t-279.5 -279.5t-385 -103.5h-424v1536zM639 174q165 0 301.5 77t215.5 213t79 304t-79 304t-215.5 213t-301.5 77h-250v-1188h250zM350 1995l88 53l201 -240l198 240l88 -53l-202 -297h-173z" />
    <glyph glyph-name="dcaron" unicode="&#x10f;" horiz-adv-x="1255" 
d="M1081 1536v-1536h-168v137q-63 -74 -153.5 -114.5t-202.5 -40.5q-127 0 -238 67t-177 182t-66 250q0 136 66 250.5t177 182t238 67.5q112 0 202.5 -40.5t153.5 -114.5v710h168zM747.5 190q76.5 45 121 122t44.5 169t-44.5 169t-120.5 122t-168 45t-169 -45t-122 -122
t-45 -169t45 -169t122 -122t169 -45q91 0 167.5 45zM1465 1408l-3 -7l-146 -430h-125l110 370q-27 15 -43.5 42t-16.5 59q0 30 15.5 56.5t42 42t56.5 15.5t56.5 -15.5t42.5 -42t16 -56.5q0 -18 -4 -31z" />
    <glyph glyph-name="Dcroat" unicode="&#x110;" horiz-adv-x="1501" 
d="M1026 1432.5q176 -103.5 279.5 -279.5t103.5 -385t-103.5 -385t-279.5 -279.5t-385 -103.5h-424v698h-158v119h158v719h424q209 0 385 -103.5zM940.5 251q136.5 77 215.5 213t79 304t-79 304t-215.5 213t-301.5 77h-250v-545h272v-119h-272v-524h250q165 0 301.5 77z" />
    <glyph glyph-name="dcroat" unicode="&#x111;" horiz-adv-x="1255" 
d="M1219 1185h-138v-1185h-168v137q-63 -74 -153.5 -114.5t-202.5 -40.5q-127 0 -238 67t-177 182t-66 250q0 136 66 250.5t177 182t238 67.5q112 0 202.5 -40.5t153.5 -114.5v359h-296v119h296v232h168v-232h138v-119zM747.5 190q76.5 45 121 122t44.5 169t-44.5 169
t-120.5 122t-168 45t-169 -45t-122 -122t-45 -169t45 -169t122 -122t169 -45q91 0 167.5 45z" />
    <glyph glyph-name="Emacron" unicode="&#x112;" horiz-adv-x="1165" 
d="M391 1368v-516h584v-168h-584v-516h670v-168h-844v1536h844v-168h-670zM322 1860h635v-115h-635v115z" />
    <glyph glyph-name="emacron" unicode="&#x113;" horiz-adv-x="1139" 
d="M1077 459h-844q5 -90 52.5 -164.5t125 -118t167.5 -43.5t167 43.5t125 118.5l142 -57q-63 -119 -178 -187.5t-254 -68.5q-140 0 -255.5 67t-182 181.5t-66.5 250.5q0 137 67 251.5t182 181.5t253 67q136 0 250.5 -64.5t181.5 -176.5t67 -248v-33zM435.5 799.5
q-66.5 -29.5 -114 -83t-70.5 -122.5h649q-22 69 -69 122t-112.5 83t-140.5 30q-76 0 -142.5 -29.5zM271 1297h635v-115h-635v115z" />
    <glyph glyph-name="Edotaccent" unicode="&#x116;" horiz-adv-x="1165" 
d="M391 1368v-516h584v-168h-584v-516h670v-168h-844v1536h844v-168h-670zM558 1739.5q-34 33.5 -34 79.5q0 49 34 82t81 33t81 -33t34 -82q0 -30 -16 -56t-42.5 -41.5t-56.5 -15.5q-47 0 -81 33.5z" />
    <glyph glyph-name="edotaccent" unicode="&#x117;" horiz-adv-x="1139" 
d="M1077 459h-844q5 -90 52.5 -164.5t125 -118t167.5 -43.5t167 43.5t125 118.5l142 -57q-63 -119 -178 -187.5t-254 -68.5q-140 0 -255.5 67t-182 181.5t-66.5 250.5q0 137 67 251.5t182 181.5t253 67q136 0 250.5 -64.5t181.5 -176.5t67 -248v-33zM435.5 799.5
q-66.5 -29.5 -114 -83t-70.5 -122.5h649q-22 69 -69 122t-112.5 83t-140.5 30q-76 0 -142.5 -29.5zM507 1176.5q-34 33.5 -34 79.5q0 49 34 82t81 33t81 -33t34 -82q0 -30 -16 -56t-42.5 -41.5t-56.5 -15.5q-47 0 -81 33.5z" />
    <glyph glyph-name="Eogonek" unicode="&#x118;" horiz-adv-x="1165" 
d="M1184 -426q-53 -53 -118.5 -79t-137.5 -26q-114 0 -182 56t-68 156q0 172 215 319h-676v1536h844v-168h-670v-516h584v-168h-584v-516h670v-168q-114 -48 -189 -122.5t-75 -158.5q0 -55 33 -82.5t86 -27.5q47 0 98 21.5t88 58.5z" />
    <glyph glyph-name="eogonek" unicode="&#x119;" horiz-adv-x="1139" 
d="M1077 459h-844q5 -90 52.5 -164.5t125 -118t167.5 -43.5t167 43.5t125 118.5l142 -57q-44 -83 -115 -142.5t-159 -88.5q-79 -48 -126 -108.5t-47 -126.5q0 -55 33 -82.5t86 -27.5q47 0 98 21.5t88 58.5l82 -115q-53 -53 -118.5 -79t-137.5 -26q-114 0 -182 56t-68 156
q0 131 125 248q-138 2 -251 69.5t-178.5 181t-65.5 248.5q0 137 67 251.5t182 181.5t253 67q136 0 250.5 -64.5t181.5 -176.5t67 -248v-33zM435.5 799.5q-66.5 -29.5 -114 -83t-70.5 -122.5h649q-22 69 -69 122t-112.5 83t-140.5 30q-76 0 -142.5 -29.5z" />
    <glyph glyph-name="Ecaron" unicode="&#x11a;" horiz-adv-x="1165" 
d="M391 1368v-516h584v-168h-584v-516h670v-168h-844v1536h844v-168h-670zM350 1995l88 53l201 -240l198 240l88 -53l-202 -297h-173z" />
    <glyph glyph-name="ecaron" unicode="&#x11b;" horiz-adv-x="1139" 
d="M1077 459h-844q5 -90 52.5 -164.5t125 -118t167.5 -43.5t167 43.5t125 118.5l142 -57q-63 -119 -178 -187.5t-254 -68.5q-140 0 -255.5 67t-182 181.5t-66.5 250.5q0 137 67 251.5t182 181.5t253 67q136 0 250.5 -64.5t181.5 -176.5t67 -248v-33zM435.5 799.5
q-66.5 -29.5 -114 -83t-70.5 -122.5h649q-22 69 -69 122t-112.5 83t-140.5 30q-76 0 -142.5 -29.5zM299 1432l88 53l201 -240l198 240l88 -53l-202 -297h-173z" />
    <glyph glyph-name="Gbreve" unicode="&#x11e;" horiz-adv-x="1630" 
d="M1483 809v-809h-154l-10 113q-98 -63 -211.5 -98t-222.5 -35q-216 0 -397 105.5t-286.5 286t-105.5 396.5t105.5 396.5t286.5 286t397 105.5q148 0 300.5 -63.5t256.5 -167.5l-125 -123q-83 85 -198 132.5t-234 47.5q-169 0 -310 -81.5t-223 -222.5t-82 -310t82 -310
t223 -222.5t310 -81.5q116 0 228.5 45.5t195.5 126.5v319h-439v164h613zM742 1750.5q-77 38.5 -120.5 110t-43.5 167.5h136q0 -91 52.5 -150t149.5 -59q99 0 152 59t53 150h135q0 -96 -43.5 -167.5t-121 -110t-175.5 -38.5q-97 0 -174 38.5z" />
    <glyph glyph-name="gbreve" unicode="&#x11f;" horiz-adv-x="1253" 
d="M1079 963v-963q0 -137 -67.5 -252t-183.5 -181.5t-253 -66.5q-96 0 -184 35t-157 97.5t-111 144.5l135 94q42 -93 127 -150t190 -57q91 0 167.5 45t121.5 122t45 169v125q-59 -69 -143.5 -106t-192.5 -37q-136 0 -250.5 67t-181.5 181.5t-67 250.5q0 137 67 252
t181.5 181.5t250.5 66.5q108 0 192.5 -37t143.5 -106v125h170zM744.5 190.5q76.5 45.5 121.5 122.5t45 168q0 92 -44.5 169t-121 122t-167.5 45q-93 0 -170 -45t-121.5 -122t-44.5 -169q0 -91 44.5 -168t121.5 -122.5t170 -45.5q90 0 166.5 45.5zM402 1177.5
q-77 38.5 -120.5 110t-43.5 167.5h136q0 -91 52.5 -150t149.5 -59q99 0 152 59t53 150h135q0 -96 -43.5 -167.5t-121 -110t-175.5 -38.5q-97 0 -174 38.5z" />
    <glyph glyph-name="Gdotaccent" unicode="&#x120;" horiz-adv-x="1630" 
d="M1483 809v-809h-154l-10 113q-98 -63 -211.5 -98t-222.5 -35q-216 0 -397 105.5t-286.5 286t-105.5 396.5t105.5 396.5t286.5 286t397 105.5q148 0 300.5 -63.5t256.5 -167.5l-125 -123q-83 85 -198 132.5t-234 47.5q-169 0 -310 -81.5t-223 -222.5t-82 -310t82 -310
t223 -222.5t310 -81.5q116 0 228.5 45.5t195.5 126.5v319h-439v164h613zM837 1739.5q-34 33.5 -34 79.5q0 49 34 82t81 33t81 -33t34 -82q0 -30 -16 -56t-42.5 -41.5t-56.5 -15.5q-47 0 -81 33.5z" />
    <glyph glyph-name="gdotaccent" unicode="&#x121;" horiz-adv-x="1253" 
d="M1079 963v-963q0 -137 -67.5 -252t-183.5 -181.5t-253 -66.5q-96 0 -184 35t-157 97.5t-111 144.5l135 94q42 -93 127 -150t190 -57q91 0 167.5 45t121.5 122t45 169v125q-59 -69 -143.5 -106t-192.5 -37q-136 0 -250.5 67t-181.5 181.5t-67 250.5q0 137 67 252
t181.5 181.5t250.5 66.5q108 0 192.5 -37t143.5 -106v125h170zM744.5 190.5q76.5 45.5 121.5 122.5t45 168q0 92 -44.5 169t-121 122t-167.5 45q-93 0 -170 -45t-121.5 -122t-44.5 -169q0 -91 44.5 -168t121.5 -122.5t170 -45.5q90 0 166.5 45.5zM497 1166.5
q-34 33.5 -34 79.5q0 49 34 82t81 33t81 -33t34 -82q0 -30 -16 -56t-42.5 -41.5t-56.5 -15.5q-47 0 -81 33.5z" />
    <glyph glyph-name="Gcommaaccent" unicode="&#x122;" horiz-adv-x="1630" 
d="M1483 809v-809h-154l-10 113q-98 -63 -211.5 -98t-222.5 -35q-216 0 -397 105.5t-286.5 286t-105.5 396.5t105.5 396.5t286.5 286t397 105.5q148 0 300.5 -63.5t256.5 -167.5l-125 -123q-83 85 -198 132.5t-234 47.5q-169 0 -310 -81.5t-223 -222.5t-82 -310t82 -310
t223 -222.5t310 -81.5q116 0 228.5 45.5t195.5 126.5v319h-439v164h613zM696 -524l188 440l144 -59l-240 -418z" />
    <glyph glyph-name="gcommaaccent" unicode="&#x123;" horiz-adv-x="1253" 
d="M1079 963v-963q0 -137 -67.5 -252t-183.5 -181.5t-253 -66.5q-96 0 -184 35t-157 97.5t-111 144.5l135 94q42 -93 127 -150t190 -57q91 0 167.5 45t121.5 122t45 169v125q-59 -69 -143.5 -106t-192.5 -37q-136 0 -250.5 67t-181.5 181.5t-67 250.5q0 137 67 252
t181.5 181.5t250.5 66.5q108 0 192.5 -37t143.5 -106v125h170zM744.5 190.5q76.5 45.5 121.5 122.5t45 168q0 92 -44.5 169t-121 122t-167.5 45q-93 0 -170 -45t-121.5 -122t-44.5 -169q0 -91 44.5 -168t121.5 -122.5t170 -45.5q90 0 166.5 45.5zM670.5 1266
q22.5 -30 22.5 -68q0 -30 -16 -56.5t-42.5 -42.5t-56.5 -16q-50 0 -81.5 33t-31.5 84q0 21 7 41l145 428h104l-108 -363q35 -10 57.5 -40z" />
    <glyph glyph-name="Hbar" unicode="&#x126;" horiz-adv-x="1616" 
d="M1538 1139h-139v-1139h-174v682h-834v-682h-174v1139h-143v119h143v278h174v-278h834v278h174v-278h139v-119zM1225 1139h-834v-283h834v283z" />
    <glyph glyph-name="hbar" unicode="&#x127;" horiz-adv-x="1071" 
d="M750 934q80 -47 127 -127t47 -174v-633h-168v621q0 56 -27.5 103t-74.5 74t-103 27q-57 0 -104.5 -26t-75.5 -71t-29 -100v-628h-168v1187h-141v119h141v230h168v-230h293v-119h-293v-294q47 42 107 65t126 23q95 0 175 -47z" />
    <glyph glyph-name="Itilde" unicode="&#x128;" horiz-adv-x="608" 
d="M217 1536h174v-1536h-174v1536zM328.5 1671.5q-44.5 31.5 -78.5 81.5q-20 30 -39 42.5t-43 12.5q-47 0 -72.5 -45t-25.5 -114h-125q0 80 26.5 144t76 101t116.5 37q62 0 107 -30.5t81 -81.5q19 -27 37.5 -41.5t48.5 -14.5q47 0 72 40.5t25 119.5h123q0 -80 -25.5 -144.5
t-75 -101.5t-119.5 -37q-65 0 -109.5 31.5z" />
    <glyph glyph-name="itilde" unicode="&#x129;" horiz-adv-x="516" 
d="M174 963h168v-963h-168v963zM283.5 1098.5q-44.5 31.5 -78.5 81.5q-20 30 -39 42.5t-43 12.5q-47 0 -72.5 -45t-25.5 -114h-125q0 80 26.5 144t76 101t116.5 37q62 0 107 -30.5t81 -81.5q19 -27 37.5 -41.5t48.5 -14.5q47 0 72 40.5t25 119.5h123q0 -80 -25.5 -144.5
t-75 -101.5t-119.5 -37q-65 0 -109.5 31.5z" />
    <glyph glyph-name="Imacron" unicode="&#x12a;" horiz-adv-x="608" 
d="M217 1536h174v-1536h-174v1536zM-14 1860h635v-115h-635v115z" />
    <glyph glyph-name="imacron" unicode="&#x12b;" horiz-adv-x="516" 
d="M174 963h168v-963h-168v963zM-59 1287h635v-115h-635v115z" />
    <glyph glyph-name="Iogonek" unicode="&#x12e;" horiz-adv-x="608" 
d="M514 -426q-53 -53 -118.5 -79t-137.5 -26q-114 0 -182 56t-68 156q0 172 215 319h-6v1536h174v-1536q-114 -48 -189 -122.5t-75 -158.5q0 -55 33 -82.5t86 -27.5q47 0 98 21.5t88 58.5z" />
    <glyph glyph-name="iogonek" unicode="&#x12f;" horiz-adv-x="516" 
d="M177 1166.5q-34 33.5 -34 79.5q0 49 34 82t81 33t81 -33t34 -82q0 -30 -16 -56t-42.5 -41.5t-56.5 -15.5q-47 0 -81 33.5zM465 -426q-53 -53 -118.5 -79t-137.5 -26q-114 0 -182 56t-68 156q0 172 215 319v963h168v-963q-114 -48 -189 -122.5t-75 -158.5q0 -55 33 -82.5
t86 -27.5q47 0 98 21.5t88 58.5z" />
    <glyph glyph-name="Idotaccent" unicode="&#x130;" horiz-adv-x="608" 
d="M217 1536h174v-1536h-174v1536zM222 1739.5q-34 33.5 -34 79.5q0 49 34 82t81 33t81 -33t34 -82q0 -30 -16 -56t-42.5 -41.5t-56.5 -15.5q-47 0 -81 33.5z" />
    <glyph glyph-name="dotlessi" unicode="&#x131;" horiz-adv-x="516" 
d="M174 963h168v-963h-168v963z" />
    <glyph glyph-name="Kcommaaccent" unicode="&#x136;" horiz-adv-x="1296" 
d="M1047 0l-656 761v-761h-174v1536h174v-733l631 733h221l-649 -754l674 -782h-221zM428 -524l188 440l144 -59l-240 -418z" />
    <glyph glyph-name="kcommaaccent" unicode="&#x137;" horiz-adv-x="1016" 
d="M795 0l-453 502v-502h-168v1536h168v-990l373 417h227l-407 -433l487 -530h-227zM311 -524l188 440l144 -59l-240 -418z" />
    <glyph glyph-name="Lacute" unicode="&#x139;" horiz-adv-x="987" 
d="M958 174v-174h-741v1536h174v-1362h567zM196 1726l303 326l96 -108l-333 -289z" />
    <glyph glyph-name="lacute" unicode="&#x13a;" horiz-adv-x="516" 
d="M174 1536h168v-1536h-168v1536zM151 1726l303 326l96 -108l-333 -289z" />
    <glyph glyph-name="Lcommaaccent" unicode="&#x13b;" horiz-adv-x="987" 
d="M958 174v-174h-741v1536h174v-1362h567zM379 -524l188 440l144 -59l-240 -418z" />
    <glyph glyph-name="lcommaaccent" unicode="&#x13c;" horiz-adv-x="516" 
d="M174 1536h168v-1536h-168v1536zM49 -524l188 440l144 -59l-240 -418z" />
    <glyph glyph-name="Lcaron" unicode="&#x13d;" horiz-adv-x="987" 
d="M958 174v-174h-741v1536h174v-1362h567zM964 1408l-3 -7l-146 -430h-125l110 370q-27 15 -43.5 42t-16.5 59q0 30 15.5 56.5t42 42t56.5 15.5t56.5 -15.5t42.5 -42t16 -56.5q0 -18 -4 -31z" />
    <glyph glyph-name="lcaron" unicode="&#x13e;" horiz-adv-x="516" 
d="M174 1536h168v-1536h-168v1536zM730 1408l-3 -7l-146 -430h-125l110 370q-27 15 -43.5 42t-16.5 59q0 30 15.5 56.5t42 42t56.5 15.5t56.5 -15.5t42.5 -42t16 -56.5q0 -18 -4 -31z" />
    <glyph glyph-name="Ldot" unicode="&#x13f;" horiz-adv-x="1010" 
d="M958 174v-174h-741v1536h174v-1362h567zM721.5 861.5q-27.5 26.5 -27.5 65.5q0 37 27.5 64.5t64.5 27.5t65.5 -27.5t28.5 -64.5q0 -39 -28 -65.5t-66 -26.5q-37 0 -64.5 26.5z" />
    <glyph glyph-name="ldot" unicode="&#x140;" horiz-adv-x="631" 
d="M174 1536h168v-1536h-168v1536zM467.5 753.5q-27.5 26.5 -27.5 65.5q0 37 27.5 64.5t64.5 27.5t65.5 -27.5t28.5 -64.5q0 -39 -28 -65.5t-66 -26.5q-37 0 -64.5 26.5z" />
    <glyph glyph-name="Lslash" unicode="&#x141;" horiz-adv-x="987" 
d="M958 174v-174h-741v573l-108 -80v154l108 80v809h174v-679l298 222v-154l-298 -222v-529h567z" />
    <glyph glyph-name="lslash" unicode="&#x142;" horiz-adv-x="590" 
d="M506 780l-121 -90v-690h-168v566l-149 -111v153l149 111v817h168v-692l121 90v-154z" />
    <glyph glyph-name="Nacute" unicode="&#x143;" horiz-adv-x="1575" 
d="M1358 -67l-967 1193v-1126h-174v1603l969 -1192v1125h172v-1603zM679 1726l303 326l96 -108l-333 -289z" />
    <glyph glyph-name="nacute" unicode="&#x144;" horiz-adv-x="1071" 
d="M750 934q80 -47 127 -127t47 -174v-633h-168v621q0 56 -27.5 103t-74.5 74t-103 27q-57 0 -104.5 -26t-75.5 -71t-29 -100v-628h-168v963h168v-69q47 41 107 64t126 23q95 0 175 -47zM444 1153l303 326l96 -108l-333 -289z" />
    <glyph glyph-name="Ncommaaccent" unicode="&#x145;" horiz-adv-x="1575" 
d="M1358 -67l-967 1193v-1126h-174v1603l969 -1192v1125h172v-1603zM582 -524l188 440l144 -59l-240 -418z" />
    <glyph glyph-name="ncommaaccent" unicode="&#x146;" horiz-adv-x="1071" 
d="M750 934q80 -47 127 -127t47 -174v-633h-168v621q0 56 -27.5 103t-74.5 74t-103 27q-57 0 -104.5 -26t-75.5 -71t-29 -100v-628h-168v963h168v-69q47 41 107 64t126 23q95 0 175 -47zM344 -524l188 440l144 -59l-240 -418z" />
    <glyph glyph-name="Ncaron" unicode="&#x147;" horiz-adv-x="1575" 
d="M1358 -67l-967 1193v-1126h-174v1603l969 -1192v1125h172v-1603zM497 1995l88 53l201 -240l198 240l88 -53l-202 -297h-173z" />
    <glyph glyph-name="ncaron" unicode="&#x148;" horiz-adv-x="1071" 
d="M750 934q80 -47 127 -127t47 -174v-633h-168v621q0 56 -27.5 103t-74.5 74t-103 27q-57 0 -104.5 -26t-75.5 -71t-29 -100v-628h-168v963h168v-69q47 41 107 64t126 23q95 0 175 -47zM262 1422l88 53l201 -240l198 240l88 -53l-202 -297h-173z" />
    <glyph glyph-name="Eng" unicode="&#x14a;" horiz-adv-x="1710" 
d="M1491 1536v-1604q0 -178 -73 -276t-259 -98h-45v123q81 -2 126 17t66 71t21 153v78l-936 1247v-1247h-174v1536h164l938 -1246v1246h172z" />
    <glyph glyph-name="eng" unicode="&#x14b;" horiz-adv-x="1069" 
d="M582 -299q64 -1 99 17t54 82t19 200v621q0 56 -27.5 103t-74.5 74t-103 27q-58 0 -105 -26t-75 -71t-29 -99v-629h-168v963h168v-70q46 42 106 65t127 23q95 0 175 -47t127 -127t47 -174v-633q0 -158 -34.5 -257.5t-109 -148t-196.5 -47.5v154z" />
    <glyph glyph-name="Omacron" unicode="&#x14c;" horiz-adv-x="1765" 
d="M487 86q-181 106 -287 286.5t-106 395.5t106 395.5t287 286.5t396 106q214 0 395 -106t287 -287t106 -395t-106 -395t-287 -287t-395 -106q-215 0 -396 106zM1192 236q141 82 223 223t82 309t-82 309t-223 223t-309 82q-167 0 -308.5 -82t-224 -223t-82.5 -309t82.5 -309
t224 -223t308.5 -82q168 0 309 82zM566 1860h635v-115h-635v115z" />
    <glyph glyph-name="omacron" unicode="&#x14d;" horiz-adv-x="1155" 
d="M324.5 49q-115.5 67 -183 181.5t-67.5 250.5t67.5 251t183 182t253.5 67q137 0 252 -67t182 -182t67 -251t-67 -250.5t-182 -181.5t-252 -67q-138 0 -253.5 67zM745 190q76 45 121 122.5t45 168.5q0 92 -44.5 169t-121 122t-167.5 45q-93 0 -170 -45t-121.5 -122
t-44.5 -169t44.5 -169t121.5 -122t170 -45q91 0 167 45zM261 1287h635v-115h-635v115z" />
    <glyph glyph-name="Ohungarumlaut" unicode="&#x150;" horiz-adv-x="1765" 
d="M487 86q-181 106 -287 286.5t-106 395.5t106 395.5t287 286.5t396 106q214 0 395 -106t287 -287t106 -395t-106 -395t-287 -287t-395 -106q-215 0 -396 106zM1192 236q141 82 223 223t82 309t-82 309t-223 223t-309 82q-167 0 -308.5 -82t-224 -223t-82.5 -309t82.5 -309
t224 -223t308.5 -82q168 0 309 82zM612 1798l328 283l86 -94l-330 -283zM983 1798l328 283l86 -94l-330 -283z" />
    <glyph glyph-name="ohungarumlaut" unicode="&#x151;" horiz-adv-x="1155" 
d="M324.5 49q-115.5 67 -183 181.5t-67.5 250.5t67.5 251t183 182t253.5 67q137 0 252 -67t182 -182t67 -251t-67 -250.5t-182 -181.5t-252 -67q-138 0 -253.5 67zM745 190q76 45 121 122.5t45 168.5q0 92 -44.5 169t-121 122t-167.5 45q-93 0 -170 -45t-121.5 -122
t-44.5 -169t44.5 -169t121.5 -122t170 -45q91 0 167 45zM307 1225l328 283l86 -94l-330 -283zM678 1225l328 283l86 -94l-330 -283z" />
    <glyph glyph-name="OE" unicode="&#x152;" horiz-adv-x="2449" 
d="M1671 1368v-516h588v-168h-588v-516h674v-168h-817v315q-108 -155 -278 -245t-367 -90q-215 0 -396 106t-287 286.5t-106 395.5t106 395.5t287 286.5t396 106q197 0 367 -90t278 -245v315h817v-168h-674zM1195 230.5q142 83.5 225 226t83 311.5t-83 311.5t-225 226
t-310 83.5q-170 0 -313 -83.5t-226.5 -226t-83.5 -311.5t83.5 -311.5t226.5 -226t313 -83.5q168 0 310 83.5z" />
    <glyph glyph-name="oe" unicode="&#x153;" horiz-adv-x="1991" 
d="M1927 459h-842q5 -90 52.5 -164.5t125 -118t167.5 -43.5t167 43.5t125 118.5l142 -57q-63 -119 -178 -187.5t-254 -68.5q-136 0 -249 63t-180 171q-67 -108 -179.5 -171t-245.5 -63q-138 0 -253.5 67t-183 181.5t-67.5 250.5t67.5 251t183 182t253.5 67
q133 0 245.5 -63.5t179.5 -171.5q67 108 180 171.5t247 63.5q136 0 248.5 -64.5t179.5 -176.5t71 -248zM1287.5 799.5q-66.5 -29.5 -114 -83t-70.5 -122.5h649q-22 69 -69 122t-112.5 83t-140.5 30q-76 0 -142.5 -29.5zM749.5 183.5q78.5 46.5 124.5 125.5t46 172
q0 94 -46 173t-124.5 125t-171.5 46q-95 0 -174.5 -46t-126 -125t-46.5 -173t46.5 -173t126 -125t174.5 -46q93 0 171.5 46.5z" />
    <glyph glyph-name="Racute" unicode="&#x154;" horiz-adv-x="1405" 
d="M767 680h-376v-680h-174v1536h637q118 0 216.5 -58t156 -156.5t57.5 -215.5q0 -101 -42.5 -187.5t-117.5 -146t-170 -81.5l367 -691h-188zM391 846h447q77 0 138.5 30.5t97.5 88.5t36 139q0 78 -36 138t-98 93t-138 33h-447v-522zM538 1726l303 326l96 -108l-333 -289z
" />
    <glyph glyph-name="racute" unicode="&#x155;" horiz-adv-x="721" 
d="M667 971q36 -10 62 -27l-57 -143q-40 16 -78 16q-71 0 -128.5 -40t-90.5 -110t-33 -157v-510h-168v963h168v-150q40 80 102.5 124t145.5 44q41 0 77 -10zM323 1153l303 326l96 -108l-333 -289z" />
    <glyph glyph-name="Rcommaaccent" unicode="&#x156;" horiz-adv-x="1405" 
d="M767 680h-376v-680h-174v1536h637q118 0 216.5 -58t156 -156.5t57.5 -215.5q0 -101 -42.5 -187.5t-117.5 -146t-170 -81.5l367 -691h-188zM391 846h447q77 0 138.5 30.5t97.5 88.5t36 139q0 78 -36 138t-98 93t-138 33h-447v-522zM436 -524l188 440l144 -59l-240 -418z
" />
    <glyph glyph-name="rcommaaccent" unicode="&#x157;" horiz-adv-x="721" 
d="M667 971q36 -10 62 -27l-57 -143q-40 16 -78 16q-71 0 -128.5 -40t-90.5 -110t-33 -157v-510h-168v963h168v-150q40 80 102.5 124t145.5 44q41 0 77 -10zM49 -524l188 440l144 -59l-240 -418z" />
    <glyph glyph-name="Rcaron" unicode="&#x158;" horiz-adv-x="1405" 
d="M767 680h-376v-680h-174v1536h637q118 0 216.5 -58t156 -156.5t57.5 -215.5q0 -101 -42.5 -187.5t-117.5 -146t-170 -81.5l367 -691h-188zM391 846h447q77 0 138.5 30.5t97.5 88.5t36 139q0 78 -36 138t-98 93t-138 33h-447v-522zM356 1995l88 53l201 -240l198 240
l88 -53l-202 -297h-173z" />
    <glyph glyph-name="rcaron" unicode="&#x159;" horiz-adv-x="721" 
d="M667 971q36 -10 62 -27l-57 -143q-40 16 -78 16q-71 0 -128.5 -40t-90.5 -110t-33 -157v-510h-168v963h168v-150q40 80 102.5 124t145.5 44q41 0 77 -10zM141 1422l88 53l201 -240l198 240l88 -53l-202 -297h-173z" />
    <glyph glyph-name="Sacute" unicode="&#x15a;" horiz-adv-x="1135" 
d="M286 47q-137 67 -223 174l125 125q149 -211 381 -211q89 0 159.5 32.5t110.5 92.5t40 139q0 81 -46 138t-114.5 94t-186.5 86q-128 54 -208.5 102t-135.5 129.5t-55 204.5q0 121 57 212.5t155 141t218 49.5q140 0 251 -56.5t192 -151.5l-105 -109q-87 92 -163.5 127
t-170.5 35q-73 0 -132 -28t-93.5 -81t-34.5 -127q0 -77 40 -131t102.5 -89t160.5 -75q25 -10 31 -13q133 -53 215.5 -100t139.5 -132.5t57 -218.5q0 -135 -64 -231t-171.5 -145.5t-237.5 -49.5q-157 0 -294 67zM464 1726l303 326l96 -108l-333 -289z" />
    <glyph glyph-name="sacute" unicode="&#x15b;" horiz-adv-x="874" 
d="M234 16q-87 34 -164 90l94 138q52 -48 124.5 -79.5t151.5 -31.5q85 0 136 38t51 103q0 46 -27.5 74.5t-66 43t-115.5 36.5q-101 28 -160.5 52.5t-103 77t-43.5 140.5q0 89 46 153t125 97t175 33q83 0 163.5 -25t143.5 -69l-96 -129q-107 76 -226 76q-80 0 -127 -32
t-47 -87q0 -41 27.5 -67t69 -41t115.5 -35q21 -5 28 -7q85 -23 143.5 -51.5t97.5 -83.5t39 -143q0 -95 -44 -164t-124.5 -105t-187.5 -36q-111 0 -198 34zM333 1153l303 326l96 -108l-333 -289z" />
    <glyph glyph-name="Scedilla" unicode="&#x15e;" horiz-adv-x="1135" 
d="M991 178.5q-62 -95.5 -166.5 -145.5t-231.5 -53l-55 -115q28 6 54 6q56 0 101.5 -24t71 -67.5t25.5 -98.5q0 -59 -28 -107.5t-76 -77t-107 -28.5q-71 0 -139.5 39t-97.5 96l92 37q22 -30 64 -51t81 -21q47 0 79 32.5t32 80.5q0 49 -31 77t-83 28q-41 0 -85 -17l-80 51
l84 165q-132 17 -245 81t-187 155l125 125q149 -211 381 -211q89 0 159.5 32.5t110.5 92.5t40 139q0 81 -46 138t-114.5 94t-186.5 86q-128 54 -208.5 102t-135.5 129.5t-55 204.5q0 121 57 212.5t155 141t218 49.5q140 0 251 -56.5t192 -151.5l-105 -109q-87 92 -163.5 127
t-170.5 35q-73 0 -132 -28t-93.5 -81t-34.5 -127q0 -77 40 -131t102.5 -89t160.5 -75q25 -10 31 -13q133 -53 215.5 -100t139.5 -132.5t57 -218.5q0 -132 -62 -227.5z" />
    <glyph glyph-name="scedilla" unicode="&#x15f;" horiz-adv-x="874" 
d="M707 77.5q-81 -79.5 -221 -93.5l-57 -119q29 6 54 6q56 0 101.5 -24t71 -67.5t25.5 -98.5q0 -59 -28 -107.5t-76 -77t-107 -28.5q-71 0 -139.5 39t-97.5 96l92 37q22 -30 64 -51t81 -21q47 0 79 32.5t32 80.5q0 49 -31 77t-83 28q-41 0 -85 -17l-80 51l83 164
q-95 7 -170.5 39.5t-144.5 82.5l94 138q52 -48 124.5 -79.5t151.5 -31.5q85 0 136 38t51 103q0 46 -27.5 74.5t-66 43t-115.5 36.5q-101 28 -160.5 52.5t-103 77t-43.5 140.5q0 89 46 153t125 97t175 33q83 0 163.5 -25t143.5 -69l-96 -129q-107 76 -226 76q-80 0 -127 -32
t-47 -87q0 -41 27.5 -67t69 -41t115.5 -35q21 -5 28 -7q85 -23 143.5 -51.5t97.5 -83.5t39 -143q0 -130 -81 -209.5z" />
    <glyph glyph-name="Scaron" unicode="&#x160;" horiz-adv-x="1135" 
d="M286 47q-137 67 -223 174l125 125q149 -211 381 -211q89 0 159.5 32.5t110.5 92.5t40 139q0 81 -46 138t-114.5 94t-186.5 86q-128 54 -208.5 102t-135.5 129.5t-55 204.5q0 121 57 212.5t155 141t218 49.5q140 0 251 -56.5t192 -151.5l-105 -109q-87 92 -163.5 127
t-170.5 35q-73 0 -132 -28t-93.5 -81t-34.5 -127q0 -77 40 -131t102.5 -89t160.5 -75q25 -10 31 -13q133 -53 215.5 -100t139.5 -132.5t57 -218.5q0 -135 -64 -231t-171.5 -145.5t-237.5 -49.5q-157 0 -294 67zM282 1995l88 53l201 -240l198 240l88 -53l-202 -297h-173z" />
    <glyph glyph-name="scaron" unicode="&#x161;" horiz-adv-x="874" 
d="M234 16q-87 34 -164 90l94 138q52 -48 124.5 -79.5t151.5 -31.5q85 0 136 38t51 103q0 46 -27.5 74.5t-66 43t-115.5 36.5q-101 28 -160.5 52.5t-103 77t-43.5 140.5q0 89 46 153t125 97t175 33q83 0 163.5 -25t143.5 -69l-96 -129q-107 76 -226 76q-80 0 -127 -32
t-47 -87q0 -41 27.5 -67t69 -41t115.5 -35q21 -5 28 -7q85 -23 143.5 -51.5t97.5 -83.5t39 -143q0 -95 -44 -164t-124.5 -105t-187.5 -36q-111 0 -198 34zM151 1422l88 53l201 -240l198 240l88 -53l-202 -297h-173z" />
    <glyph glyph-name="uni0162" unicode="&#x162;" horiz-adv-x="1075" 
d="M586 0l-64 -135q29 6 54 6q56 0 101.5 -24t71 -67.5t25.5 -98.5q0 -59 -28 -107.5t-76 -77t-107 -28.5q-71 0 -139.5 39t-97.5 96l92 37q22 -30 64 -51t81 -21q47 0 79 32.5t32 80.5q0 49 -31 77t-83 28q-41 0 -85 -17l-80 51l91 180h-35v1362h-422v174h1018v-174h-422
v-1362h-39z" />
    <glyph glyph-name="uni0163" unicode="&#x163;" horiz-adv-x="633" 
d="M366 0l-64 -135q28 6 54 6q56 0 101.5 -24t71 -67.5t25.5 -98.5q0 -59 -28 -107.5t-76 -77t-107 -28.5q-71 0 -139.5 39t-97.5 96l92 37q22 -30 64 -51t81 -21q47 0 79 32.5t32 80.5q0 49 -31 77t-83 28q-41 0 -85 -17l-80 51l91 180h-35v809h-202v154h202v346h170v-346
h201v-154h-201v-809h-35z" />
    <glyph glyph-name="Tcaron" unicode="&#x164;" horiz-adv-x="1075" 
d="M1047 1362h-422v-1362h-174v1362h-422v174h1018v-174zM248 1995l88 53l201 -240l198 240l88 -53l-202 -297h-173z" />
    <glyph glyph-name="tcaron" unicode="&#x165;" horiz-adv-x="633" 
d="M602 809h-201v-809h-170v809h-202v154h202v346h170v-346h201v-154zM751 1510l-3 -7l-146 -430h-125l110 370q-27 15 -43.5 42t-16.5 59q0 30 15.5 56.5t42 42t56.5 15.5t56.5 -15.5t42.5 -42t16 -56.5q0 -18 -4 -31z" />
    <glyph glyph-name="Tbar" unicode="&#x166;" horiz-adv-x="1075" 
d="M625 1362v-545h211v-119h-211v-698h-174v698h-217v119h217v545h-422v174h1018v-174h-422z" />
    <glyph glyph-name="tbar" unicode="&#x167;" horiz-adv-x="633" 
d="M401 809v-283h152v-119h-152v-407h-170v407h-154v119h154v283h-202v154h202v346h170v-346h201v-154h-201z" />
    <glyph glyph-name="Utilde" unicode="&#x168;" horiz-adv-x="1526" 
d="M464 47.5q-132 67.5 -207 187t-75 269.5v1032h174v-1004q0 -108 52 -194.5t145 -135t209 -48.5t209 49t145.5 135t52.5 194v1004h174v-1032q0 -150 -74.5 -269.5t-207 -187t-299.5 -67.5q-166 0 -298 67.5zM787.5 1671.5q-44.5 31.5 -78.5 81.5q-20 30 -39 42.5t-43 12.5
q-47 0 -72.5 -45t-25.5 -114h-125q0 80 26.5 144t76 101t116.5 37q62 0 107 -30.5t81 -81.5q19 -27 37.5 -41.5t48.5 -14.5q47 0 72 40.5t25 119.5h123q0 -80 -25.5 -144.5t-75 -101.5t-119.5 -37q-65 0 -109.5 31.5z" />
    <glyph glyph-name="utilde" unicode="&#x169;" horiz-adv-x="1032" 
d="M321.5 26.5q-83.5 44.5 -129 127.5t-45.5 194v615h168v-596q0 -68 25.5 -118t71 -77t104.5 -27t104.5 27t71 77t25.5 118v596h168v-615q0 -111 -45.5 -194t-129 -127.5t-194.5 -44.5t-194.5 44.5zM541.5 1098.5q-44.5 31.5 -78.5 81.5q-20 30 -39 42.5t-43 12.5
q-47 0 -72.5 -45t-25.5 -114h-125q0 80 26.5 144t76 101t116.5 37q62 0 107 -30.5t81 -81.5q19 -27 37.5 -41.5t48.5 -14.5q47 0 72 40.5t25 119.5h123q0 -80 -25.5 -144.5t-75 -101.5t-119.5 -37q-65 0 -109.5 31.5z" />
    <glyph glyph-name="Umacron" unicode="&#x16a;" horiz-adv-x="1526" 
d="M464 47.5q-132 67.5 -207 187t-75 269.5v1032h174v-1004q0 -108 52 -194.5t145 -135t209 -48.5t209 49t145.5 135t52.5 194v1004h174v-1032q0 -150 -74.5 -269.5t-207 -187t-299.5 -67.5q-166 0 -298 67.5zM445 1860h635v-115h-635v115z" />
    <glyph glyph-name="umacron" unicode="&#x16b;" horiz-adv-x="1032" 
d="M321.5 26.5q-83.5 44.5 -129 127.5t-45.5 194v615h168v-596q0 -68 25.5 -118t71 -77t104.5 -27t104.5 27t71 77t25.5 118v596h168v-615q0 -111 -45.5 -194t-129 -127.5t-194.5 -44.5t-194.5 44.5zM199 1287h635v-115h-635v115z" />
    <glyph glyph-name="Uring" unicode="&#x16e;" horiz-adv-x="1526" 
d="M464 47.5q-132 67.5 -207 187t-75 269.5v1032h174v-1004q0 -108 52 -194.5t145 -135t209 -48.5t209 49t145.5 135t52.5 194v1004h174v-1032q0 -150 -74.5 -269.5t-207 -187t-299.5 -67.5q-166 0 -298 67.5zM654 1702.5q-50 29.5 -79.5 78.5t-29.5 107t29.5 107.5t79 78.5
t108.5 29q58 0 106.5 -29t77.5 -78.5t29 -107.5t-29 -107t-78 -78.5t-106 -29.5q-58 0 -108 29.5zM849 1799q36 36 36 89q0 33 -17 62.5t-45 47t-61 17.5q-34 0 -62.5 -17.5t-44.5 -47t-16 -62.5q0 -54 35 -89.5t88 -35.5q51 0 87 36z" />
    <glyph glyph-name="uring" unicode="&#x16f;" horiz-adv-x="1032" 
d="M321.5 26.5q-83.5 44.5 -129 127.5t-45.5 194v615h168v-596q0 -68 25.5 -118t71 -77t104.5 -27t104.5 27t71 77t25.5 118v596h168v-615q0 -111 -45.5 -194t-129 -127.5t-194.5 -44.5t-194.5 44.5zM428 1155.5q-50 29.5 -79.5 79t-29.5 106.5q0 58 29.5 107.5t79 78.5
t108.5 29q58 0 106.5 -29t77.5 -78.5t29 -107.5q0 -57 -29 -106.5t-78 -79t-106 -29.5q-58 0 -108 29.5zM623 1252.5q36 35.5 36 88.5q0 34 -16.5 63t-45 46.5t-61.5 17.5q-34 0 -62 -17.5t-44.5 -46.5t-16.5 -63q0 -53 35.5 -88.5t87.5 -35.5q51 0 87 35.5z" />
    <glyph glyph-name="Uhungarumlaut" unicode="&#x170;" horiz-adv-x="1526" 
d="M464 47.5q-132 67.5 -207 187t-75 269.5v1032h174v-1004q0 -108 52 -194.5t145 -135t209 -48.5t209 49t145.5 135t52.5 194v1004h174v-1032q0 -150 -74.5 -269.5t-207 -187t-299.5 -67.5q-166 0 -298 67.5zM491 1798l328 283l86 -94l-330 -283zM862 1798l328 283l86 -94
l-330 -283z" />
    <glyph glyph-name="uhungarumlaut" unicode="&#x171;" horiz-adv-x="1032" 
d="M321.5 26.5q-83.5 44.5 -129 127.5t-45.5 194v615h168v-596q0 -68 25.5 -118t71 -77t104.5 -27t104.5 27t71 77t25.5 118v596h168v-615q0 -111 -45.5 -194t-129 -127.5t-194.5 -44.5t-194.5 44.5zM245 1225l328 283l86 -94l-330 -283zM616 1225l328 283l86 -94l-330 -283
z" />
    <glyph glyph-name="Uogonek" unicode="&#x172;" horiz-adv-x="1526" 
d="M1343 1536v-1032q0 -127 -54.5 -233.5t-153.5 -178t-228 -98.5q-99 -48 -162 -117t-63 -146q0 -55 33 -82.5t86 -27.5q47 0 98 21.5t88 58.5l82 -115q-53 -53 -118.5 -79t-137.5 -26q-114 0 -182 56t-68 156q0 155 172 287q-159 6 -285 75t-197 186t-71 263v1032h174
v-1004q0 -108 52 -194.5t145 -135t209 -48.5t209 49t145.5 135t52.5 194v1004h174z" />
    <glyph glyph-name="uogonek" unicode="&#x173;" horiz-adv-x="1032" 
d="M885 963v-615q0 -142 -73 -236.5t-201 -120.5q-107 -48 -175.5 -120t-68.5 -152q0 -55 33 -82.5t86 -27.5q47 0 98 21.5t88 58.5l82 -115q-53 -53 -118.5 -79t-137.5 -26q-114 0 -182 56t-68 156q0 164 196 306q-91 13 -158 61t-103 124.5t-36 175.5v615h168v-596
q0 -68 25.5 -118t71 -77t104.5 -27t104.5 27t71 77t25.5 118v596h168z" />
    <glyph glyph-name="Wcircumflex" unicode="&#x174;" horiz-adv-x="1946" 
d="M1266 -44l-293 710l-293 -711l-651 1581h188l469 -1180l202 516l-274 664h183l176 -447l176 447h182l-273 -663l204 -517l467 1180h188zM684 1710l200 297h173l202 -297l-86 -51l-200 237l-205 -237z" />
    <glyph glyph-name="wcircumflex" unicode="&#x175;" horiz-adv-x="1432" 
d="M1026 -52l-311 682l-311 -682l-388 1015h183l222 -608l294 661l296 -666l222 613h182zM428 1137l200 297h173l202 -297l-86 -51l-200 237l-205 -237z" />
    <glyph glyph-name="Ycircumflex" unicode="&#x176;" horiz-adv-x="1270" 
d="M723 728v-728h-174v725l-537 811h217l407 -629l408 629h213zM348 1710l200 297h173l202 -297l-86 -51l-200 237l-205 -237z" />
    <glyph glyph-name="ycircumflex" unicode="&#x177;" horiz-adv-x="985" 
d="M971 963l-584 -1455h-178l194 492l-391 963h187l300 -773l283 773h189zM192 1137l200 297h173l202 -297l-86 -51l-200 237l-205 -237z" />
    <glyph glyph-name="Ydieresis" unicode="&#x178;" horiz-adv-x="1270" 
d="M723 728v-728h-174v725l-537 811h217l407 -629l408 629h213zM368 1685.5q-34 33.5 -34 79.5q0 48 34 81.5t81 33.5q46 0 80.5 -33.5t34.5 -81.5q0 -30 -16 -56t-42.5 -41.5t-56.5 -15.5q-47 0 -81 33.5zM745 1685.5q-34 33.5 -34 79.5q0 48 34 81.5t81 33.5t80.5 -33
t33.5 -82q0 -47 -33.5 -80t-80.5 -33t-81 33.5z" />
    <glyph glyph-name="Zacute" unicode="&#x179;" horiz-adv-x="1356" 
d="M369 174h915v-174h-1245l928 1362h-844v174h1174zM583 1726l303 326l96 -108l-333 -289z" />
    <glyph glyph-name="zacute" unicode="&#x17a;" horiz-adv-x="936" 
d="M347 154h527v-154h-831l533 809h-496v154h801zM374 1153l303 326l96 -108l-333 -289z" />
    <glyph glyph-name="Zdotaccent" unicode="&#x17b;" horiz-adv-x="1356" 
d="M369 174h915v-174h-1245l928 1362h-844v174h1174zM609 1739.5q-34 33.5 -34 79.5q0 49 34 82t81 33t81 -33t34 -82q0 -30 -16 -56t-42.5 -41.5t-56.5 -15.5q-47 0 -81 33.5z" />
    <glyph glyph-name="zdotaccent" unicode="&#x17c;" horiz-adv-x="936" 
d="M347 154h527v-154h-831l533 809h-496v154h801zM400 1166.5q-34 33.5 -34 79.5q0 49 34 82t81 33t81 -33t34 -82q0 -30 -16 -56t-42.5 -41.5t-56.5 -15.5q-47 0 -81 33.5z" />
    <glyph glyph-name="Zcaron" unicode="&#x17d;" horiz-adv-x="1356" 
d="M369 174h915v-174h-1245l928 1362h-844v174h1174zM401 1995l88 53l201 -240l198 240l88 -53l-202 -297h-173z" />
    <glyph glyph-name="zcaron" unicode="&#x17e;" horiz-adv-x="936" 
d="M347 154h527v-154h-831l533 809h-496v154h801zM192 1422l88 53l201 -240l198 240l88 -53l-202 -297h-173z" />
    <glyph glyph-name="florin" unicode="&#x192;" horiz-adv-x="1038" 
d="M686 1351.5q-56 -51.5 -70 -134.5l-31 -193h283l-22 -160h-286l-220 -1376h-186l216 1376h-171l24 160h173l34 219q14 86 68.5 158t134 113.5t166.5 41.5q43 0 82 -10t59 -24l-18 -152q-19 16 -47 24.5t-56 8.5q-77 0 -133 -51.5z" />
    <glyph glyph-name="Ohorn" unicode="&#x1a0;" horiz-adv-x="1765" 
d="M1770 1504v-125q0 -123 -53.5 -184.5t-132.5 -65.5q87 -168 87 -361q0 -214 -106 -395t-287 -287t-395 -106q-215 0 -396 106t-287 286.5t-106 395.5t106 395.5t287 286.5t396 106q201 0 374 -94t281 -255q47 4 68.5 45t21.5 88v164h142zM1192 236q141 82 223 223t82 309
t-82 309t-223 223t-309 82q-167 0 -308.5 -82t-224 -223t-82.5 -309t82.5 -309t224 -223t308.5 -82q168 0 309 82z" />
    <glyph glyph-name="ohorn" unicode="&#x1a1;" horiz-adv-x="1155" 
d="M1274 1014v-125q0 -87 -27.5 -143t-72 -81.5t-97.5 -25.5q-15 0 -24 1q26 -76 26 -159q0 -136 -67 -250.5t-182 -181.5t-252 -67q-138 0 -253.5 67t-183 181.5t-67.5 250.5t67.5 251t183 182t253.5 67q142 0 260 -71.5t182 -191.5q5 -1 14 -1q51 0 74.5 42t23.5 91v164
h142zM745 190q76 45 121 122.5t45 168.5q0 92 -44.5 169t-121 122t-167.5 45q-93 0 -170 -45t-121.5 -122t-44.5 -169t44.5 -169t121.5 -122t170 -45q91 0 167 45z" />
    <glyph glyph-name="Uhorn" unicode="&#x1af;" horiz-adv-x="1679" 
d="M1592 1538v-125q0 -87 -27.5 -143t-72 -81.5t-97.5 -25.5q-20 0 -52 5v-664q0 -150 -74.5 -269.5t-207 -187t-299.5 -67.5q-166 0 -298 67.5t-207 187t-75 269.5v1032h174v-1004q0 -108 52 -194.5t145 -135t209 -48.5t209 49t145.5 135t52.5 194v1004h174v-295h9
q51 0 74.5 42t23.5 91v164h142z" />
    <glyph glyph-name="uhorn" unicode="&#x1b0;" horiz-adv-x="1032" 
d="M1188 963v-125q0 -87 -27.5 -143t-72 -81.5t-97.5 -25.5q-49 0 -106 18v-258q0 -111 -45.5 -194t-129 -127.5t-194.5 -44.5t-194.5 44.5t-129 127.5t-45.5 194v615h168v-596q0 -68 25.5 -118t71 -77t104.5 -27t104.5 27t71 77t25.5 118v596h168v-284q34 -13 63 -13
q51 0 74.5 42t23.5 91v164h142z" />
    <glyph glyph-name="uni01CD" unicode="&#x1cd;" horiz-adv-x="1360" 
d="M1041 246h-722l-96 -246h-194l651 1578l651 -1578h-194zM978 408l-297 760l-298 -760h595zM393 1995l88 53l201 -240l198 240l88 -53l-202 -297h-173z" />
    <glyph glyph-name="uni01CE" unicode="&#x1ce;" horiz-adv-x="1253" 
d="M1081 963v-963h-168v137q-63 -74 -153.5 -114.5t-202.5 -40.5q-127 0 -238 67t-177 182t-66 250q0 136 66 250.5t177 182t238 67.5q112 0 202.5 -40.5t153.5 -114.5v137h168zM747.5 190q76.5 45 121 122t44.5 169t-44.5 169t-120.5 122t-168 45t-169 -45t-122 -122
t-45 -169t45 -169t122 -122t169 -45q91 0 167.5 45zM289 1422l88 53l201 -240l198 240l88 -53l-202 -297h-173z" />
    <glyph glyph-name="uni01CF" unicode="&#x1cf;" horiz-adv-x="608" 
d="M217 1536h174v-1536h-174v1536zM14 1995l88 53l201 -240l198 240l88 -53l-202 -297h-173z" />
    <glyph glyph-name="uni01D0" unicode="&#x1d0;" horiz-adv-x="516" 
d="M174 963h168v-963h-168v963zM-31 1422l88 53l201 -240l198 240l88 -53l-202 -297h-173z" />
    <glyph glyph-name="uni01D1" unicode="&#x1d1;" horiz-adv-x="1765" 
d="M487 86q-181 106 -287 286.5t-106 395.5t106 395.5t287 286.5t396 106q214 0 395 -106t287 -287t106 -395t-106 -395t-287 -287t-395 -106q-215 0 -396 106zM1192 236q141 82 223 223t82 309t-82 309t-223 223t-309 82q-167 0 -308.5 -82t-224 -223t-82.5 -309t82.5 -309
t224 -223t308.5 -82q168 0 309 82zM594 1995l88 53l201 -240l198 240l88 -53l-202 -297h-173z" />
    <glyph glyph-name="uni01D2" unicode="&#x1d2;" horiz-adv-x="1155" 
d="M324.5 49q-115.5 67 -183 181.5t-67.5 250.5t67.5 251t183 182t253.5 67q137 0 252 -67t182 -182t67 -251t-67 -250.5t-182 -181.5t-252 -67q-138 0 -253.5 67zM745 190q76 45 121 122.5t45 168.5q0 92 -44.5 169t-121 122t-167.5 45q-93 0 -170 -45t-121.5 -122
t-44.5 -169t44.5 -169t121.5 -122t170 -45q91 0 167 45zM289 1422l88 53l201 -240l198 240l88 -53l-202 -297h-173z" />
    <glyph glyph-name="uni01D3" unicode="&#x1d3;" horiz-adv-x="1526" 
d="M464 47.5q-132 67.5 -207 187t-75 269.5v1032h174v-1004q0 -108 52 -194.5t145 -135t209 -48.5t209 49t145.5 135t52.5 194v1004h174v-1032q0 -150 -74.5 -269.5t-207 -187t-299.5 -67.5q-166 0 -298 67.5zM473 1995l88 53l201 -240l198 240l88 -53l-202 -297h-173z" />
    <glyph glyph-name="uni01D4" unicode="&#x1d4;" horiz-adv-x="1032" 
d="M321.5 26.5q-83.5 44.5 -129 127.5t-45.5 194v615h168v-596q0 -68 25.5 -118t71 -77t104.5 -27t104.5 27t71 77t25.5 118v596h168v-615q0 -111 -45.5 -194t-129 -127.5t-194.5 -44.5t-194.5 44.5zM227 1422l88 53l201 -240l198 240l88 -53l-202 -297h-173z" />
    <glyph glyph-name="uni01D5" unicode="&#x1d5;" horiz-adv-x="1526" 
d="M464 47.5q-132 67.5 -207 187t-75 269.5v1032h174v-1004q0 -108 52 -194.5t145 -135t209 -48.5t209 49t145.5 135t52.5 194v1004h174v-1032q0 -150 -74.5 -269.5t-207 -187t-299.5 -67.5q-166 0 -298 67.5zM493 1685.5q-34 33.5 -34 79.5q0 48 34 81.5t81 33.5
q46 0 80.5 -33.5t34.5 -81.5q0 -30 -16 -56t-42.5 -41.5t-56.5 -15.5q-47 0 -81 33.5zM870 1685.5q-34 33.5 -34 79.5q0 48 34 81.5t81 33.5t80.5 -33t33.5 -82q0 -47 -33.5 -80t-80.5 -33t-81 33.5zM445 2204h635v-115h-635v115z" />
    <glyph glyph-name="uni01D6" unicode="&#x1d6;" horiz-adv-x="1032" 
d="M321.5 26.5q-83.5 44.5 -129 127.5t-45.5 194v615h168v-596q0 -68 25.5 -118t71 -77t104.5 -27t104.5 27t71 77t25.5 118v596h168v-615q0 -111 -45.5 -194t-129 -127.5t-194.5 -44.5t-194.5 44.5zM247 1174q-34 33 -34 79q0 49 34 82t81 33t81 -33t34 -82
q0 -30 -16 -55.5t-42.5 -41t-56.5 -15.5q-47 0 -81 33zM624 1174q-34 33 -34 79q0 49 34 82t81 33q48 0 81 -33t33 -82q0 -46 -33.5 -79t-80.5 -33t-81 33zM199 1692h635v-115h-635v115z" />
    <glyph glyph-name="uni01D7" unicode="&#x1d7;" horiz-adv-x="1526" 
d="M464 47.5q-132 67.5 -207 187t-75 269.5v1032h174v-1004q0 -108 52 -194.5t145 -135t209 -48.5t209 49t145.5 135t52.5 194v1004h174v-1032q0 -150 -74.5 -269.5t-207 -187t-299.5 -67.5q-166 0 -298 67.5zM493 1685.5q-34 33.5 -34 79.5q0 48 34 81.5t81 33.5
q46 0 80.5 -33.5t34.5 -81.5q0 -30 -16 -56t-42.5 -41.5t-56.5 -15.5q-47 0 -81 33.5zM870 1685.5q-34 33.5 -34 79.5q0 48 34 81.5t81 33.5t80.5 -33t33.5 -82q0 -47 -33.5 -80t-80.5 -33t-81 33.5zM655 2070l303 326l96 -108l-333 -289z" />
    <glyph glyph-name="uni01D8" unicode="&#x1d8;" horiz-adv-x="1032" 
d="M321.5 26.5q-83.5 44.5 -129 127.5t-45.5 194v615h168v-596q0 -68 25.5 -118t71 -77t104.5 -27t104.5 27t71 77t25.5 118v596h168v-615q0 -111 -45.5 -194t-129 -127.5t-194.5 -44.5t-194.5 44.5zM247 1174q-34 33 -34 79q0 49 34 82t81 33t81 -33t34 -82
q0 -30 -16 -55.5t-42.5 -41t-56.5 -15.5q-47 0 -81 33zM624 1174q-34 33 -34 79q0 49 34 82t81 33q48 0 81 -33t33 -82q0 -46 -33.5 -79t-80.5 -33t-81 33zM409 1558l303 326l96 -108l-333 -289z" />
    <glyph glyph-name="uni01D9" unicode="&#x1d9;" horiz-adv-x="1526" 
d="M464 47.5q-132 67.5 -207 187t-75 269.5v1032h174v-1004q0 -108 52 -194.5t145 -135t209 -48.5t209 49t145.5 135t52.5 194v1004h174v-1032q0 -150 -74.5 -269.5t-207 -187t-299.5 -67.5q-166 0 -298 67.5zM493 1685.5q-34 33.5 -34 79.5q0 48 34 81.5t81 33.5
q46 0 80.5 -33.5t34.5 -81.5q0 -30 -16 -56t-42.5 -41.5t-56.5 -15.5q-47 0 -81 33.5zM870 1685.5q-34 33.5 -34 79.5q0 48 34 81.5t81 33.5t80.5 -33t33.5 -82q0 -47 -33.5 -80t-80.5 -33t-81 33.5zM473 2339l88 53l201 -240l198 240l88 -53l-202 -297h-173z" />
    <glyph glyph-name="uni01DA" unicode="&#x1da;" horiz-adv-x="1032" 
d="M321.5 26.5q-83.5 44.5 -129 127.5t-45.5 194v615h168v-596q0 -68 25.5 -118t71 -77t104.5 -27t104.5 27t71 77t25.5 118v596h168v-615q0 -111 -45.5 -194t-129 -127.5t-194.5 -44.5t-194.5 44.5zM247 1174q-34 33 -34 79q0 49 34 82t81 33t81 -33t34 -82
q0 -30 -16 -55.5t-42.5 -41t-56.5 -15.5q-47 0 -81 33zM624 1174q-34 33 -34 79q0 49 34 82t81 33q48 0 81 -33t33 -82q0 -46 -33.5 -79t-80.5 -33t-81 33zM227 1827l88 53l201 -240l198 240l88 -53l-202 -297h-173z" />
    <glyph glyph-name="uni01DB" unicode="&#x1db;" horiz-adv-x="1526" 
d="M464 47.5q-132 67.5 -207 187t-75 269.5v1032h174v-1004q0 -108 52 -194.5t145 -135t209 -48.5t209 49t145.5 135t52.5 194v1004h174v-1032q0 -150 -74.5 -269.5t-207 -187t-299.5 -67.5q-166 0 -298 67.5zM493 1685.5q-34 33.5 -34 79.5q0 48 34 81.5t81 33.5
q46 0 80.5 -33.5t34.5 -81.5q0 -30 -16 -56t-42.5 -41.5t-56.5 -15.5q-47 0 -81 33.5zM870 1685.5q-34 33.5 -34 79.5q0 48 34 81.5t81 33.5t80.5 -33t33.5 -82q0 -47 -33.5 -80t-80.5 -33t-81 33.5zM428 2288l98 108l301 -326l-63 -71z" />
    <glyph glyph-name="uni01DC" unicode="&#x1dc;" horiz-adv-x="1032" 
d="M321.5 26.5q-83.5 44.5 -129 127.5t-45.5 194v615h168v-596q0 -68 25.5 -118t71 -77t104.5 -27t104.5 27t71 77t25.5 118v596h168v-615q0 -111 -45.5 -194t-129 -127.5t-194.5 -44.5t-194.5 44.5zM247 1174q-34 33 -34 79q0 49 34 82t81 33t81 -33t34 -82
q0 -30 -16 -55.5t-42.5 -41t-56.5 -15.5q-47 0 -81 33zM624 1174q-34 33 -34 79q0 49 34 82t81 33q48 0 81 -33t33 -82q0 -46 -33.5 -79t-80.5 -33t-81 33zM182 1776l98 108l301 -326l-63 -71z" />
    <glyph glyph-name="Scommaaccent" unicode="&#x218;" horiz-adv-x="1135" 
d="M286 47q-137 67 -223 174l125 125q149 -211 381 -211q89 0 159.5 32.5t110.5 92.5t40 139q0 81 -46 138t-114.5 94t-186.5 86q-128 54 -208.5 102t-135.5 129.5t-55 204.5q0 121 57 212.5t155 141t218 49.5q140 0 251 -56.5t192 -151.5l-105 -109q-87 92 -163.5 127
t-170.5 35q-73 0 -132 -28t-93.5 -81t-34.5 -127q0 -77 40 -131t102.5 -89t160.5 -75q25 -10 31 -13q133 -53 215.5 -100t139.5 -132.5t57 -218.5q0 -135 -64 -231t-171.5 -145.5t-237.5 -49.5q-157 0 -294 67zM344 -524l188 440l144 -59l-240 -418z" />
    <glyph glyph-name="scommaaccent" unicode="&#x219;" horiz-adv-x="874" 
d="M234 16q-87 34 -164 90l94 138q52 -48 124.5 -79.5t151.5 -31.5q85 0 136 38t51 103q0 46 -27.5 74.5t-66 43t-115.5 36.5q-101 28 -160.5 52.5t-103 77t-43.5 140.5q0 89 46 153t125 97t175 33q83 0 163.5 -25t143.5 -69l-96 -129q-107 76 -226 76q-80 0 -127 -32
t-47 -87q0 -41 27.5 -67t69 -41t115.5 -35q21 -5 28 -7q85 -23 143.5 -51.5t97.5 -83.5t39 -143q0 -95 -44 -164t-124.5 -105t-187.5 -36q-111 0 -198 34zM235 -524l188 440l144 -59l-240 -418z" />
    <glyph glyph-name="uni021A" unicode="&#x21a;" horiz-adv-x="1075" 
d="M1047 1362h-422v-1362h-174v1362h-422v174h1018v-174zM328 -524l188 440l144 -59l-240 -418z" />
    <glyph glyph-name="uni021B" unicode="&#x21b;" horiz-adv-x="633" 
d="M602 809h-201v-809h-170v809h-202v154h202v346h170v-346h201v-154zM108 -524l188 440l144 -59l-240 -418z" />
    <glyph glyph-name="uni0237" unicode="&#x237;" horiz-adv-x="514" 
d="M174 963h166v-1444h-166v1444z" />
    <glyph glyph-name="circumflex" unicode="&#x2c6;" horiz-adv-x="727" 
d="M76 1239l200 297h173l202 -297l-86 -51l-200 237l-205 -237z" />
    <glyph glyph-name="caron" unicode="&#x2c7;" horiz-adv-x="727" 
d="M78 1483l88 53l201 -240l198 240l88 -53l-202 -297h-173z" />
    <glyph glyph-name="breve" unicode="&#x2d8;" horiz-adv-x="889" 
d="M299 1238.5q-77 38.5 -120.5 110t-43.5 167.5h136q0 -91 52.5 -150t149.5 -59q99 0 152 59t53 150h135q0 -96 -43.5 -167.5t-121 -110t-175.5 -38.5q-97 0 -174 38.5z" />
    <glyph glyph-name="dotaccent" unicode="&#x2d9;" horiz-adv-x="500" 
d="M169 1247.5q-34 33.5 -34 79.5q0 49 34 82t81 33t81 -33t34 -82q0 -30 -16 -56t-42.5 -41.5t-56.5 -15.5q-47 0 -81 33.5z" />
    <glyph glyph-name="ring" unicode="&#x2da;" horiz-adv-x="662" 
d="M244 1155.5q-50 29.5 -79.5 79t-29.5 106.5q0 58 29.5 107.5t79 78.5t108.5 29q58 0 106.5 -29t77.5 -78.5t29 -107.5q0 -57 -29 -106.5t-78 -79t-106 -29.5q-58 0 -108 29.5zM439 1252.5q36 35.5 36 88.5q0 34 -16.5 63t-45 46.5t-61.5 17.5q-34 0 -62 -17.5
t-44.5 -46.5t-16.5 -63q0 -53 35.5 -88.5t87.5 -35.5q51 0 87 35.5z" />
    <glyph glyph-name="ogonek" unicode="&#x2db;" horiz-adv-x="641" 
d="M170 -475q-68 56 -68 156q0 201 293 368l90 -49q-114 -48 -189 -122.5t-75 -158.5q0 -55 33 -82.5t86 -27.5q47 0 98 21.5t88 58.5l82 -115q-53 -53 -118.5 -79t-137.5 -26q-114 0 -182 56z" />
    <glyph glyph-name="tilde" unicode="&#x2dc;" horiz-adv-x="956" 
d="M551.5 1284.5q-44.5 31.5 -78.5 81.5q-20 30 -39 42.5t-43 12.5q-47 0 -72.5 -45t-25.5 -114h-125q0 80 26.5 144t76 101t116.5 37q62 0 107 -30.5t81 -81.5q19 -27 37.5 -41.5t48.5 -14.5q47 0 72 40.5t25 119.5h123q0 -80 -25.5 -144.5t-75 -101.5t-119.5 -37
q-65 0 -109.5 31.5z" />
    <glyph glyph-name="hungarumlaut" unicode="&#x2dd;" horiz-adv-x="496" 
d="M45 1214l303 326l96 -108l-333 -289z" />
    <glyph glyph-name="gravecomb" unicode="&#x300;" 
d="M-444 1432l98 108l301 -326l-63 -71z" />
    <glyph glyph-name="acutecomb" unicode="&#x301;" 
d="M-451 1214l303 326l96 -108l-333 -289z" />
    <glyph glyph-name="uni0302" unicode="&#x302;" 
d="M-651 1239l200 297h173l202 -297l-86 -51l-200 237l-205 -237z" />
    <glyph glyph-name="tildecomb" unicode="&#x303;" 
d="M-451.5 1284.5q-44.5 31.5 -78.5 81.5q-20 30 -39 42.5t-43 12.5q-47 0 -72.5 -45t-25.5 -114h-125q0 80 26.5 144t76 101t116.5 37q62 0 107 -30.5t81 -81.5q19 -27 37.5 -41.5t48.5 -14.5q47 0 72 40.5t25 119.5h123q0 -80 -25.5 -144.5t-75 -101.5t-119.5 -37
q-65 0 -109.5 31.5z" />
    <glyph glyph-name="uni0304" unicode="&#x304;" 
d="M-801 1348h635v-115h-635v115z" />
    <glyph glyph-name="uni0306" unicode="&#x306;" 
d="M-621 1238.5q-77 38.5 -120.5 110t-43.5 167.5h136q0 -91 52.5 -150t149.5 -59q99 0 152 59t53 150h135q0 -96 -43.5 -167.5t-121 -110t-175.5 -38.5q-97 0 -174 38.5z" />
    <glyph glyph-name="uni0307" unicode="&#x307;" 
d="M-331 1247.5q-34 33.5 -34 79.5q0 49 34 82t81 33t81 -33t34 -82q0 -30 -16 -56t-42.5 -41.5t-56.5 -15.5q-47 0 -81 33.5z" />
    <glyph glyph-name="uni0308" unicode="&#x308;" 
d="M-708 1174q-34 33 -34 79q0 49 34 82t81 33t81 -33t34 -82q0 -30 -16 -55.5t-42.5 -41t-56.5 -15.5q-47 0 -81 33zM-331 1174q-34 33 -34 79q0 49 34 82t81 33q48 0 81 -33t33 -82q0 -46 -33.5 -79t-80.5 -33t-81 33z" />
    <glyph glyph-name="hookabovecomb" unicode="&#x309;" 
d="M-366 1217q143 29 143 129q0 39 -27.5 65.5t-72.5 26.5q-54 0 -107 -35l-65 92q36 29 79.5 45t88.5 16q62 0 113.5 -27t81.5 -75t30 -108q0 -66 -40 -118.5t-116 -74.5v-90h-108v154z" />
    <glyph glyph-name="uni030A" unicode="&#x30a;" 
d="M-418 1155.5q-50 29.5 -79.5 79t-29.5 106.5q0 58 29.5 107.5t79 78.5t108.5 29q58 0 106.5 -29t77.5 -78.5t29 -107.5q0 -57 -29 -106.5t-78 -79t-106 -29.5q-58 0 -108 29.5zM-223 1252.5q36 35.5 36 88.5q0 34 -16.5 63t-45 46.5t-61.5 17.5q-34 0 -62 -17.5
t-44.5 -46.5t-16.5 -63q0 -53 35.5 -88.5t87.5 -35.5q51 0 87 35.5z" />
    <glyph glyph-name="uni030B" unicode="&#x30b;" 
d="M-838 1286l328 283l86 -94l-330 -283zM-467 1286l328 283l86 -94l-330 -283z" />
    <glyph glyph-name="uni030C" unicode="&#x30c;" 
d="M-651 1483l88 53l201 -240l198 240l88 -53l-202 -297h-173z" />
    <glyph glyph-name="uni0312" unicode="&#x312;" 
d="M-184.5 1266q22.5 -30 22.5 -68q0 -30 -16 -56.5t-42.5 -42.5t-56.5 -16q-50 0 -81.5 33t-31.5 84q0 21 7 41l145 428h104l-108 -363q35 -10 57.5 -40z" />
    <glyph glyph-name="uni031B" unicode="&#x31b;" 
d="M-441.5 789.5q-57.5 17.5 -109.5 50.5l74 39q52 -29 96 -29q51 0 74.5 42t23.5 91v164h142v-125q0 -87 -27.5 -143t-72 -81.5t-97.5 -25.5q-46 0 -103.5 17.5z" />
    <glyph glyph-name="dotbelowcomb" unicode="&#x323;" 
d="M-329 -478.5q-34 33.5 -34 81.5q0 30 16 56.5t42.5 42t56.5 15.5t56.5 -15.5t42 -42t15.5 -56.5q0 -48 -34 -81.5t-80 -33.5q-47 0 -81 33.5z" />
    <glyph glyph-name="uni0326" unicode="&#x326;" 
d="M-395 -268l188 440l144 -59l-240 -418z" />
    <glyph glyph-name="uni0327" unicode="&#x327;" 
d="M-440.5 -493q-68.5 39 -97.5 96l92 37q22 -30 64 -51t81 -21q47 0 79 32.5t32 80.5q0 49 -31 77t-83 28q-41 0 -85 -17l-80 51l93 184h100l-66 -139q28 6 54 6q56 0 101.5 -24t71 -67.5t25.5 -98.5q0 -59 -28 -107.5t-76 -77t-107 -28.5q-71 0 -139.5 39z" />
    <glyph glyph-name="uni0328" unicode="&#x328;" 
d="M-485 -475q-68 56 -68 156q0 201 293 368l90 -49q-114 -48 -189 -122.5t-75 -158.5q0 -55 33 -82.5t86 -27.5q47 0 98 21.5t88 58.5l82 -115q-53 -53 -118.5 -79t-137.5 -26q-114 0 -182 56z" />
    <glyph glyph-name="uni0335" unicode="&#x335;" 
d="M-766 584h602v-119h-602v119z" />
    <glyph glyph-name="uni0336" unicode="&#x336;" 
d="M-1628 592h1464v-119h-1464v119z" />
    <glyph glyph-name="uni0337" unicode="&#x337;" 
d="M-627 381l580 432v-154l-580 -432v154z" />
    <glyph glyph-name="uni0338" unicode="&#x338;" 
d="M-99 1634l127 -80l-1151 -1650l-129 78z" />
    <glyph glyph-name="uni0394" unicode="&#x394;" horiz-adv-x="1485" 
d="M1456 0h-1427l616 1536h195zM1206 154l-463 1184l-464 -1184h927z" />
    <glyph glyph-name="uni03A9" unicode="&#x3a9;" horiz-adv-x="1800" 
d="M115 143h334v15q-81 65 -149 162.5t-109 222.5t-41 264q0 205 97 372t269.5 263t388.5 96q222 0 392 -101t262 -267.5t92 -358.5q0 -138 -42.5 -265.5t-111.5 -227.5t-149 -160v-15h338v-143h-607v106q103 54 189 150t139 230.5t53 293.5q0 156 -65.5 297t-191 228.5
t-296.5 87.5q-166 0 -295 -82t-200.5 -222.5t-71.5 -312.5q0 -154 53.5 -289t141 -232.5t186.5 -148.5v-106h-606v143z" />
    <glyph glyph-name="uni03BC" unicode="&#x3bc;" horiz-adv-x="1196" 
d="M1022 963v-963h-166v140q-54 -74 -134 -116t-173 -42q-70 0 -134 24.5t-114 69.5v-557h-127v1444h168v-582q0 -68 34 -126t92.5 -92t127.5 -34q70 0 130 34t95 92t35 126v582h166z" />
    <glyph glyph-name="pi" unicode="&#x3c0;" horiz-adv-x="1257" 
d="M256 381.5q44 234.5 53 431.5q-98 0 -148 -9.5t-98 -35.5l-24 141q92 54 307 54h877l-15 -150h-178v-526q0 -106 7 -172.5t22 -114.5h-156q-31 55 -31 270v543l-405 2q-6 -121 -29 -281t-57 -306t-72 -228h-153q56 147 100 381.5z" />
    <glyph glyph-name="Wgrave" unicode="&#x1e80;" horiz-adv-x="1946" 
d="M1266 -44l-293 710l-293 -711l-651 1581h188l469 -1180l202 516l-274 664h183l176 -447l176 447h182l-273 -663l204 -517l467 1180h188zM639 1944l98 108l301 -326l-63 -71z" />
    <glyph glyph-name="wgrave" unicode="&#x1e81;" horiz-adv-x="1432" 
d="M1026 -52l-311 682l-311 -682l-388 1015h183l222 -608l294 661l296 -666l222 613h182zM383 1371l98 108l301 -326l-63 -71z" />
    <glyph glyph-name="Wacute" unicode="&#x1e82;" horiz-adv-x="1946" 
d="M1266 -44l-293 710l-293 -711l-651 1581h188l469 -1180l202 516l-274 664h183l176 -447l176 447h182l-273 -663l204 -517l467 1180h188zM866 1726l303 326l96 -108l-333 -289z" />
    <glyph glyph-name="wacute" unicode="&#x1e83;" horiz-adv-x="1432" 
d="M1026 -52l-311 682l-311 -682l-388 1015h183l222 -608l294 661l296 -666l222 613h182zM610 1153l303 326l96 -108l-333 -289z" />
    <glyph glyph-name="Wdieresis" unicode="&#x1e84;" horiz-adv-x="1946" 
d="M1266 -44l-293 710l-293 -711l-651 1581h188l469 -1180l202 516l-274 664h183l176 -447l176 447h182l-273 -663l204 -517l467 1180h188zM704 1685.5q-34 33.5 -34 79.5q0 48 34 81.5t81 33.5q46 0 80.5 -33.5t34.5 -81.5q0 -30 -16 -56t-42.5 -41.5t-56.5 -15.5
q-47 0 -81 33.5zM1081 1685.5q-34 33.5 -34 79.5q0 48 34 81.5t81 33.5t80.5 -33t33.5 -82q0 -47 -33.5 -80t-80.5 -33t-81 33.5z" />
    <glyph glyph-name="wdieresis" unicode="&#x1e85;" horiz-adv-x="1432" 
d="M1026 -52l-311 682l-311 -682l-388 1015h183l222 -608l294 661l296 -666l222 613h182zM448 1174q-34 33 -34 79q0 49 34 82t81 33t81 -33t34 -82q0 -30 -16 -55.5t-42.5 -41t-56.5 -15.5q-47 0 -81 33zM825 1174q-34 33 -34 79q0 49 34 82t81 33q48 0 81 -33t33 -82
q0 -46 -33.5 -79t-80.5 -33t-81 33z" />
    <glyph glyph-name="uni1EA0" unicode="&#x1ea0;" horiz-adv-x="1360" 
d="M1041 246h-722l-96 -246h-194l651 1578l651 -1578h-194zM978 408l-297 760l-298 -760h595zM601 -337.5q-34 33.5 -34 81.5q0 30 16 56.5t42.5 42t56.5 15.5t56.5 -15.5t42 -42t15.5 -56.5q0 -48 -34 -81.5t-80 -33.5q-47 0 -81 33.5z" />
    <glyph glyph-name="uni1EA1" unicode="&#x1ea1;" horiz-adv-x="1253" 
d="M1081 963v-963h-168v137q-63 -74 -153.5 -114.5t-202.5 -40.5q-127 0 -238 67t-177 182t-66 250q0 136 66 250.5t177 182t238 67.5q112 0 202.5 -40.5t153.5 -114.5v137h168zM747.5 190q76.5 45 121 122t44.5 169t-44.5 169t-120.5 122t-168 45t-169 -45t-122 -122
t-45 -169t45 -169t122 -122t169 -45q91 0 167.5 45zM544 -337.5q-34 33.5 -34 81.5q0 30 16 56.5t42.5 42t56.5 15.5t56.5 -15.5t42 -42t15.5 -56.5q0 -48 -34 -81.5t-80 -33.5q-47 0 -81 33.5z" />
    <glyph glyph-name="uni1EA2" unicode="&#x1ea2;" horiz-adv-x="1360" 
d="M1041 246h-722l-96 -246h-194l651 1578l651 -1578h-194zM978 408l-297 760l-298 -760h595zM627 1790q143 29 143 129q0 39 -27.5 65.5t-72.5 26.5q-54 0 -107 -35l-65 92q36 29 79.5 45t88.5 16q62 0 113.5 -27t81.5 -75t30 -108q0 -66 -40 -118.5t-116 -74.5v-90h-108
v154z" />
    <glyph glyph-name="uni1EA3" unicode="&#x1ea3;" horiz-adv-x="1253" 
d="M1081 963v-963h-168v137q-63 -74 -153.5 -114.5t-202.5 -40.5q-127 0 -238 67t-177 182t-66 250q0 136 66 250.5t177 182t238 67.5q112 0 202.5 -40.5t153.5 -114.5v137h168zM747.5 190q76.5 45 121 122t44.5 169t-44.5 169t-120.5 122t-168 45t-169 -45t-122 -122
t-45 -169t45 -169t122 -122t169 -45q91 0 167.5 45zM523 1217q143 29 143 129q0 39 -27.5 65.5t-72.5 26.5q-54 0 -107 -35l-65 92q36 29 79.5 45t88.5 16q62 0 113.5 -27t81.5 -75t30 -108q0 -66 -40 -118.5t-116 -74.5v-90h-108v154z" />
    <glyph glyph-name="uni1EA4" unicode="&#x1ea4;" horiz-adv-x="1360" 
d="M1041 246h-722l-96 -246h-194l651 1578l651 -1578h-194zM978 408l-297 760l-298 -760h595zM393 1710l200 297h173l202 -297l-86 -51l-200 237l-205 -237zM572 2197l303 326l96 -108l-333 -289z" />
    <glyph glyph-name="uni1EA5" unicode="&#x1ea5;" horiz-adv-x="1253" 
d="M1081 963v-963h-168v137q-63 -74 -153.5 -114.5t-202.5 -40.5q-127 0 -238 67t-177 182t-66 250q0 136 66 250.5t177 182t238 67.5q112 0 202.5 -40.5t153.5 -114.5v137h168zM747.5 190q76.5 45 121 122t44.5 169t-44.5 169t-120.5 122t-168 45t-169 -45t-122 -122
t-45 -169t45 -169t122 -122t169 -45q91 0 167.5 45zM289 1137l200 297h173l202 -297l-86 -51l-200 237l-205 -237zM468 1624l303 326l96 -108l-333 -289z" />
    <glyph glyph-name="uni1EA6" unicode="&#x1ea6;" horiz-adv-x="1360" 
d="M1041 246h-722l-96 -246h-194l651 1578l651 -1578h-194zM978 408l-297 760l-298 -760h595zM393 1710l200 297h173l202 -297l-86 -51l-200 237l-205 -237zM345 2415l98 108l301 -326l-63 -71z" />
    <glyph glyph-name="uni1EA7" unicode="&#x1ea7;" horiz-adv-x="1253" 
d="M1081 963v-963h-168v137q-63 -74 -153.5 -114.5t-202.5 -40.5q-127 0 -238 67t-177 182t-66 250q0 136 66 250.5t177 182t238 67.5q112 0 202.5 -40.5t153.5 -114.5v137h168zM747.5 190q76.5 45 121 122t44.5 169t-44.5 169t-120.5 122t-168 45t-169 -45t-122 -122
t-45 -169t45 -169t122 -122t169 -45q91 0 167.5 45zM289 1137l200 297h173l202 -297l-86 -51l-200 237l-205 -237zM241 1842l98 108l301 -326l-63 -71z" />
    <glyph glyph-name="uni1EA8" unicode="&#x1ea8;" horiz-adv-x="1360" 
d="M1041 246h-722l-96 -246h-194l651 1578l651 -1578h-194zM978 408l-297 760l-298 -760h595zM393 1710l200 297h173l202 -297l-86 -51l-200 237l-205 -237zM624 2261q143 29 143 129q0 39 -27.5 65.5t-72.5 26.5q-54 0 -107 -35l-65 92q36 29 79.5 45t88.5 16
q62 0 113.5 -27t81.5 -75t30 -108q0 -66 -40 -118.5t-116 -74.5v-90h-108v154z" />
    <glyph glyph-name="uni1EA9" unicode="&#x1ea9;" horiz-adv-x="1253" 
d="M1081 963v-963h-168v137q-63 -74 -153.5 -114.5t-202.5 -40.5q-127 0 -238 67t-177 182t-66 250q0 136 66 250.5t177 182t238 67.5q112 0 202.5 -40.5t153.5 -114.5v137h168zM747.5 190q76.5 45 121 122t44.5 169t-44.5 169t-120.5 122t-168 45t-169 -45t-122 -122
t-45 -169t45 -169t122 -122t169 -45q91 0 167.5 45zM289 1137l200 297h173l202 -297l-86 -51l-200 237l-205 -237zM520 1688q143 29 143 129q0 39 -27.5 65.5t-72.5 26.5q-54 0 -107 -35l-65 92q36 29 79.5 45t88.5 16q62 0 113.5 -27t81.5 -75t30 -108q0 -66 -40 -118.5
t-116 -74.5v-90h-108v154z" />
    <glyph glyph-name="uni1EAA" unicode="&#x1eaa;" horiz-adv-x="1360" 
d="M1041 246h-722l-96 -246h-194l651 1578l651 -1578h-194zM978 408l-297 760l-298 -760h595zM393 1710l200 297h173l202 -297l-86 -51l-200 237l-205 -237zM704.5 2142.5q-44.5 31.5 -78.5 81.5q-20 30 -39 42.5t-43 12.5q-47 0 -72.5 -45t-25.5 -114h-125q0 80 26.5 144
t76 101t116.5 37q62 0 107 -30.5t81 -81.5q19 -27 37.5 -41.5t48.5 -14.5q47 0 72 40.5t25 119.5h123q0 -80 -25.5 -144.5t-75 -101.5t-119.5 -37q-65 0 -109.5 31.5z" />
    <glyph glyph-name="uni1EAB" unicode="&#x1eab;" horiz-adv-x="1253" 
d="M1081 963v-963h-168v137q-63 -74 -153.5 -114.5t-202.5 -40.5q-127 0 -238 67t-177 182t-66 250q0 136 66 250.5t177 182t238 67.5q112 0 202.5 -40.5t153.5 -114.5v137h168zM747.5 190q76.5 45 121 122t44.5 169t-44.5 169t-120.5 122t-168 45t-169 -45t-122 -122
t-45 -169t45 -169t122 -122t169 -45q91 0 167.5 45zM289 1137l200 297h173l202 -297l-86 -51l-200 237l-205 -237zM600.5 1569.5q-44.5 31.5 -78.5 81.5q-20 30 -39 42.5t-43 12.5q-47 0 -72.5 -45t-25.5 -114h-125q0 80 26.5 144t76 101t116.5 37q62 0 107 -30.5t81 -81.5
q19 -27 37.5 -41.5t48.5 -14.5q47 0 72 40.5t25 119.5h123q0 -80 -25.5 -144.5t-75 -101.5t-119.5 -37q-65 0 -109.5 31.5z" />
    <glyph glyph-name="uni1EAC" unicode="&#x1eac;" horiz-adv-x="1360" 
d="M1041 246h-722l-96 -246h-194l651 1578l651 -1578h-194zM978 408l-297 760l-298 -760h595zM601 -337.5q-34 33.5 -34 81.5q0 30 16 56.5t42.5 42t56.5 15.5t56.5 -15.5t42 -42t15.5 -56.5q0 -48 -34 -81.5t-80 -33.5q-47 0 -81 33.5zM393 1710l200 297h173l202 -297
l-86 -51l-200 237l-205 -237z" />
    <glyph glyph-name="uni1EAD" unicode="&#x1ead;" horiz-adv-x="1253" 
d="M1081 963v-963h-168v137q-63 -74 -153.5 -114.5t-202.5 -40.5q-127 0 -238 67t-177 182t-66 250q0 136 66 250.5t177 182t238 67.5q112 0 202.5 -40.5t153.5 -114.5v137h168zM747.5 190q76.5 45 121 122t44.5 169t-44.5 169t-120.5 122t-168 45t-169 -45t-122 -122
t-45 -169t45 -169t122 -122t169 -45q91 0 167.5 45zM544 -337.5q-34 33.5 -34 81.5q0 30 16 56.5t42.5 42t56.5 15.5t56.5 -15.5t42 -42t15.5 -56.5q0 -48 -34 -81.5t-80 -33.5q-47 0 -81 33.5zM289 1137l200 297h173l202 -297l-86 -51l-200 237l-205 -237z" />
    <glyph glyph-name="uni1EAE" unicode="&#x1eae;" horiz-adv-x="1360" 
d="M1041 246h-722l-96 -246h-194l651 1578l651 -1578h-194zM978 408l-297 760l-298 -760h595zM506 1750.5q-77 38.5 -120.5 110t-43.5 167.5h136q0 -91 52.5 -150t149.5 -59q99 0 152 59t53 150h135q0 -96 -43.5 -167.5t-121 -110t-175.5 -38.5q-97 0 -174 38.5zM575 2187
l303 326l96 -108l-333 -289z" />
    <glyph glyph-name="uni1EAF" unicode="&#x1eaf;" horiz-adv-x="1253" 
d="M1081 963v-963h-168v137q-63 -74 -153.5 -114.5t-202.5 -40.5q-127 0 -238 67t-177 182t-66 250q0 136 66 250.5t177 182t238 67.5q112 0 202.5 -40.5t153.5 -114.5v137h168zM747.5 190q76.5 45 121 122t44.5 169t-44.5 169t-120.5 122t-168 45t-169 -45t-122 -122
t-45 -169t45 -169t122 -122t169 -45q91 0 167.5 45zM402 1177.5q-77 38.5 -120.5 110t-43.5 167.5h136q0 -91 52.5 -150t149.5 -59q99 0 152 59t53 150h135q0 -96 -43.5 -167.5t-121 -110t-175.5 -38.5q-97 0 -174 38.5zM471 1614l303 326l96 -108l-333 -289z" />
    <glyph glyph-name="uni1EB0" unicode="&#x1eb0;" horiz-adv-x="1360" 
d="M1041 246h-722l-96 -246h-194l651 1578l651 -1578h-194zM978 408l-297 760l-298 -760h595zM506 1750.5q-77 38.5 -120.5 110t-43.5 167.5h136q0 -91 52.5 -150t149.5 -59q99 0 152 59t53 150h135q0 -96 -43.5 -167.5t-121 -110t-175.5 -38.5q-97 0 -174 38.5zM348 2405
l98 108l301 -326l-63 -71z" />
    <glyph glyph-name="uni1EB1" unicode="&#x1eb1;" horiz-adv-x="1253" 
d="M1081 963v-963h-168v137q-63 -74 -153.5 -114.5t-202.5 -40.5q-127 0 -238 67t-177 182t-66 250q0 136 66 250.5t177 182t238 67.5q112 0 202.5 -40.5t153.5 -114.5v137h168zM747.5 190q76.5 45 121 122t44.5 169t-44.5 169t-120.5 122t-168 45t-169 -45t-122 -122
t-45 -169t45 -169t122 -122t169 -45q91 0 167.5 45zM402 1177.5q-77 38.5 -120.5 110t-43.5 167.5h136q0 -91 52.5 -150t149.5 -59q99 0 152 59t53 150h135q0 -96 -43.5 -167.5t-121 -110t-175.5 -38.5q-97 0 -174 38.5zM244 1832l98 108l301 -326l-63 -71z" />
    <glyph glyph-name="uni1EB2" unicode="&#x1eb2;" horiz-adv-x="1360" 
d="M1041 246h-722l-96 -246h-194l651 1578l651 -1578h-194zM978 408l-297 760l-298 -760h595zM506 1750.5q-77 38.5 -120.5 110t-43.5 167.5h136q0 -91 52.5 -150t149.5 -59q99 0 152 59t53 150h135q0 -96 -43.5 -167.5t-121 -110t-175.5 -38.5q-97 0 -174 38.5zM627 2251
q143 29 143 129q0 39 -27.5 65.5t-72.5 26.5q-54 0 -107 -35l-65 92q36 29 79.5 45t88.5 16q62 0 113.5 -27t81.5 -75t30 -108q0 -66 -40 -118.5t-116 -74.5v-90h-108v154z" />
    <glyph glyph-name="uni1EB3" unicode="&#x1eb3;" horiz-adv-x="1253" 
d="M1081 963v-963h-168v137q-63 -74 -153.5 -114.5t-202.5 -40.5q-127 0 -238 67t-177 182t-66 250q0 136 66 250.5t177 182t238 67.5q112 0 202.5 -40.5t153.5 -114.5v137h168zM747.5 190q76.5 45 121 122t44.5 169t-44.5 169t-120.5 122t-168 45t-169 -45t-122 -122
t-45 -169t45 -169t122 -122t169 -45q91 0 167.5 45zM402 1177.5q-77 38.5 -120.5 110t-43.5 167.5h136q0 -91 52.5 -150t149.5 -59q99 0 152 59t53 150h135q0 -96 -43.5 -167.5t-121 -110t-175.5 -38.5q-97 0 -174 38.5zM523 1678q143 29 143 129q0 39 -27.5 65.5
t-72.5 26.5q-54 0 -107 -35l-65 92q36 29 79.5 45t88.5 16q62 0 113.5 -27t81.5 -75t30 -108q0 -66 -40 -118.5t-116 -74.5v-90h-108v154z" />
    <glyph glyph-name="uni1EB4" unicode="&#x1eb4;" horiz-adv-x="1360" 
d="M1041 246h-722l-96 -246h-194l651 1578l651 -1578h-194zM978 408l-297 760l-298 -760h595zM506 1750.5q-77 38.5 -120.5 110t-43.5 167.5h136q0 -91 52.5 -150t149.5 -59q99 0 152 59t53 150h135q0 -96 -43.5 -167.5t-121 -110t-175.5 -38.5q-97 0 -174 38.5z
M707.5 2132.5q-44.5 31.5 -78.5 81.5q-20 30 -39 42.5t-43 12.5q-47 0 -72.5 -45t-25.5 -114h-125q0 80 26.5 144t76 101t116.5 37q62 0 107 -30.5t81 -81.5q19 -27 37.5 -41.5t48.5 -14.5q47 0 72 40.5t25 119.5h123q0 -80 -25.5 -144.5t-75 -101.5t-119.5 -37
q-65 0 -109.5 31.5z" />
    <glyph glyph-name="uni1EB5" unicode="&#x1eb5;" horiz-adv-x="1253" 
d="M1081 963v-963h-168v137q-63 -74 -153.5 -114.5t-202.5 -40.5q-127 0 -238 67t-177 182t-66 250q0 136 66 250.5t177 182t238 67.5q112 0 202.5 -40.5t153.5 -114.5v137h168zM747.5 190q76.5 45 121 122t44.5 169t-44.5 169t-120.5 122t-168 45t-169 -45t-122 -122
t-45 -169t45 -169t122 -122t169 -45q91 0 167.5 45zM402 1177.5q-77 38.5 -120.5 110t-43.5 167.5h136q0 -91 52.5 -150t149.5 -59q99 0 152 59t53 150h135q0 -96 -43.5 -167.5t-121 -110t-175.5 -38.5q-97 0 -174 38.5zM603.5 1559.5q-44.5 31.5 -78.5 81.5
q-20 30 -39 42.5t-43 12.5q-47 0 -72.5 -45t-25.5 -114h-125q0 80 26.5 144t76 101t116.5 37q62 0 107 -30.5t81 -81.5q19 -27 37.5 -41.5t48.5 -14.5q47 0 72 40.5t25 119.5h123q0 -80 -25.5 -144.5t-75 -101.5t-119.5 -37q-65 0 -109.5 31.5z" />
    <glyph glyph-name="uni1EB6" unicode="&#x1eb6;" horiz-adv-x="1360" 
d="M1041 246h-722l-96 -246h-194l651 1578l651 -1578h-194zM978 408l-297 760l-298 -760h595zM601 -337.5q-34 33.5 -34 81.5q0 30 16 56.5t42.5 42t56.5 15.5t56.5 -15.5t42 -42t15.5 -56.5q0 -48 -34 -81.5t-80 -33.5q-47 0 -81 33.5zM506 1750.5q-77 38.5 -120.5 110
t-43.5 167.5h136q0 -91 52.5 -150t149.5 -59q99 0 152 59t53 150h135q0 -96 -43.5 -167.5t-121 -110t-175.5 -38.5q-97 0 -174 38.5z" />
    <glyph glyph-name="uni1EB7" unicode="&#x1eb7;" horiz-adv-x="1253" 
d="M1081 963v-963h-168v137q-63 -74 -153.5 -114.5t-202.5 -40.5q-127 0 -238 67t-177 182t-66 250q0 136 66 250.5t177 182t238 67.5q112 0 202.5 -40.5t153.5 -114.5v137h168zM747.5 190q76.5 45 121 122t44.5 169t-44.5 169t-120.5 122t-168 45t-169 -45t-122 -122
t-45 -169t45 -169t122 -122t169 -45q91 0 167.5 45zM544 -337.5q-34 33.5 -34 81.5q0 30 16 56.5t42.5 42t56.5 15.5t56.5 -15.5t42 -42t15.5 -56.5q0 -48 -34 -81.5t-80 -33.5q-47 0 -81 33.5zM402 1177.5q-77 38.5 -120.5 110t-43.5 167.5h136q0 -91 52.5 -150t149.5 -59
q99 0 152 59t53 150h135q0 -96 -43.5 -167.5t-121 -110t-175.5 -38.5q-97 0 -174 38.5z" />
    <glyph glyph-name="uni1EB8" unicode="&#x1eb8;" horiz-adv-x="1165" 
d="M391 1368v-516h584v-168h-584v-516h670v-168h-844v1536h844v-168h-670zM558 -337.5q-34 33.5 -34 81.5q0 30 16 56.5t42.5 42t56.5 15.5t56.5 -15.5t42 -42t15.5 -56.5q0 -48 -34 -81.5t-80 -33.5q-47 0 -81 33.5z" />
    <glyph glyph-name="uni1EB9" unicode="&#x1eb9;" horiz-adv-x="1139" 
d="M1077 459h-844q5 -90 52.5 -164.5t125 -118t167.5 -43.5t167 43.5t125 118.5l142 -57q-63 -119 -178 -187.5t-254 -68.5q-140 0 -255.5 67t-182 181.5t-66.5 250.5q0 137 67 251.5t182 181.5t253 67q136 0 250.5 -64.5t181.5 -176.5t67 -248v-33zM435.5 799.5
q-66.5 -29.5 -114 -83t-70.5 -122.5h649q-22 69 -69 122t-112.5 83t-140.5 30q-76 0 -142.5 -29.5zM509 -337.5q-34 33.5 -34 81.5q0 30 16 56.5t42.5 42t56.5 15.5t56.5 -15.5t42 -42t15.5 -56.5q0 -48 -34 -81.5t-80 -33.5q-47 0 -81 33.5z" />
    <glyph glyph-name="uni1EBA" unicode="&#x1eba;" horiz-adv-x="1165" 
d="M391 1368v-516h584v-168h-584v-516h670v-168h-844v1536h844v-168h-670zM584 1790q143 29 143 129q0 39 -27.5 65.5t-72.5 26.5q-54 0 -107 -35l-65 92q36 29 79.5 45t88.5 16q62 0 113.5 -27t81.5 -75t30 -108q0 -66 -40 -118.5t-116 -74.5v-90h-108v154z" />
    <glyph glyph-name="uni1EBB" unicode="&#x1ebb;" horiz-adv-x="1139" 
d="M1077 459h-844q5 -90 52.5 -164.5t125 -118t167.5 -43.5t167 43.5t125 118.5l142 -57q-63 -119 -178 -187.5t-254 -68.5q-140 0 -255.5 67t-182 181.5t-66.5 250.5q0 137 67 251.5t182 181.5t253 67q136 0 250.5 -64.5t181.5 -176.5t67 -248v-33zM435.5 799.5
q-66.5 -29.5 -114 -83t-70.5 -122.5h649q-22 69 -69 122t-112.5 83t-140.5 30q-76 0 -142.5 -29.5zM533 1227q143 29 143 129q0 39 -27.5 65.5t-72.5 26.5q-54 0 -107 -35l-65 92q36 29 79.5 45t88.5 16q62 0 113.5 -27t81.5 -75t30 -108q0 -66 -40 -118.5t-116 -74.5v-90
h-108v154z" />
    <glyph glyph-name="uni1EBC" unicode="&#x1ebc;" horiz-adv-x="1165" 
d="M391 1368v-516h584v-168h-584v-516h670v-168h-844v1536h844v-168h-670zM664.5 1671.5q-44.5 31.5 -78.5 81.5q-20 30 -39 42.5t-43 12.5q-47 0 -72.5 -45t-25.5 -114h-125q0 80 26.5 144t76 101t116.5 37q62 0 107 -30.5t81 -81.5q19 -27 37.5 -41.5t48.5 -14.5
q47 0 72 40.5t25 119.5h123q0 -80 -25.5 -144.5t-75 -101.5t-119.5 -37q-65 0 -109.5 31.5z" />
    <glyph glyph-name="uni1EBD" unicode="&#x1ebd;" horiz-adv-x="1139" 
d="M1077 459h-844q5 -90 52.5 -164.5t125 -118t167.5 -43.5t167 43.5t125 118.5l142 -57q-63 -119 -178 -187.5t-254 -68.5q-140 0 -255.5 67t-182 181.5t-66.5 250.5q0 137 67 251.5t182 181.5t253 67q136 0 250.5 -64.5t181.5 -176.5t67 -248v-33zM435.5 799.5
q-66.5 -29.5 -114 -83t-70.5 -122.5h649q-22 69 -69 122t-112.5 83t-140.5 30q-76 0 -142.5 -29.5zM613.5 1108.5q-44.5 31.5 -78.5 81.5q-20 30 -39 42.5t-43 12.5q-47 0 -72.5 -45t-25.5 -114h-125q0 80 26.5 144t76 101t116.5 37q62 0 107 -30.5t81 -81.5
q19 -27 37.5 -41.5t48.5 -14.5q47 0 72 40.5t25 119.5h123q0 -80 -25.5 -144.5t-75 -101.5t-119.5 -37q-65 0 -109.5 31.5z" />
    <glyph glyph-name="uni1EBE" unicode="&#x1ebe;" horiz-adv-x="1165" 
d="M391 1368v-516h584v-168h-584v-516h670v-168h-844v1536h844v-168h-670zM350 1710l200 297h173l202 -297l-86 -51l-200 237l-205 -237zM529 2197l303 326l96 -108l-333 -289z" />
    <glyph glyph-name="uni1EBF" unicode="&#x1ebf;" horiz-adv-x="1139" 
d="M1077 459h-844q5 -90 52.5 -164.5t125 -118t167.5 -43.5t167 43.5t125 118.5l142 -57q-63 -119 -178 -187.5t-254 -68.5q-140 0 -255.5 67t-182 181.5t-66.5 250.5q0 137 67 251.5t182 181.5t253 67q136 0 250.5 -64.5t181.5 -176.5t67 -248v-33zM435.5 799.5
q-66.5 -29.5 -114 -83t-70.5 -122.5h649q-22 69 -69 122t-112.5 83t-140.5 30q-76 0 -142.5 -29.5zM299 1147l200 297h173l202 -297l-86 -51l-200 237l-205 -237zM478 1634l303 326l96 -108l-333 -289z" />
    <glyph glyph-name="uni1EC0" unicode="&#x1ec0;" horiz-adv-x="1165" 
d="M391 1368v-516h584v-168h-584v-516h670v-168h-844v1536h844v-168h-670zM350 1710l200 297h173l202 -297l-86 -51l-200 237l-205 -237zM302 2415l98 108l301 -326l-63 -71z" />
    <glyph glyph-name="uni1EC1" unicode="&#x1ec1;" horiz-adv-x="1139" 
d="M1077 459h-844q5 -90 52.5 -164.5t125 -118t167.5 -43.5t167 43.5t125 118.5l142 -57q-63 -119 -178 -187.5t-254 -68.5q-140 0 -255.5 67t-182 181.5t-66.5 250.5q0 137 67 251.5t182 181.5t253 67q136 0 250.5 -64.5t181.5 -176.5t67 -248v-33zM435.5 799.5
q-66.5 -29.5 -114 -83t-70.5 -122.5h649q-22 69 -69 122t-112.5 83t-140.5 30q-76 0 -142.5 -29.5zM299 1147l200 297h173l202 -297l-86 -51l-200 237l-205 -237zM251 1852l98 108l301 -326l-63 -71z" />
    <glyph glyph-name="uni1EC2" unicode="&#x1ec2;" horiz-adv-x="1165" 
d="M391 1368v-516h584v-168h-584v-516h670v-168h-844v1536h844v-168h-670zM350 1710l200 297h173l202 -297l-86 -51l-200 237l-205 -237zM581 2261q143 29 143 129q0 39 -27.5 65.5t-72.5 26.5q-54 0 -107 -35l-65 92q36 29 79.5 45t88.5 16q62 0 113.5 -27t81.5 -75
t30 -108q0 -66 -40 -118.5t-116 -74.5v-90h-108v154z" />
    <glyph glyph-name="uni1EC3" unicode="&#x1ec3;" horiz-adv-x="1139" 
d="M1077 459h-844q5 -90 52.5 -164.5t125 -118t167.5 -43.5t167 43.5t125 118.5l142 -57q-63 -119 -178 -187.5t-254 -68.5q-140 0 -255.5 67t-182 181.5t-66.5 250.5q0 137 67 251.5t182 181.5t253 67q136 0 250.5 -64.5t181.5 -176.5t67 -248v-33zM435.5 799.5
q-66.5 -29.5 -114 -83t-70.5 -122.5h649q-22 69 -69 122t-112.5 83t-140.5 30q-76 0 -142.5 -29.5zM299 1147l200 297h173l202 -297l-86 -51l-200 237l-205 -237zM530 1698q143 29 143 129q0 39 -27.5 65.5t-72.5 26.5q-54 0 -107 -35l-65 92q36 29 79.5 45t88.5 16
q62 0 113.5 -27t81.5 -75t30 -108q0 -66 -40 -118.5t-116 -74.5v-90h-108v154z" />
    <glyph glyph-name="uni1EC4" unicode="&#x1ec4;" horiz-adv-x="1165" 
d="M391 1368v-516h584v-168h-584v-516h670v-168h-844v1536h844v-168h-670zM350 1710l200 297h173l202 -297l-86 -51l-200 237l-205 -237zM661.5 2142.5q-44.5 31.5 -78.5 81.5q-20 30 -39 42.5t-43 12.5q-47 0 -72.5 -45t-25.5 -114h-125q0 80 26.5 144t76 101t116.5 37
q62 0 107 -30.5t81 -81.5q19 -27 37.5 -41.5t48.5 -14.5q47 0 72 40.5t25 119.5h123q0 -80 -25.5 -144.5t-75 -101.5t-119.5 -37q-65 0 -109.5 31.5z" />
    <glyph glyph-name="uni1EC5" unicode="&#x1ec5;" horiz-adv-x="1139" 
d="M1077 459h-844q5 -90 52.5 -164.5t125 -118t167.5 -43.5t167 43.5t125 118.5l142 -57q-63 -119 -178 -187.5t-254 -68.5q-140 0 -255.5 67t-182 181.5t-66.5 250.5q0 137 67 251.5t182 181.5t253 67q136 0 250.5 -64.5t181.5 -176.5t67 -248v-33zM435.5 799.5
q-66.5 -29.5 -114 -83t-70.5 -122.5h649q-22 69 -69 122t-112.5 83t-140.5 30q-76 0 -142.5 -29.5zM299 1147l200 297h173l202 -297l-86 -51l-200 237l-205 -237zM610.5 1579.5q-44.5 31.5 -78.5 81.5q-20 30 -39 42.5t-43 12.5q-47 0 -72.5 -45t-25.5 -114h-125
q0 80 26.5 144t76 101t116.5 37q62 0 107 -30.5t81 -81.5q19 -27 37.5 -41.5t48.5 -14.5q47 0 72 40.5t25 119.5h123q0 -80 -25.5 -144.5t-75 -101.5t-119.5 -37q-65 0 -109.5 31.5z" />
    <glyph glyph-name="uni1EC6" unicode="&#x1ec6;" horiz-adv-x="1165" 
d="M391 1368v-516h584v-168h-584v-516h670v-168h-844v1536h844v-168h-670zM558 -337.5q-34 33.5 -34 81.5q0 30 16 56.5t42.5 42t56.5 15.5t56.5 -15.5t42 -42t15.5 -56.5q0 -48 -34 -81.5t-80 -33.5q-47 0 -81 33.5zM350 1710l200 297h173l202 -297l-86 -51l-200 237
l-205 -237z" />
    <glyph glyph-name="uni1EC7" unicode="&#x1ec7;" horiz-adv-x="1139" 
d="M1077 459h-844q5 -90 52.5 -164.5t125 -118t167.5 -43.5t167 43.5t125 118.5l142 -57q-63 -119 -178 -187.5t-254 -68.5q-140 0 -255.5 67t-182 181.5t-66.5 250.5q0 137 67 251.5t182 181.5t253 67q136 0 250.5 -64.5t181.5 -176.5t67 -248v-33zM435.5 799.5
q-66.5 -29.5 -114 -83t-70.5 -122.5h649q-22 69 -69 122t-112.5 83t-140.5 30q-76 0 -142.5 -29.5zM509 -337.5q-34 33.5 -34 81.5q0 30 16 56.5t42.5 42t56.5 15.5t56.5 -15.5t42 -42t15.5 -56.5q0 -48 -34 -81.5t-80 -33.5q-47 0 -81 33.5zM299 1147l200 297h173l202 -297
l-86 -51l-200 237l-205 -237z" />
    <glyph glyph-name="uni1EC8" unicode="&#x1ec8;" horiz-adv-x="608" 
d="M217 1536h174v-1536h-174v1536zM248 1790q143 29 143 129q0 39 -27.5 65.5t-72.5 26.5q-54 0 -107 -35l-65 92q36 29 79.5 45t88.5 16q62 0 113.5 -27t81.5 -75t30 -108q0 -66 -40 -118.5t-116 -74.5v-90h-108v154z" />
    <glyph glyph-name="uni1EC9" unicode="&#x1ec9;" horiz-adv-x="516" 
d="M174 963h168v-963h-168v963zM203 1217q143 29 143 129q0 39 -27.5 65.5t-72.5 26.5q-54 0 -107 -35l-65 92q36 29 79.5 45t88.5 16q62 0 113.5 -27t81.5 -75t30 -108q0 -66 -40 -118.5t-116 -74.5v-90h-108v154z" />
    <glyph glyph-name="uni1ECA" unicode="&#x1eca;" horiz-adv-x="608" 
d="M217 1536h174v-1536h-174v1536zM222 -337.5q-34 33.5 -34 81.5q0 30 16 56.5t42.5 42t56.5 15.5t56.5 -15.5t42 -42t15.5 -56.5q0 -48 -34 -81.5t-80 -33.5q-47 0 -81 33.5z" />
    <glyph glyph-name="uni1ECB" unicode="&#x1ecb;" horiz-adv-x="514" 
d="M178.5 1173.5q-33.5 32.5 -33.5 77.5q0 47 33.5 79t79.5 32q45 0 78 -32t33 -79q0 -45 -33 -77.5t-78 -32.5q-46 0 -79.5 32.5zM174 963h166v-963h-166v963zM167 -478.5q-34 33.5 -34 81.5q0 30 16 56.5t42.5 42t56.5 15.5t56.5 -15.5t42 -42t15.5 -56.5q0 -48 -34 -81.5
t-80 -33.5q-47 0 -81 33.5z" />
    <glyph glyph-name="uni1ECC" unicode="&#x1ecc;" horiz-adv-x="1765" 
d="M487 86q-181 106 -287 286.5t-106 395.5t106 395.5t287 286.5t396 106q214 0 395 -106t287 -287t106 -395t-106 -395t-287 -287t-395 -106q-215 0 -396 106zM1192 236q141 82 223 223t82 309t-82 309t-223 223t-309 82q-167 0 -308.5 -82t-224 -223t-82.5 -309t82.5 -309
t224 -223t308.5 -82q168 0 309 82zM802 -337.5q-34 33.5 -34 81.5q0 30 16 56.5t42.5 42t56.5 15.5t56.5 -15.5t42 -42t15.5 -56.5q0 -48 -34 -81.5t-80 -33.5q-47 0 -81 33.5z" />
    <glyph glyph-name="uni1ECD" unicode="&#x1ecd;" horiz-adv-x="1155" 
d="M324.5 49q-115.5 67 -183 181.5t-67.5 250.5t67.5 251t183 182t253.5 67q137 0 252 -67t182 -182t67 -251t-67 -250.5t-182 -181.5t-252 -67q-138 0 -253.5 67zM745 190q76 45 121 122.5t45 168.5q0 92 -44.5 169t-121 122t-167.5 45q-93 0 -170 -45t-121.5 -122
t-44.5 -169t44.5 -169t121.5 -122t170 -45q91 0 167 45zM497 -337.5q-34 33.5 -34 81.5q0 30 16 56.5t42.5 42t56.5 15.5t56.5 -15.5t42 -42t15.5 -56.5q0 -48 -34 -81.5t-80 -33.5q-47 0 -81 33.5z" />
    <glyph glyph-name="uni1ECE" unicode="&#x1ece;" horiz-adv-x="1765" 
d="M487 86q-181 106 -287 286.5t-106 395.5t106 395.5t287 286.5t396 106q214 0 395 -106t287 -287t106 -395t-106 -395t-287 -287t-395 -106q-215 0 -396 106zM1192 236q141 82 223 223t82 309t-82 309t-223 223t-309 82q-167 0 -308.5 -82t-224 -223t-82.5 -309t82.5 -309
t224 -223t308.5 -82q168 0 309 82zM828 1790q143 29 143 129q0 39 -27.5 65.5t-72.5 26.5q-54 0 -107 -35l-65 92q36 29 79.5 45t88.5 16q62 0 113.5 -27t81.5 -75t30 -108q0 -66 -40 -118.5t-116 -74.5v-90h-108v154z" />
    <glyph glyph-name="uni1ECF" unicode="&#x1ecf;" horiz-adv-x="1155" 
d="M324.5 49q-115.5 67 -183 181.5t-67.5 250.5t67.5 251t183 182t253.5 67q137 0 252 -67t182 -182t67 -251t-67 -250.5t-182 -181.5t-252 -67q-138 0 -253.5 67zM745 190q76 45 121 122.5t45 168.5q0 92 -44.5 169t-121 122t-167.5 45q-93 0 -170 -45t-121.5 -122
t-44.5 -169t44.5 -169t121.5 -122t170 -45q91 0 167 45zM523 1217q143 29 143 129q0 39 -27.5 65.5t-72.5 26.5q-54 0 -107 -35l-65 92q36 29 79.5 45t88.5 16q62 0 113.5 -27t81.5 -75t30 -108q0 -66 -40 -118.5t-116 -74.5v-90h-108v154z" />
    <glyph glyph-name="uni1ED0" unicode="&#x1ed0;" horiz-adv-x="1765" 
d="M487 86q-181 106 -287 286.5t-106 395.5t106 395.5t287 286.5t396 106q214 0 395 -106t287 -287t106 -395t-106 -395t-287 -287t-395 -106q-215 0 -396 106zM1192 236q141 82 223 223t82 309t-82 309t-223 223t-309 82q-167 0 -308.5 -82t-224 -223t-82.5 -309t82.5 -309
t224 -223t308.5 -82q168 0 309 82zM594 1710l200 297h173l202 -297l-86 -51l-200 237l-205 -237zM773 2197l303 326l96 -108l-333 -289z" />
    <glyph glyph-name="uni1ED1" unicode="&#x1ed1;" horiz-adv-x="1155" 
d="M324.5 49q-115.5 67 -183 181.5t-67.5 250.5t67.5 251t183 182t253.5 67q137 0 252 -67t182 -182t67 -251t-67 -250.5t-182 -181.5t-252 -67q-138 0 -253.5 67zM745 190q76 45 121 122.5t45 168.5q0 92 -44.5 169t-121 122t-167.5 45q-93 0 -170 -45t-121.5 -122
t-44.5 -169t44.5 -169t121.5 -122t170 -45q91 0 167 45zM289 1137l200 297h173l202 -297l-86 -51l-200 237l-205 -237zM468 1624l303 326l96 -108l-333 -289z" />
    <glyph glyph-name="uni1ED2" unicode="&#x1ed2;" horiz-adv-x="1765" 
d="M487 86q-181 106 -287 286.5t-106 395.5t106 395.5t287 286.5t396 106q214 0 395 -106t287 -287t106 -395t-106 -395t-287 -287t-395 -106q-215 0 -396 106zM1192 236q141 82 223 223t82 309t-82 309t-223 223t-309 82q-167 0 -308.5 -82t-224 -223t-82.5 -309t82.5 -309
t224 -223t308.5 -82q168 0 309 82zM594 1710l200 297h173l202 -297l-86 -51l-200 237l-205 -237zM546 2415l98 108l301 -326l-63 -71z" />
    <glyph glyph-name="uni1ED3" unicode="&#x1ed3;" horiz-adv-x="1155" 
d="M324.5 49q-115.5 67 -183 181.5t-67.5 250.5t67.5 251t183 182t253.5 67q137 0 252 -67t182 -182t67 -251t-67 -250.5t-182 -181.5t-252 -67q-138 0 -253.5 67zM745 190q76 45 121 122.5t45 168.5q0 92 -44.5 169t-121 122t-167.5 45q-93 0 -170 -45t-121.5 -122
t-44.5 -169t44.5 -169t121.5 -122t170 -45q91 0 167 45zM289 1137l200 297h173l202 -297l-86 -51l-200 237l-205 -237zM241 1842l98 108l301 -326l-63 -71z" />
    <glyph glyph-name="uni1ED4" unicode="&#x1ed4;" horiz-adv-x="1765" 
d="M487 86q-181 106 -287 286.5t-106 395.5t106 395.5t287 286.5t396 106q214 0 395 -106t287 -287t106 -395t-106 -395t-287 -287t-395 -106q-215 0 -396 106zM1192 236q141 82 223 223t82 309t-82 309t-223 223t-309 82q-167 0 -308.5 -82t-224 -223t-82.5 -309t82.5 -309
t224 -223t308.5 -82q168 0 309 82zM594 1710l200 297h173l202 -297l-86 -51l-200 237l-205 -237zM825 2261q143 29 143 129q0 39 -27.5 65.5t-72.5 26.5q-54 0 -107 -35l-65 92q36 29 79.5 45t88.5 16q62 0 113.5 -27t81.5 -75t30 -108q0 -66 -40 -118.5t-116 -74.5v-90
h-108v154z" />
    <glyph glyph-name="uni1ED5" unicode="&#x1ed5;" horiz-adv-x="1155" 
d="M324.5 49q-115.5 67 -183 181.5t-67.5 250.5t67.5 251t183 182t253.5 67q137 0 252 -67t182 -182t67 -251t-67 -250.5t-182 -181.5t-252 -67q-138 0 -253.5 67zM745 190q76 45 121 122.5t45 168.5q0 92 -44.5 169t-121 122t-167.5 45q-93 0 -170 -45t-121.5 -122
t-44.5 -169t44.5 -169t121.5 -122t170 -45q91 0 167 45zM289 1137l200 297h173l202 -297l-86 -51l-200 237l-205 -237zM520 1688q143 29 143 129q0 39 -27.5 65.5t-72.5 26.5q-54 0 -107 -35l-65 92q36 29 79.5 45t88.5 16q62 0 113.5 -27t81.5 -75t30 -108
q0 -66 -40 -118.5t-116 -74.5v-90h-108v154z" />
    <glyph glyph-name="uni1ED6" unicode="&#x1ed6;" horiz-adv-x="1765" 
d="M487 86q-181 106 -287 286.5t-106 395.5t106 395.5t287 286.5t396 106q214 0 395 -106t287 -287t106 -395t-106 -395t-287 -287t-395 -106q-215 0 -396 106zM1192 236q141 82 223 223t82 309t-82 309t-223 223t-309 82q-167 0 -308.5 -82t-224 -223t-82.5 -309t82.5 -309
t224 -223t308.5 -82q168 0 309 82zM594 1710l200 297h173l202 -297l-86 -51l-200 237l-205 -237zM905.5 2142.5q-44.5 31.5 -78.5 81.5q-20 30 -39 42.5t-43 12.5q-47 0 -72.5 -45t-25.5 -114h-125q0 80 26.5 144t76 101t116.5 37q62 0 107 -30.5t81 -81.5
q19 -27 37.5 -41.5t48.5 -14.5q47 0 72 40.5t25 119.5h123q0 -80 -25.5 -144.5t-75 -101.5t-119.5 -37q-65 0 -109.5 31.5z" />
    <glyph glyph-name="uni1ED7" unicode="&#x1ed7;" horiz-adv-x="1155" 
d="M324.5 49q-115.5 67 -183 181.5t-67.5 250.5t67.5 251t183 182t253.5 67q137 0 252 -67t182 -182t67 -251t-67 -250.5t-182 -181.5t-252 -67q-138 0 -253.5 67zM745 190q76 45 121 122.5t45 168.5q0 92 -44.5 169t-121 122t-167.5 45q-93 0 -170 -45t-121.5 -122
t-44.5 -169t44.5 -169t121.5 -122t170 -45q91 0 167 45zM289 1137l200 297h173l202 -297l-86 -51l-200 237l-205 -237zM600.5 1569.5q-44.5 31.5 -78.5 81.5q-20 30 -39 42.5t-43 12.5q-47 0 -72.5 -45t-25.5 -114h-125q0 80 26.5 144t76 101t116.5 37q62 0 107 -30.5
t81 -81.5q19 -27 37.5 -41.5t48.5 -14.5q47 0 72 40.5t25 119.5h123q0 -80 -25.5 -144.5t-75 -101.5t-119.5 -37q-65 0 -109.5 31.5z" />
    <glyph glyph-name="uni1ED8" unicode="&#x1ed8;" horiz-adv-x="1765" 
d="M487 86q-181 106 -287 286.5t-106 395.5t106 395.5t287 286.5t396 106q214 0 395 -106t287 -287t106 -395t-106 -395t-287 -287t-395 -106q-215 0 -396 106zM1192 236q141 82 223 223t82 309t-82 309t-223 223t-309 82q-167 0 -308.5 -82t-224 -223t-82.5 -309t82.5 -309
t224 -223t308.5 -82q168 0 309 82zM802 -337.5q-34 33.5 -34 81.5q0 30 16 56.5t42.5 42t56.5 15.5t56.5 -15.5t42 -42t15.5 -56.5q0 -48 -34 -81.5t-80 -33.5q-47 0 -81 33.5zM594 1710l200 297h173l202 -297l-86 -51l-200 237l-205 -237z" />
    <glyph glyph-name="uni1ED9" unicode="&#x1ed9;" horiz-adv-x="1155" 
d="M324.5 49q-115.5 67 -183 181.5t-67.5 250.5t67.5 251t183 182t253.5 67q137 0 252 -67t182 -182t67 -251t-67 -250.5t-182 -181.5t-252 -67q-138 0 -253.5 67zM745 190q76 45 121 122.5t45 168.5q0 92 -44.5 169t-121 122t-167.5 45q-93 0 -170 -45t-121.5 -122
t-44.5 -169t44.5 -169t121.5 -122t170 -45q91 0 167 45zM497 -337.5q-34 33.5 -34 81.5q0 30 16 56.5t42.5 42t56.5 15.5t56.5 -15.5t42 -42t15.5 -56.5q0 -48 -34 -81.5t-80 -33.5q-47 0 -81 33.5zM289 1137l200 297h173l202 -297l-86 -51l-200 237l-205 -237z" />
    <glyph glyph-name="uni1EDA" unicode="&#x1eda;" horiz-adv-x="1765" 
d="M1770 1504v-125q0 -123 -53.5 -184.5t-132.5 -65.5q87 -168 87 -361q0 -214 -106 -395t-287 -287t-395 -106q-215 0 -396 106t-287 286.5t-106 395.5t106 395.5t287 286.5t396 106q201 0 374 -94t281 -255q47 4 68.5 45t21.5 88v164h142zM1192 236q141 82 223 223t82 309
t-82 309t-223 223t-309 82q-167 0 -308.5 -82t-224 -223t-82.5 -309t82.5 -309t224 -223t308.5 -82q168 0 309 82zM776 1726l303 326l96 -108l-333 -289z" />
    <glyph glyph-name="uni1EDB" unicode="&#x1edb;" horiz-adv-x="1155" 
d="M1274 1014v-125q0 -87 -27.5 -143t-72 -81.5t-97.5 -25.5q-15 0 -24 1q26 -76 26 -159q0 -136 -67 -250.5t-182 -181.5t-252 -67q-138 0 -253.5 67t-183 181.5t-67.5 250.5t67.5 251t183 182t253.5 67q142 0 260 -71.5t182 -191.5q5 -1 14 -1q51 0 74.5 42t23.5 91v164
h142zM745 190q76 45 121 122.5t45 168.5q0 92 -44.5 169t-121 122t-167.5 45q-93 0 -170 -45t-121.5 -122t-44.5 -169t44.5 -169t121.5 -122t170 -45q91 0 167 45zM471 1153l303 326l96 -108l-333 -289z" />
    <glyph glyph-name="uni1EDC" unicode="&#x1edc;" horiz-adv-x="1765" 
d="M1770 1504v-125q0 -123 -53.5 -184.5t-132.5 -65.5q87 -168 87 -361q0 -214 -106 -395t-287 -287t-395 -106q-215 0 -396 106t-287 286.5t-106 395.5t106 395.5t287 286.5t396 106q201 0 374 -94t281 -255q47 4 68.5 45t21.5 88v164h142zM1192 236q141 82 223 223t82 309
t-82 309t-223 223t-309 82q-167 0 -308.5 -82t-224 -223t-82.5 -309t82.5 -309t224 -223t308.5 -82q168 0 309 82zM549 1944l98 108l301 -326l-63 -71z" />
    <glyph glyph-name="uni1EDD" unicode="&#x1edd;" horiz-adv-x="1155" 
d="M1274 1014v-125q0 -87 -27.5 -143t-72 -81.5t-97.5 -25.5q-15 0 -24 1q26 -76 26 -159q0 -136 -67 -250.5t-182 -181.5t-252 -67q-138 0 -253.5 67t-183 181.5t-67.5 250.5t67.5 251t183 182t253.5 67q142 0 260 -71.5t182 -191.5q5 -1 14 -1q51 0 74.5 42t23.5 91v164
h142zM745 190q76 45 121 122.5t45 168.5q0 92 -44.5 169t-121 122t-167.5 45q-93 0 -170 -45t-121.5 -122t-44.5 -169t44.5 -169t121.5 -122t170 -45q91 0 167 45zM244 1371l98 108l301 -326l-63 -71z" />
    <glyph glyph-name="uni1EDE" unicode="&#x1ede;" horiz-adv-x="1765" 
d="M1770 1504v-125q0 -123 -53.5 -184.5t-132.5 -65.5q87 -168 87 -361q0 -214 -106 -395t-287 -287t-395 -106q-215 0 -396 106t-287 286.5t-106 395.5t106 395.5t287 286.5t396 106q201 0 374 -94t281 -255q47 4 68.5 45t21.5 88v164h142zM1192 236q141 82 223 223t82 309
t-82 309t-223 223t-309 82q-167 0 -308.5 -82t-224 -223t-82.5 -309t82.5 -309t224 -223t308.5 -82q168 0 309 82zM828 1790q143 29 143 129q0 39 -27.5 65.5t-72.5 26.5q-54 0 -107 -35l-65 92q36 29 79.5 45t88.5 16q62 0 113.5 -27t81.5 -75t30 -108q0 -66 -40 -118.5
t-116 -74.5v-90h-108v154z" />
    <glyph glyph-name="uni1EDF" unicode="&#x1edf;" horiz-adv-x="1155" 
d="M1274 1014v-125q0 -87 -27.5 -143t-72 -81.5t-97.5 -25.5q-15 0 -24 1q26 -76 26 -159q0 -136 -67 -250.5t-182 -181.5t-252 -67q-138 0 -253.5 67t-183 181.5t-67.5 250.5t67.5 251t183 182t253.5 67q142 0 260 -71.5t182 -191.5q5 -1 14 -1q51 0 74.5 42t23.5 91v164
h142zM745 190q76 45 121 122.5t45 168.5q0 92 -44.5 169t-121 122t-167.5 45q-93 0 -170 -45t-121.5 -122t-44.5 -169t44.5 -169t121.5 -122t170 -45q91 0 167 45zM523 1217q143 29 143 129q0 39 -27.5 65.5t-72.5 26.5q-54 0 -107 -35l-65 92q36 29 79.5 45t88.5 16
q62 0 113.5 -27t81.5 -75t30 -108q0 -66 -40 -118.5t-116 -74.5v-90h-108v154z" />
    <glyph glyph-name="uni1EE0" unicode="&#x1ee0;" horiz-adv-x="1765" 
d="M1770 1504v-125q0 -123 -53.5 -184.5t-132.5 -65.5q87 -168 87 -361q0 -214 -106 -395t-287 -287t-395 -106q-215 0 -396 106t-287 286.5t-106 395.5t106 395.5t287 286.5t396 106q201 0 374 -94t281 -255q47 4 68.5 45t21.5 88v164h142zM1192 236q141 82 223 223t82 309
t-82 309t-223 223t-309 82q-167 0 -308.5 -82t-224 -223t-82.5 -309t82.5 -309t224 -223t308.5 -82q168 0 309 82zM908.5 1671.5q-44.5 31.5 -78.5 81.5q-20 30 -39 42.5t-43 12.5q-47 0 -72.5 -45t-25.5 -114h-125q0 80 26.5 144t76 101t116.5 37q62 0 107 -30.5t81 -81.5
q19 -27 37.5 -41.5t48.5 -14.5q47 0 72 40.5t25 119.5h123q0 -80 -25.5 -144.5t-75 -101.5t-119.5 -37q-65 0 -109.5 31.5z" />
    <glyph glyph-name="uni1EE1" unicode="&#x1ee1;" horiz-adv-x="1155" 
d="M1274 1014v-125q0 -87 -27.5 -143t-72 -81.5t-97.5 -25.5q-15 0 -24 1q26 -76 26 -159q0 -136 -67 -250.5t-182 -181.5t-252 -67q-138 0 -253.5 67t-183 181.5t-67.5 250.5t67.5 251t183 182t253.5 67q142 0 260 -71.5t182 -191.5q5 -1 14 -1q51 0 74.5 42t23.5 91v164
h142zM745 190q76 45 121 122.5t45 168.5q0 92 -44.5 169t-121 122t-167.5 45q-93 0 -170 -45t-121.5 -122t-44.5 -169t44.5 -169t121.5 -122t170 -45q91 0 167 45zM603.5 1098.5q-44.5 31.5 -78.5 81.5q-20 30 -39 42.5t-43 12.5q-47 0 -72.5 -45t-25.5 -114h-125
q0 80 26.5 144t76 101t116.5 37q62 0 107 -30.5t81 -81.5q19 -27 37.5 -41.5t48.5 -14.5q47 0 72 40.5t25 119.5h123q0 -80 -25.5 -144.5t-75 -101.5t-119.5 -37q-65 0 -109.5 31.5z" />
    <glyph glyph-name="uni1EE2" unicode="&#x1ee2;" horiz-adv-x="1765" 
d="M1770 1504v-125q0 -123 -53.5 -184.5t-132.5 -65.5q87 -168 87 -361q0 -214 -106 -395t-287 -287t-395 -106q-215 0 -396 106t-287 286.5t-106 395.5t106 395.5t287 286.5t396 106q201 0 374 -94t281 -255q47 4 68.5 45t21.5 88v164h142zM1192 236q141 82 223 223t82 309
t-82 309t-223 223t-309 82q-167 0 -308.5 -82t-224 -223t-82.5 -309t82.5 -309t224 -223t308.5 -82q168 0 309 82zM802 -337.5q-34 33.5 -34 81.5q0 30 16 56.5t42.5 42t56.5 15.5t56.5 -15.5t42 -42t15.5 -56.5q0 -48 -34 -81.5t-80 -33.5q-47 0 -81 33.5z" />
    <glyph glyph-name="uni1EE3" unicode="&#x1ee3;" horiz-adv-x="1155" 
d="M1274 1014v-125q0 -87 -27.5 -143t-72 -81.5t-97.5 -25.5q-15 0 -24 1q26 -76 26 -159q0 -136 -67 -250.5t-182 -181.5t-252 -67q-138 0 -253.5 67t-183 181.5t-67.5 250.5t67.5 251t183 182t253.5 67q142 0 260 -71.5t182 -191.5q5 -1 14 -1q51 0 74.5 42t23.5 91v164
h142zM745 190q76 45 121 122.5t45 168.5q0 92 -44.5 169t-121 122t-167.5 45q-93 0 -170 -45t-121.5 -122t-44.5 -169t44.5 -169t121.5 -122t170 -45q91 0 167 45zM497 -337.5q-34 33.5 -34 81.5q0 30 16 56.5t42.5 42t56.5 15.5t56.5 -15.5t42 -42t15.5 -56.5
q0 -48 -34 -81.5t-80 -33.5q-47 0 -81 33.5z" />
    <glyph glyph-name="uni1EE4" unicode="&#x1ee4;" horiz-adv-x="1526" 
d="M464 47.5q-132 67.5 -207 187t-75 269.5v1032h174v-1004q0 -108 52 -194.5t145 -135t209 -48.5t209 49t145.5 135t52.5 194v1004h174v-1032q0 -150 -74.5 -269.5t-207 -187t-299.5 -67.5q-166 0 -298 67.5zM681 -337.5q-34 33.5 -34 81.5q0 30 16 56.5t42.5 42t56.5 15.5
t56.5 -15.5t42 -42t15.5 -56.5q0 -48 -34 -81.5t-80 -33.5q-47 0 -81 33.5z" />
    <glyph glyph-name="uni1EE5" unicode="&#x1ee5;" horiz-adv-x="1032" 
d="M321.5 26.5q-83.5 44.5 -129 127.5t-45.5 194v615h168v-596q0 -68 25.5 -118t71 -77t104.5 -27t104.5 27t71 77t25.5 118v596h168v-615q0 -111 -45.5 -194t-129 -127.5t-194.5 -44.5t-194.5 44.5zM435 -337.5q-34 33.5 -34 81.5q0 30 16 56.5t42.5 42t56.5 15.5
t56.5 -15.5t42 -42t15.5 -56.5q0 -48 -34 -81.5t-80 -33.5q-47 0 -81 33.5z" />
    <glyph glyph-name="uni1EE6" unicode="&#x1ee6;" horiz-adv-x="1526" 
d="M464 47.5q-132 67.5 -207 187t-75 269.5v1032h174v-1004q0 -108 52 -194.5t145 -135t209 -48.5t209 49t145.5 135t52.5 194v1004h174v-1032q0 -150 -74.5 -269.5t-207 -187t-299.5 -67.5q-166 0 -298 67.5zM707 1790q143 29 143 129q0 39 -27.5 65.5t-72.5 26.5
q-54 0 -107 -35l-65 92q36 29 79.5 45t88.5 16q62 0 113.5 -27t81.5 -75t30 -108q0 -66 -40 -118.5t-116 -74.5v-90h-108v154z" />
    <glyph glyph-name="uni1EE7" unicode="&#x1ee7;" horiz-adv-x="1032" 
d="M321.5 26.5q-83.5 44.5 -129 127.5t-45.5 194v615h168v-596q0 -68 25.5 -118t71 -77t104.5 -27t104.5 27t71 77t25.5 118v596h168v-615q0 -111 -45.5 -194t-129 -127.5t-194.5 -44.5t-194.5 44.5zM461 1217q143 29 143 129q0 39 -27.5 65.5t-72.5 26.5q-54 0 -107 -35
l-65 92q36 29 79.5 45t88.5 16q62 0 113.5 -27t81.5 -75t30 -108q0 -66 -40 -118.5t-116 -74.5v-90h-108v154z" />
    <glyph glyph-name="uni1EE8" unicode="&#x1ee8;" horiz-adv-x="1679" 
d="M1592 1538v-125q0 -87 -27.5 -143t-72 -81.5t-97.5 -25.5q-20 0 -52 5v-664q0 -150 -74.5 -269.5t-207 -187t-299.5 -67.5q-166 0 -298 67.5t-207 187t-75 269.5v1032h174v-1004q0 -108 52 -194.5t145 -135t209 -48.5t209 49t145.5 135t52.5 194v1004h174v-295h9
q51 0 74.5 42t23.5 91v164h142zM655 1726l303 326l96 -108l-333 -289z" />
    <glyph glyph-name="uni1EE9" unicode="&#x1ee9;" horiz-adv-x="1032" 
d="M1188 963v-125q0 -87 -27.5 -143t-72 -81.5t-97.5 -25.5q-49 0 -106 18v-258q0 -111 -45.5 -194t-129 -127.5t-194.5 -44.5t-194.5 44.5t-129 127.5t-45.5 194v615h168v-596q0 -68 25.5 -118t71 -77t104.5 -27t104.5 27t71 77t25.5 118v596h168v-284q34 -13 63 -13
q51 0 74.5 42t23.5 91v164h142zM409 1153l303 326l96 -108l-333 -289z" />
    <glyph glyph-name="uni1EEA" unicode="&#x1eea;" horiz-adv-x="1679" 
d="M1592 1538v-125q0 -87 -27.5 -143t-72 -81.5t-97.5 -25.5q-20 0 -52 5v-664q0 -150 -74.5 -269.5t-207 -187t-299.5 -67.5q-166 0 -298 67.5t-207 187t-75 269.5v1032h174v-1004q0 -108 52 -194.5t145 -135t209 -48.5t209 49t145.5 135t52.5 194v1004h174v-295h9
q51 0 74.5 42t23.5 91v164h142zM428 1944l98 108l301 -326l-63 -71z" />
    <glyph glyph-name="uni1EEB" unicode="&#x1eeb;" horiz-adv-x="1032" 
d="M1188 963v-125q0 -87 -27.5 -143t-72 -81.5t-97.5 -25.5q-49 0 -106 18v-258q0 -111 -45.5 -194t-129 -127.5t-194.5 -44.5t-194.5 44.5t-129 127.5t-45.5 194v615h168v-596q0 -68 25.5 -118t71 -77t104.5 -27t104.5 27t71 77t25.5 118v596h168v-284q34 -13 63 -13
q51 0 74.5 42t23.5 91v164h142zM182 1371l98 108l301 -326l-63 -71z" />
    <glyph glyph-name="uni1EEC" unicode="&#x1eec;" horiz-adv-x="1679" 
d="M1592 1538v-125q0 -87 -27.5 -143t-72 -81.5t-97.5 -25.5q-20 0 -52 5v-664q0 -150 -74.5 -269.5t-207 -187t-299.5 -67.5q-166 0 -298 67.5t-207 187t-75 269.5v1032h174v-1004q0 -108 52 -194.5t145 -135t209 -48.5t209 49t145.5 135t52.5 194v1004h174v-295h9
q51 0 74.5 42t23.5 91v164h142zM707 1790q143 29 143 129q0 39 -27.5 65.5t-72.5 26.5q-54 0 -107 -35l-65 92q36 29 79.5 45t88.5 16q62 0 113.5 -27t81.5 -75t30 -108q0 -66 -40 -118.5t-116 -74.5v-90h-108v154z" />
    <glyph glyph-name="uni1EED" unicode="&#x1eed;" horiz-adv-x="1032" 
d="M1188 963v-125q0 -87 -27.5 -143t-72 -81.5t-97.5 -25.5q-49 0 -106 18v-258q0 -111 -45.5 -194t-129 -127.5t-194.5 -44.5t-194.5 44.5t-129 127.5t-45.5 194v615h168v-596q0 -68 25.5 -118t71 -77t104.5 -27t104.5 27t71 77t25.5 118v596h168v-284q34 -13 63 -13
q51 0 74.5 42t23.5 91v164h142zM461 1217q143 29 143 129q0 39 -27.5 65.5t-72.5 26.5q-54 0 -107 -35l-65 92q36 29 79.5 45t88.5 16q62 0 113.5 -27t81.5 -75t30 -108q0 -66 -40 -118.5t-116 -74.5v-90h-108v154z" />
    <glyph glyph-name="uni1EEE" unicode="&#x1eee;" horiz-adv-x="1679" 
d="M1592 1538v-125q0 -87 -27.5 -143t-72 -81.5t-97.5 -25.5q-20 0 -52 5v-664q0 -150 -74.5 -269.5t-207 -187t-299.5 -67.5q-166 0 -298 67.5t-207 187t-75 269.5v1032h174v-1004q0 -108 52 -194.5t145 -135t209 -48.5t209 49t145.5 135t52.5 194v1004h174v-295h9
q51 0 74.5 42t23.5 91v164h142zM787.5 1671.5q-44.5 31.5 -78.5 81.5q-20 30 -39 42.5t-43 12.5q-47 0 -72.5 -45t-25.5 -114h-125q0 80 26.5 144t76 101t116.5 37q62 0 107 -30.5t81 -81.5q19 -27 37.5 -41.5t48.5 -14.5q47 0 72 40.5t25 119.5h123q0 -80 -25.5 -144.5
t-75 -101.5t-119.5 -37q-65 0 -109.5 31.5z" />
    <glyph glyph-name="uni1EEF" unicode="&#x1eef;" horiz-adv-x="1032" 
d="M1188 963v-125q0 -87 -27.5 -143t-72 -81.5t-97.5 -25.5q-49 0 -106 18v-258q0 -111 -45.5 -194t-129 -127.5t-194.5 -44.5t-194.5 44.5t-129 127.5t-45.5 194v615h168v-596q0 -68 25.5 -118t71 -77t104.5 -27t104.5 27t71 77t25.5 118v596h168v-284q34 -13 63 -13
q51 0 74.5 42t23.5 91v164h142zM541.5 1098.5q-44.5 31.5 -78.5 81.5q-20 30 -39 42.5t-43 12.5q-47 0 -72.5 -45t-25.5 -114h-125q0 80 26.5 144t76 101t116.5 37q62 0 107 -30.5t81 -81.5q19 -27 37.5 -41.5t48.5 -14.5q47 0 72 40.5t25 119.5h123q0 -80 -25.5 -144.5
t-75 -101.5t-119.5 -37q-65 0 -109.5 31.5z" />
    <glyph glyph-name="uni1EF0" unicode="&#x1ef0;" horiz-adv-x="1679" 
d="M1592 1538v-125q0 -87 -27.5 -143t-72 -81.5t-97.5 -25.5q-20 0 -52 5v-664q0 -150 -74.5 -269.5t-207 -187t-299.5 -67.5q-166 0 -298 67.5t-207 187t-75 269.5v1032h174v-1004q0 -108 52 -194.5t145 -135t209 -48.5t209 49t145.5 135t52.5 194v1004h174v-295h9
q51 0 74.5 42t23.5 91v164h142zM681 -337.5q-34 33.5 -34 81.5q0 30 16 56.5t42.5 42t56.5 15.5t56.5 -15.5t42 -42t15.5 -56.5q0 -48 -34 -81.5t-80 -33.5q-47 0 -81 33.5z" />
    <glyph glyph-name="uni1EF1" unicode="&#x1ef1;" horiz-adv-x="1032" 
d="M1188 963v-125q0 -87 -27.5 -143t-72 -81.5t-97.5 -25.5q-49 0 -106 18v-258q0 -111 -45.5 -194t-129 -127.5t-194.5 -44.5t-194.5 44.5t-129 127.5t-45.5 194v615h168v-596q0 -68 25.5 -118t71 -77t104.5 -27t104.5 27t71 77t25.5 118v596h168v-284q34 -13 63 -13
q51 0 74.5 42t23.5 91v164h142zM435 -337.5q-34 33.5 -34 81.5q0 30 16 56.5t42.5 42t56.5 15.5t56.5 -15.5t42 -42t15.5 -56.5q0 -48 -34 -81.5t-80 -33.5q-47 0 -81 33.5z" />
    <glyph glyph-name="Ygrave" unicode="&#x1ef2;" horiz-adv-x="1270" 
d="M723 728v-728h-174v725l-537 811h217l407 -629l408 629h213zM303 1944l98 108l301 -326l-63 -71z" />
    <glyph glyph-name="ygrave" unicode="&#x1ef3;" horiz-adv-x="985" 
d="M971 963l-584 -1455h-178l194 492l-391 963h187l300 -773l283 773h189zM147 1371l98 108l301 -326l-63 -71z" />
    <glyph glyph-name="uni1EF4" unicode="&#x1ef4;" horiz-adv-x="1270" 
d="M723 728v-728h-174v725l-537 811h217l407 -629l408 629h213zM556 -337.5q-34 33.5 -34 81.5q0 30 16 56.5t42.5 42t56.5 15.5t56.5 -15.5t42 -42t15.5 -56.5q0 -48 -34 -81.5t-80 -33.5q-47 0 -81 33.5z" />
    <glyph glyph-name="uni1EF5" unicode="&#x1ef5;" horiz-adv-x="985" 
d="M971 963l-584 -1455h-178l194 492l-391 963h187l300 -773l283 773h189zM664 -464.5q-34 33.5 -34 81.5q0 30 16 56.5t42.5 42t56.5 15.5t56.5 -15.5t42 -42t15.5 -56.5q0 -48 -34 -81.5t-80 -33.5q-47 0 -81 33.5z" />
    <glyph glyph-name="uni1EF6" unicode="&#x1ef6;" horiz-adv-x="1270" 
d="M723 728v-728h-174v725l-537 811h217l407 -629l408 629h213zM582 1790q143 29 143 129q0 39 -27.5 65.5t-72.5 26.5q-54 0 -107 -35l-65 92q36 29 79.5 45t88.5 16q62 0 113.5 -27t81.5 -75t30 -108q0 -66 -40 -118.5t-116 -74.5v-90h-108v154z" />
    <glyph glyph-name="uni1EF7" unicode="&#x1ef7;" horiz-adv-x="985" 
d="M971 963l-584 -1455h-178l194 492l-391 963h187l300 -773l283 773h189zM426 1217q143 29 143 129q0 39 -27.5 65.5t-72.5 26.5q-54 0 -107 -35l-65 92q36 29 79.5 45t88.5 16q62 0 113.5 -27t81.5 -75t30 -108q0 -66 -40 -118.5t-116 -74.5v-90h-108v154z" />
    <glyph glyph-name="uni1EF8" unicode="&#x1ef8;" horiz-adv-x="1270" 
d="M723 728v-728h-174v725l-537 811h217l407 -629l408 629h213zM662.5 1671.5q-44.5 31.5 -78.5 81.5q-20 30 -39 42.5t-43 12.5q-47 0 -72.5 -45t-25.5 -114h-125q0 80 26.5 144t76 101t116.5 37q62 0 107 -30.5t81 -81.5q19 -27 37.5 -41.5t48.5 -14.5q47 0 72 40.5
t25 119.5h123q0 -80 -25.5 -144.5t-75 -101.5t-119.5 -37q-65 0 -109.5 31.5z" />
    <glyph glyph-name="uni1EF9" unicode="&#x1ef9;" horiz-adv-x="985" 
d="M971 963l-584 -1455h-178l194 492l-391 963h187l300 -773l283 773h189zM506.5 1098.5q-44.5 31.5 -78.5 81.5q-20 30 -39 42.5t-43 12.5q-47 0 -72.5 -45t-25.5 -114h-125q0 80 26.5 144t76 101t116.5 37q62 0 107 -30.5t81 -81.5q19 -27 37.5 -41.5t48.5 -14.5
q47 0 72 40.5t25 119.5h123q0 -80 -25.5 -144.5t-75 -101.5t-119.5 -37q-65 0 -109.5 31.5z" />
    <glyph glyph-name="endash" unicode="&#x2013;" horiz-adv-x="1352" 
d="M164 547h1024v-131h-1024v131z" />
    <glyph glyph-name="emdash" unicode="&#x2014;" horiz-adv-x="2048" 
d="M0 547h2048v-131h-2048v131z" />
    <glyph glyph-name="quoteleft" unicode="&#x2018;" horiz-adv-x="563" 
d="M350 1123.5q17 -26.5 17 -58.5q0 -30 -16 -56.5t-42.5 -42.5t-56.5 -16q-46 0 -80.5 34.5t-34.5 80.5q0 18 4 31l150 440h125l-110 -371q27 -15 44 -41.5z" />
    <glyph glyph-name="quoteright" unicode="&#x2019;" horiz-adv-x="565" 
d="M422 1411l-150 -440h-125l110 371q-27 15 -44 41.5t-17 58.5q0 30 16 56.5t42.5 42.5t56.5 16q47 0 81 -34t34 -81q0 -18 -4 -31z" />
    <glyph glyph-name="quotesinglbase" unicode="&#x201a;" horiz-adv-x="565" 
d="M422 63l-150 -440h-125l110 371q-27 15 -44 41.5t-17 58.5q0 30 16 56.5t42.5 42.5t56.5 16q47 0 81 -34t34 -81q0 -18 -4 -31z" />
    <glyph glyph-name="quotedblleft" unicode="&#x201c;" horiz-adv-x="936" 
d="M141 1096l150 440h125l-110 -371q27 -15 44 -41.5t17 -58.5q0 -30 -16 -56.5t-42.5 -42.5t-56.5 -16q-47 0 -81 34t-34 81q0 18 4 31zM514 1096l150 440h125l-110 -371q27 -15 44 -41.5t17 -58.5q0 -30 -16 -56.5t-42.5 -42.5t-56.5 -16q-47 0 -81 34t-34 81q0 18 4 31z
" />
    <glyph glyph-name="quotedblright" unicode="&#x201d;" horiz-adv-x="948" 
d="M807 1411l-150 -440h-125l110 371q-27 15 -44 41.5t-17 58.5q0 30 16 56.5t42.5 42.5t56.5 16q47 0 81 -34t34 -81q0 -18 -4 -31zM422 1409l-150 -440h-125l110 371q-27 15 -44 41.5t-17 58.5q0 30 16 56.5t42.5 42.5t56.5 16q47 0 81 -34t34 -81q0 -18 -4 -31z" />
    <glyph glyph-name="quotedblbase" unicode="&#x201e;" horiz-adv-x="909" 
d="M766 63l-150 -440h-125l110 371q-27 15 -44 41.5t-17 58.5q0 30 16 56.5t42.5 42.5t56.5 16q47 0 81 -34t34 -81q0 -18 -4 -31zM422 63l-150 -440h-125l110 371q-27 15 -44 41.5t-17 58.5q0 30 16 56.5t42.5 42.5t56.5 16q47 0 81 -34t34 -81q0 -18 -4 -31z" />
    <glyph glyph-name="dagger" unicode="&#x2020;" horiz-adv-x="958" 
d="M891 854h-359v-1202h-114v1202h-350v115h350v403h114v-403h359v-115z" />
    <glyph glyph-name="daggerdbl" unicode="&#x2021;" horiz-adv-x="1051" 
d="M578 1018v-676h358v-113h-358v-413h-115v413h-350v113h350v676h-350v115h350v403h115v-403h358v-115h-358z" />
    <glyph glyph-name="bullet" unicode="&#x2022;" horiz-adv-x="856" 
d="M303 447q-58 33 -92.5 90.5t-34.5 126.5q0 66 34.5 124t93 92.5t124.5 34.5q65 0 123 -34.5t92.5 -92.5t34.5 -124q0 -69 -34.5 -126.5t-92 -90.5t-123.5 -33q-67 0 -125 33z" />
    <glyph glyph-name="ellipsis" unicode="&#x2026;" horiz-adv-x="1767" 
d="M796 13.5q-34 33.5 -34 80.5q0 30 15.5 56.5t42 42.5t56.5 16q47 0 81 -34t34 -81t-34 -80.5t-81 -33.5q-46 0 -80 33.5zM1370 13.5q-34 33.5 -34 80.5q0 30 15.5 56.5t42 42.5t56.5 16q47 0 81 -34t34 -81t-34 -80.5t-81 -33.5q-46 0 -80 33.5zM237 13.5
q-34 33.5 -34 80.5q0 30 15.5 56.5t42 42.5t56.5 16q47 0 81 -34t34 -81t-34 -80.5t-81 -33.5q-46 0 -80 33.5z" />
    <glyph glyph-name="perthousand" unicode="&#x2030;" horiz-adv-x="2255" 
d="M259.5 970.5q-72.5 42.5 -115 115.5t-42.5 159q0 85 42.5 156t115 113t158.5 42q85 0 156 -42t113 -113t42 -156q0 -87 -42 -159.5t-113 -115t-156 -42.5q-86 0 -158.5 42.5zM1161 1536h180l-933 -1536h-185zM505 1091q40 24 63.5 65t23.5 89q0 46 -23.5 86t-63.5 64
t-87 24q-48 0 -89 -24t-65 -64t-24 -86q0 -48 24 -89t64.5 -65t89.5 -24q47 0 87 24zM997.5 26.5q-71.5 42.5 -113.5 114.5t-42 158q0 85 42.5 156t114 113t156.5 42t156.5 -42t114 -113t42.5 -156q0 -86 -42.5 -158t-114 -114.5t-156.5 -42.5q-86 0 -157.5 42.5z
M1691.5 26.5q-71.5 42.5 -113.5 114.5t-42 158q0 85 42.5 156t114 113t156.5 42t157 -42t114.5 -113.5t42.5 -155.5q0 -85 -42.5 -157.5t-114.5 -115t-157 -42.5q-86 0 -157.5 42.5zM1243.5 145q40.5 24 64 65t23.5 89q0 47 -24 87t-64.5 63.5t-87.5 23.5q-48 0 -88.5 -23.5
t-64 -63.5t-23.5 -87q0 -48 23.5 -89t64 -65t88.5 -24t88.5 24zM1938 145q40 24 63.5 65t23.5 89q0 47 -23.5 87t-64 63.5t-88.5 23.5t-88.5 -23.5t-64 -63.5t-23.5 -87q0 -48 23.5 -89t64 -65t88.5 -24q49 0 89 24z" />
    <glyph glyph-name="guilsinglleft" unicode="&#x2039;" horiz-adv-x="586" 
d="M55 481l312 377h143l-311 -377l311 -377h-143z" />
    <glyph glyph-name="guilsinglright" unicode="&#x203a;" horiz-adv-x="586" 
d="M387 481l-311 377h143l311 -377l-311 -377h-143z" />
    <glyph glyph-name="fraction" unicode="&#x2044;" horiz-adv-x="510" 
d="M702 1536h177l-1072 -1536h-176z" />
    <glyph glyph-name="Euro" unicode="&#x20ac;" horiz-adv-x="1669" 
d="M1234 201.5q115 47.5 198 132.5l125 -123q-104 -104 -256.5 -167.5t-300.5 -63.5q-173 0 -325.5 69t-263 191.5t-161.5 279.5h-113v144h81q-7 48 -7 104q0 42 5 94h-79v144h110q50 160 160.5 284.5t264 195t328.5 70.5q148 0 300.5 -63.5t256.5 -167.5l-125 -123
q-83 85 -198 132.5t-234 47.5q-127 0 -239.5 -47t-197.5 -132.5t-131 -196.5h715v-144h-755q-7 -43 -7 -94q0 -53 9 -104h753v-144h-711q47 -108 131.5 -191t196 -129t236.5 -46q119 0 234 47.5z" />
    <glyph glyph-name="uni2113" unicode="&#x2113;" horiz-adv-x="1221" 
d="M466.5 40.5q-88.5 50.5 -135 133.5t-55.5 182v23q-29 -17 -91 -63l-52 -37l-53 98q34 26 83 60q81 58 111 83v557q0 180 54 293t139.5 162t185.5 49q103 0 172.5 -47t103.5 -125t34 -172q0 -185 -133.5 -369t-387.5 -391v-55q0 -98 39.5 -165t103 -99.5t136.5 -32.5
q76 0 143.5 31.5t119.5 81.5t85 106l84 -74q-85 -141 -204 -210.5t-265 -69.5q-129 0 -217.5 50.5zM731 949.5q103 143.5 103 281.5q0 105 -43.5 166t-139.5 61q-51 0 -99 -34.5t-80 -115t-32 -208.5v-465q188 171 291 314.5z" />
    <glyph glyph-name="uni2116" unicode="&#x2116;" horiz-adv-x="2798" 
d="M1227 1536h172v-1603l-967 1193v-1126h-174v1603l969 -1192v1125zM1897.5 438q-115.5 67 -183 181.5t-67.5 250.5t67.5 251t183 182t253.5 67q137 0 252 -67t182 -182t67 -251t-67 -250.5t-182 -181.5t-252 -67q-138 0 -253.5 67zM1981 1161q-77 -45 -121.5 -122
t-44.5 -169t44.5 -169t121.5 -122t170 -45q91 0 167 45t121 122.5t45 168.5q0 92 -44.5 169t-121 122t-167.5 45q-93 0 -170 -45zM1706 127h924v-127h-924v127z" />
    <glyph glyph-name="trademark" unicode="&#x2122;" horiz-adv-x="1602" 
d="M137 1536h447v-94h-174v-625h-101v625h-172v94zM1341 1536v-719h-100v549l-235 -391l-236 387v-545h-102v719h108l229 -380l228 380h108z" />
    <glyph glyph-name="estimated" unicode="&#x212e;" horiz-adv-x="1974" 
d="M567 87.5q-201 105.5 -318.5 285.5t-117.5 393q0 215 117.5 396.5t318.5 287.5t439 106q239 0 440 -106t318.5 -287.5t117.5 -396.5v-21h-1417q-12 0 -12 -8v-430q0 -24 18 -49q106 -109 245 -171t292 -62q167 0 313.5 69.5t251.5 192.5h125q-119 -141 -301.5 -223
t-390.5 -82q-238 0 -439 105.5zM1552 788q5 0 7 4.5t2 10.5v430q0 14 -5.5 28t-15.5 23q-107 105 -243.5 165t-288.5 60q-151 0 -289 -61.5t-246 -169.5q-20 -23 -20 -53v-422q0 -5 3.5 -10t8.5 -5h1087z" />
    <glyph glyph-name="arrowleft" unicode="&#x2190;" horiz-adv-x="1778" 
d="M1622 604h-1038v-260l-498 385l498 385v-263h1038v-247z" />
    <glyph glyph-name="arrowup" unicode="&#x2191;" horiz-adv-x="897" 
d="M326 1038h-263l385 498l385 -498h-260v-1038h-247v1038z" />
    <glyph glyph-name="arrowright" unicode="&#x2192;" horiz-adv-x="1784" 
d="M1194 851v263l498 -385l-498 -385v260h-1038v247h1038z" />
    <glyph glyph-name="arrowdown" unicode="&#x2193;" horiz-adv-x="897" 
d="M573 1536v-1038h260l-385 -498l-385 498h263v1038h247z" />
    <glyph glyph-name="arrowboth" unicode="&#x2194;" horiz-adv-x="2195" 
d="M84 682l498 385v-260l1024 -2v260l497 -385l-497 -385v262l-1024 2v-264z" />
    <glyph glyph-name="arrowupdn" unicode="&#x2195;" horiz-adv-x="967" 
d="M98 352h262v672h-262l385 498l385 -498h-260v-672h260l-385 -497z" />
    <glyph glyph-name="uni2196" unicode="&#x2196;" horiz-adv-x="1382" 
d="M1137 140l-734 734l-183 -184l-80 625l624 -80l-186 -186l734 -734z" />
    <glyph glyph-name="uni2197" unicode="&#x2197;" horiz-adv-x="1382" 
d="M804 1049l-186 186l624 80l-80 -625l-183 184l-734 -734l-175 175z" />
    <glyph glyph-name="uni2198" unicode="&#x2198;" horiz-adv-x="1382" 
d="M245 1396l734 -734l183 184l80 -625l-624 80l186 186l-734 734z" />
    <glyph glyph-name="uni2199" unicode="&#x2199;" horiz-adv-x="1382" 
d="M578 487l186 -186l-624 -80l80 625l183 -184l734 734l175 -175z" />
    <glyph glyph-name="partialdiff" unicode="&#x2202;" horiz-adv-x="1169" 
d="M438 1452q162 0 293 -100.5t206 -277.5t75 -397q0 -185 -65.5 -337.5t-179.5 -240t-253 -87.5q-121 0 -210 47t-136 132t-47 197q0 107 45 230q43 117 114.5 200.5t161 126.5t187.5 43q92 0 183 -39q-47 170 -150 265.5t-242 95.5q-25 0 -60 -5v141q39 6 78 6zM839 796
q-97 63 -194 63q-103 0 -188 -73.5t-135 -210.5q-35 -93 -35 -179q0 -76 28 -134.5t80 -90.5t121 -32q86 0 161 70.5t120 192.5t47 270q1 60 -5 124z" />
    <glyph glyph-name="emptyset" unicode="&#x2205;" horiz-adv-x="1552" 
d="M1348.5 815q40.5 -104 40.5 -219q0 -166 -82.5 -306.5t-223.5 -223t-307 -82.5q-114 0 -218 40t-187 113l-88 -88l-54 53l89 89q-73 83 -113.5 186.5t-40.5 218.5q0 166 82.5 306.5t223 223t306.5 82.5q114 0 218.5 -40t187.5 -113l88 88l53 -53l-88 -88
q73 -83 113.5 -187zM336.5 432q29.5 -78 82.5 -140l661 661q-62 53 -140 82.5t-164 29.5q-128 0 -235.5 -63t-170.5 -170.5t-63 -235.5q0 -86 29.5 -164zM1011.5 190q107.5 63 170.5 170.5t63 235.5q0 86 -29 164t-82 140l-662 -662q63 -53 141 -82t163 -29q128 0 235.5 63z
" />
    <glyph glyph-name="product" unicode="&#x220f;" horiz-adv-x="1614" 
d="M289 1288h-150v152h1336v-152h-150v-1288h-151v1288h-734v-1288h-151v1288z" />
    <glyph glyph-name="summation" unicode="&#x2211;" horiz-adv-x="1389" 
d="M98 -119l738 717l-738 717v125h1182v-162h-907l684 -680l-684 -680h907v-160h-1182v123z" />
    <glyph glyph-name="minus" unicode="&#x2212;" horiz-adv-x="1231" 
d="M254 756h723v-160h-723v160z" />
    <glyph glyph-name="radical" unicode="&#x221a;" horiz-adv-x="1423" 
d="M211 553h-139v139h239l203 -622l715 1495l129 -54l-799 -1671h-117z" />
    <glyph glyph-name="infinity" unicode="&#x221e;" horiz-adv-x="1716" 
d="M333 327q-66 40 -105 110.5t-42 158.5q3 88 42 158.5t105 110.5t148 40q88 0 184 -53t191 -152q92 98 189.5 151.5t185.5 53.5q85 0 151 -38.5t103.5 -108.5t40.5 -162q-3 -92 -40.5 -162t-103.5 -108.5t-151 -38.5q-88 0 -185.5 53t-189.5 152q-94 -100 -190 -152.5
t-185 -52.5q-82 0 -148 40zM614 470q73 44 150 126q-77 82 -150 126t-133 44q-41 0 -76.5 -22.5t-56.5 -61.5t-22 -86q1 -47 22 -86t56.5 -61.5t76.5 -22.5q60 0 133 44zM1339.5 473.5q43.5 47.5 46.5 122.5q-3 75 -46.5 122.5t-108.5 47.5q-61 0 -134 -44t-149 -126
q76 -82 149 -126t134 -44q65 0 108.5 47.5z" />
    <glyph glyph-name="integral" unicode="&#x222b;" horiz-adv-x="901" 
d="M61 -285q110 0 177 30t98 94.5t31 168.5v1137q0 87 37.5 156t102 108t142.5 39q53 0 104.5 -17t94.5 -53l-88 -135q-42 39 -101 39q-53 0 -88.5 -38t-35.5 -114v-1124q0 -146 -58 -250.5t-164.5 -158.5t-251.5 -54v172z" />
    <glyph glyph-name="approxequal" unicode="&#x2248;" horiz-adv-x="1430" 
d="M810 673.5q-53 24.5 -87 55.5t-74 76q-38 41 -68.5 59.5t-66.5 18.5q-49 0 -85 -27.5t-55 -76t-18 -109.5h-149q-2 108 36 190.5t108.5 128t164.5 45.5q78 0 135 -36t123 -113q26 -30 44 -47.5t43 -30t57 -12.5q45 0 80 26.5t54.5 75t18.5 111.5h150q2 -102 -33.5 -184
t-102.5 -128.5t-155 -46.5q-67 0 -120 24.5zM811 251q-52 24 -83 51.5t-79 78.5q-39 43 -67.5 61.5t-67.5 18.5q-49 -1 -85 -29t-55 -76t-18 -108h-149q-2 108 36 190.5t108.5 128t164.5 45.5q79 0 137 -36t121 -113q35 -43 67 -66.5t77 -23.5t80 26t54.5 74.5t18.5 112.5
h150q2 -102 -33.5 -184t-102.5 -128.5t-155 -46.5q-67 0 -119 24z" />
    <glyph glyph-name="lessequal" unicode="&#x2264;" horiz-adv-x="1425" 
d="M1264 1264l-955 -436l955 -439v-180l-1131 522v193l1131 516v-176zM133 127h1131v-127h-1131v127z" />
    <glyph glyph-name="greaterequal" unicode="&#x2265;" horiz-adv-x="1425" 
d="M1292 924v-193l-1130 -522v180l954 439l-954 436v176zM162 127h1130v-127h-1130v127z" />
    <glyph glyph-name="lozenge" unicode="&#x25ca;" horiz-adv-x="1370" 
d="M68 723l618 618l617 -616l-617 -619zM1112 725l-424 426l-428 -428l428 -426z" />
    <glyph glyph-name="uniF8FF" unicode="&#xf8ff;" horiz-adv-x="1827" 
d="M524 105q-179 105 -284 284t-105 389q0 211 105 390t283.5 283.5t389.5 104.5q212 0 390.5 -104.5t283.5 -283.5t105 -390t-105 -389.5t-284 -283.5t-390 -105q-210 0 -389 105zM1266.5 169q161.5 95 256.5 257t95 352q0 191 -94.5 353t-256.5 257t-354 95
q-190 0 -352 -95t-257 -257t-95 -353q0 -190 95 -352t257 -257t352 -95q192 0 353.5 95zM1296 457l-297 295q-10 11 -10 27t10 26l297 297q13 11 26 11q15 0 26 -11t11 -27q0 -15 -11 -26l-271 -271l271 -270q10 -10 10 -24t-10 -27q-11 -13 -27 -13q-14 0 -25 13z
M479.5 455q-10.5 11 -10.5 26v594q0 16 10.5 26.5t26.5 10.5q15 0 26 -10.5t11 -26.5v-594q0 -15 -11 -26t-26 -11q-16 0 -26.5 11zM887.5 455q-10.5 11 -10.5 26v594q0 16 10.5 26.5t25.5 10.5q16 0 26.5 -10.5t10.5 -26.5v-594q0 -15 -10.5 -26t-26.5 -11q-15 0 -25.5 11z
M590.5 752q-10.5 11 -10.5 26q0 16 10.5 26.5t25.5 10.5h187q15 0 26 -10.5t11 -26.5q0 -15 -11 -26t-26 -11h-187q-15 0 -25.5 11z" />
    <glyph glyph-name="Lcaron.ss01" horiz-adv-x="987" 
d="M958 174v-174h-741v1536h174v-1362h567zM690 963l86 573h193l-154 -573h-125z" />
    <glyph glyph-name="Lcaron.ss02" horiz-adv-x="987" 
d="M958 174v-174h-741v1536h174v-1362h567zM690 963l86 573h193l-154 -573h-125z" />
    <glyph glyph-name="i.loclTRK" horiz-adv-x="516" 
d="M174 963h168v-963h-168v963zM177 1166.5q-34 33.5 -34 79.5q0 49 34 82t81 33t81 -33t34 -82q0 -30 -16 -56t-42.5 -41.5t-56.5 -15.5q-47 0 -81 33.5z" />
    <glyph glyph-name="a.ss01" horiz-adv-x="1024" 
d="M695 936q87 -47 135.5 -132.5t48.5 -199.5v-604h-158v109q-121 -127 -301 -127q-93 0 -169.5 34t-121.5 99t-45 155q0 132 108 214.5t357 107.5l172 17q-1 107 -63 166t-166 59q-76 0 -144 -31t-141 -90l-84 131q72 57 165 98t206 41q114 0 201 -47zM598 171
q74 46 123 132v172l-115 -12q-148 -16 -226 -44t-104 -63.5t-26 -81.5q0 -74 48.5 -111.5t133.5 -37.5q92 0 166 46z" />
    <glyph glyph-name="aacute.ss01" horiz-adv-x="1024" 
d="M695 936q87 -47 135.5 -132.5t48.5 -199.5v-604h-158v109q-121 -127 -301 -127q-93 0 -169.5 34t-121.5 99t-45 155q0 132 108 214.5t357 107.5l172 17q-1 107 -63 166t-166 59q-76 0 -144 -31t-141 -90l-84 131q72 57 165 98t206 41q114 0 201 -47zM598 171
q74 46 123 132v172l-115 -12q-148 -16 -226 -44t-104 -63.5t-26 -81.5q0 -74 48.5 -111.5t133.5 -37.5q92 0 166 46zM382 1153l303 326l96 -108l-333 -289z" />
    <glyph glyph-name="abreve.ss01" horiz-adv-x="1024" 
d="M695 936q87 -47 135.5 -132.5t48.5 -199.5v-604h-158v109q-121 -127 -301 -127q-93 0 -169.5 34t-121.5 99t-45 155q0 132 108 214.5t357 107.5l172 17q-1 107 -63 166t-166 59q-76 0 -144 -31t-141 -90l-84 131q72 57 165 98t206 41q114 0 201 -47zM598 171
q74 46 123 132v172l-115 -12q-148 -16 -226 -44t-104 -63.5t-26 -81.5q0 -74 48.5 -111.5t133.5 -37.5q92 0 166 46zM313 1177.5q-77 38.5 -120.5 110t-43.5 167.5h136q0 -91 52.5 -150t149.5 -59q99 0 152 59t53 150h135q0 -96 -43.5 -167.5t-121 -110t-175.5 -38.5
q-97 0 -174 38.5z" />
    <glyph glyph-name="uni1EAF.ss01" horiz-adv-x="1024" 
d="M695 936q87 -47 135.5 -132.5t48.5 -199.5v-604h-158v109q-121 -127 -301 -127q-93 0 -169.5 34t-121.5 99t-45 155q0 132 108 214.5t357 107.5l172 17q-1 107 -63 166t-166 59q-76 0 -144 -31t-141 -90l-84 131q72 57 165 98t206 41q114 0 201 -47zM598 171
q74 46 123 132v172l-115 -12q-148 -16 -226 -44t-104 -63.5t-26 -81.5q0 -74 48.5 -111.5t133.5 -37.5q92 0 166 46zM313 1177.5q-77 38.5 -120.5 110t-43.5 167.5h136q0 -91 52.5 -150t149.5 -59q99 0 152 59t53 150h135q0 -96 -43.5 -167.5t-121 -110t-175.5 -38.5
q-97 0 -174 38.5zM382 1614l303 326l96 -108l-333 -289z" />
    <glyph glyph-name="uni1EB7.ss01" horiz-adv-x="1024" 
d="M695 936q87 -47 135.5 -132.5t48.5 -199.5v-604h-158v109q-121 -127 -301 -127q-93 0 -169.5 34t-121.5 99t-45 155q0 132 108 214.5t357 107.5l172 17q-1 107 -63 166t-166 59q-76 0 -144 -31t-141 -90l-84 131q72 57 165 98t206 41q114 0 201 -47zM598 171
q74 46 123 132v172l-115 -12q-148 -16 -226 -44t-104 -63.5t-26 -81.5q0 -74 48.5 -111.5t133.5 -37.5q92 0 166 46zM408 -337.5q-34 33.5 -34 81.5q0 30 16 56.5t42.5 42t56.5 15.5t56.5 -15.5t42 -42t15.5 -56.5q0 -48 -34 -81.5t-80 -33.5q-47 0 -81 33.5zM313 1177.5
q-77 38.5 -120.5 110t-43.5 167.5h136q0 -91 52.5 -150t149.5 -59q99 0 152 59t53 150h135q0 -96 -43.5 -167.5t-121 -110t-175.5 -38.5q-97 0 -174 38.5z" />
    <glyph glyph-name="uni1EB1.ss01" horiz-adv-x="1024" 
d="M695 936q87 -47 135.5 -132.5t48.5 -199.5v-604h-158v109q-121 -127 -301 -127q-93 0 -169.5 34t-121.5 99t-45 155q0 132 108 214.5t357 107.5l172 17q-1 107 -63 166t-166 59q-76 0 -144 -31t-141 -90l-84 131q72 57 165 98t206 41q114 0 201 -47zM598 171
q74 46 123 132v172l-115 -12q-148 -16 -226 -44t-104 -63.5t-26 -81.5q0 -74 48.5 -111.5t133.5 -37.5q92 0 166 46zM313 1177.5q-77 38.5 -120.5 110t-43.5 167.5h136q0 -91 52.5 -150t149.5 -59q99 0 152 59t53 150h135q0 -96 -43.5 -167.5t-121 -110t-175.5 -38.5
q-97 0 -174 38.5zM155 1832l98 108l301 -326l-63 -71z" />
    <glyph glyph-name="uni1EB3.ss01" horiz-adv-x="1024" 
d="M695 936q87 -47 135.5 -132.5t48.5 -199.5v-604h-158v109q-121 -127 -301 -127q-93 0 -169.5 34t-121.5 99t-45 155q0 132 108 214.5t357 107.5l172 17q-1 107 -63 166t-166 59q-76 0 -144 -31t-141 -90l-84 131q72 57 165 98t206 41q114 0 201 -47zM598 171
q74 46 123 132v172l-115 -12q-148 -16 -226 -44t-104 -63.5t-26 -81.5q0 -74 48.5 -111.5t133.5 -37.5q92 0 166 46zM313 1177.5q-77 38.5 -120.5 110t-43.5 167.5h136q0 -91 52.5 -150t149.5 -59q99 0 152 59t53 150h135q0 -96 -43.5 -167.5t-121 -110t-175.5 -38.5
q-97 0 -174 38.5zM434 1678q143 29 143 129q0 39 -27.5 65.5t-72.5 26.5q-54 0 -107 -35l-65 92q36 29 79.5 45t88.5 16q62 0 113.5 -27t81.5 -75t30 -108q0 -66 -40 -118.5t-116 -74.5v-90h-108v154z" />
    <glyph glyph-name="uni1EB5.ss01" horiz-adv-x="1024" 
d="M695 936q87 -47 135.5 -132.5t48.5 -199.5v-604h-158v109q-121 -127 -301 -127q-93 0 -169.5 34t-121.5 99t-45 155q0 132 108 214.5t357 107.5l172 17q-1 107 -63 166t-166 59q-76 0 -144 -31t-141 -90l-84 131q72 57 165 98t206 41q114 0 201 -47zM598 171
q74 46 123 132v172l-115 -12q-148 -16 -226 -44t-104 -63.5t-26 -81.5q0 -74 48.5 -111.5t133.5 -37.5q92 0 166 46zM313 1177.5q-77 38.5 -120.5 110t-43.5 167.5h136q0 -91 52.5 -150t149.5 -59q99 0 152 59t53 150h135q0 -96 -43.5 -167.5t-121 -110t-175.5 -38.5
q-97 0 -174 38.5zM514.5 1559.5q-44.5 31.5 -78.5 81.5q-20 30 -39 42.5t-43 12.5q-47 0 -72.5 -45t-25.5 -114h-125q0 80 26.5 144t76 101t116.5 37q62 0 107 -30.5t81 -81.5q19 -27 37.5 -41.5t48.5 -14.5q47 0 72 40.5t25 119.5h123q0 -80 -25.5 -144.5t-75 -101.5
t-119.5 -37q-65 0 -109.5 31.5z" />
    <glyph glyph-name="uni01CE.ss01" horiz-adv-x="1024" 
d="M695 936q87 -47 135.5 -132.5t48.5 -199.5v-604h-158v109q-121 -127 -301 -127q-93 0 -169.5 34t-121.5 99t-45 155q0 132 108 214.5t357 107.5l172 17q-1 107 -63 166t-166 59q-76 0 -144 -31t-141 -90l-84 131q72 57 165 98t206 41q114 0 201 -47zM598 171
q74 46 123 132v172l-115 -12q-148 -16 -226 -44t-104 -63.5t-26 -81.5q0 -74 48.5 -111.5t133.5 -37.5q92 0 166 46zM200 1422l88 53l201 -240l198 240l88 -53l-202 -297h-173z" />
    <glyph glyph-name="acircumflex.ss01" horiz-adv-x="1024" 
d="M695 936q87 -47 135.5 -132.5t48.5 -199.5v-604h-158v109q-121 -127 -301 -127q-93 0 -169.5 34t-121.5 99t-45 155q0 132 108 214.5t357 107.5l172 17q-1 107 -63 166t-166 59q-76 0 -144 -31t-141 -90l-84 131q72 57 165 98t206 41q114 0 201 -47zM598 171
q74 46 123 132v172l-115 -12q-148 -16 -226 -44t-104 -63.5t-26 -81.5q0 -74 48.5 -111.5t133.5 -37.5q92 0 166 46zM200 1137l200 297h173l202 -297l-86 -51l-200 237l-205 -237z" />
    <glyph glyph-name="adieresis.ss01" horiz-adv-x="1024" 
d="M695 936q87 -47 135.5 -132.5t48.5 -199.5v-604h-158v109q-121 -127 -301 -127q-93 0 -169.5 34t-121.5 99t-45 155q0 132 108 214.5t357 107.5l172 17q-1 107 -63 166t-166 59q-76 0 -144 -31t-141 -90l-84 131q72 57 165 98t206 41q114 0 201 -47zM598 171
q74 46 123 132v172l-115 -12q-148 -16 -226 -44t-104 -63.5t-26 -81.5q0 -74 48.5 -111.5t133.5 -37.5q92 0 166 46zM220 1174q-34 33 -34 79q0 49 34 82t81 33t81 -33t34 -82q0 -30 -16 -55.5t-42.5 -41t-56.5 -15.5q-47 0 -81 33zM597 1174q-34 33 -34 79q0 49 34 82
t81 33q48 0 81 -33t33 -82q0 -46 -33.5 -79t-80.5 -33t-81 33z" />
    <glyph glyph-name="agrave.ss01" horiz-adv-x="1024" 
d="M695 936q87 -47 135.5 -132.5t48.5 -199.5v-604h-158v109q-121 -127 -301 -127q-93 0 -169.5 34t-121.5 99t-45 155q0 132 108 214.5t357 107.5l172 17q-1 107 -63 166t-166 59q-76 0 -144 -31t-141 -90l-84 131q72 57 165 98t206 41q114 0 201 -47zM598 171
q74 46 123 132v172l-115 -12q-148 -16 -226 -44t-104 -63.5t-26 -81.5q0 -74 48.5 -111.5t133.5 -37.5q92 0 166 46zM155 1371l98 108l301 -326l-63 -71z" />
    <glyph glyph-name="amacron.ss01" horiz-adv-x="1024" 
d="M695 936q87 -47 135.5 -132.5t48.5 -199.5v-604h-158v109q-121 -127 -301 -127q-93 0 -169.5 34t-121.5 99t-45 155q0 132 108 214.5t357 107.5l172 17q-1 107 -63 166t-166 59q-76 0 -144 -31t-141 -90l-84 131q72 57 165 98t206 41q114 0 201 -47zM598 171
q74 46 123 132v172l-115 -12q-148 -16 -226 -44t-104 -63.5t-26 -81.5q0 -74 48.5 -111.5t133.5 -37.5q92 0 166 46zM172 1287h635v-115h-635v115z" />
    <glyph glyph-name="aogonek.ss01" horiz-adv-x="1024" 
d="M991 -426q-53 -53 -118.5 -79t-137.5 -26q-114 0 -182 56t-68 156q0 180 236 333v95q-121 -127 -301 -127q-93 0 -169.5 34t-121.5 99t-45 155q0 132 108 214.5t357 107.5l172 17q-1 107 -63 166t-166 59q-76 0 -144 -31t-141 -90l-84 131q72 57 165 98t206 41
q114 0 201 -47t135.5 -132.5t48.5 -199.5v-604h-11q-114 -48 -189 -122.5t-75 -158.5q0 -55 33 -82.5t86 -27.5q47 0 98 21.5t88 58.5zM598 171q74 46 123 132v172l-115 -12q-148 -16 -226 -44t-104 -63.5t-26 -81.5q0 -74 48.5 -111.5t133.5 -37.5q92 0 166 46z" />
    <glyph glyph-name="aring.ss01" horiz-adv-x="1024" 
d="M695 936q87 -47 135.5 -132.5t48.5 -199.5v-604h-158v109q-121 -127 -301 -127q-93 0 -169.5 34t-121.5 99t-45 155q0 132 108 214.5t357 107.5l172 17q-1 107 -63 166t-166 59q-76 0 -144 -31t-141 -90l-84 131q72 57 165 98t206 41q114 0 201 -47zM598 171
q74 46 123 132v172l-115 -12q-148 -16 -226 -44t-104 -63.5t-26 -81.5q0 -74 48.5 -111.5t133.5 -37.5q92 0 166 46zM401 1155.5q-50 29.5 -79.5 79t-29.5 106.5q0 58 29.5 107.5t79 78.5t108.5 29q58 0 106.5 -29t77.5 -78.5t29 -107.5q0 -57 -29 -106.5t-78 -79
t-106 -29.5q-58 0 -108 29.5zM596 1252.5q36 35.5 36 88.5q0 34 -16.5 63t-45 46.5t-61.5 17.5q-34 0 -62 -17.5t-44.5 -46.5t-16.5 -63q0 -53 35.5 -88.5t87.5 -35.5q51 0 87 35.5z" />
    <glyph glyph-name="atilde.ss01" horiz-adv-x="1024" 
d="M695 936q87 -47 135.5 -132.5t48.5 -199.5v-604h-158v109q-121 -127 -301 -127q-93 0 -169.5 34t-121.5 99t-45 155q0 132 108 214.5t357 107.5l172 17q-1 107 -63 166t-166 59q-76 0 -144 -31t-141 -90l-84 131q72 57 165 98t206 41q114 0 201 -47zM598 171
q74 46 123 132v172l-115 -12q-148 -16 -226 -44t-104 -63.5t-26 -81.5q0 -74 48.5 -111.5t133.5 -37.5q92 0 166 46zM514.5 1098.5q-44.5 31.5 -78.5 81.5q-20 30 -39 42.5t-43 12.5q-47 0 -72.5 -45t-25.5 -114h-125q0 80 26.5 144t76 101t116.5 37q62 0 107 -30.5
t81 -81.5q19 -27 37.5 -41.5t48.5 -14.5q47 0 72 40.5t25 119.5h123q0 -80 -25.5 -144.5t-75 -101.5t-119.5 -37q-65 0 -109.5 31.5z" />
    <glyph glyph-name="dcaron.ss01" horiz-adv-x="1255" 
d="M1081 1536v-1536h-168v137q-63 -74 -153.5 -114.5t-202.5 -40.5q-127 0 -238 67t-177 182t-66 250q0 136 66 250.5t177 182t238 67.5q112 0 202.5 -40.5t153.5 -114.5v710h168zM747.5 190q76.5 45 121 122t44.5 169t-44.5 169t-120.5 122t-168 45t-169 -45t-122 -122
t-45 -169t45 -169t122 -122t169 -45q91 0 167.5 45zM1191 963l86 573h193l-154 -573h-125z" />
    <glyph glyph-name="gcommaaccent.ss01" horiz-adv-x="1253" 
d="M733 1119h-192l168 416h124zM1079 963v-963q0 -137 -67.5 -252t-183.5 -181.5t-253 -66.5q-96 0 -184 35t-157 97.5t-111 144.5l135 94q42 -93 127 -150t190 -57q91 0 167.5 45t121.5 122t45 169v125q-59 -69 -143.5 -106t-192.5 -37q-136 0 -250.5 67t-181.5 181.5
t-67 250.5q0 137 67 252t181.5 181.5t250.5 66.5q108 0 192.5 -37t143.5 -106v125h170zM744.5 190.5q76.5 45.5 121.5 122.5t45 168q0 92 -44.5 169t-121 122t-167.5 45q-93 0 -170 -45t-121.5 -122t-44.5 -169q0 -91 44.5 -168t121.5 -122.5t170 -45.5q90 0 166.5 45.5z
" />
    <glyph glyph-name="lcaron.ss01" horiz-adv-x="516" 
d="M174 1536h168v-1536h-168v1536zM456 963l86 573h193l-154 -573h-125z" />
    <glyph glyph-name="tcaron.ss01" horiz-adv-x="633" 
d="M602 809h-201v-809h-170v809h-202v154h202v346h170v-346h201v-154zM477 1065l86 573h193l-154 -573h-125z" />
    <glyph glyph-name="dcaron.ss02" horiz-adv-x="1255" 
d="M1081 1536v-1536h-168v137q-63 -74 -153.5 -114.5t-202.5 -40.5q-127 0 -238 67t-177 182t-66 250q0 136 66 250.5t177 182t238 67.5q112 0 202.5 -40.5t153.5 -114.5v710h168zM747.5 190q76.5 45 121 122t44.5 169t-44.5 169t-120.5 122t-168 45t-169 -45t-122 -122
t-45 -169t45 -169t122 -122t169 -45q91 0 167.5 45zM1191 963l86 573h193l-154 -573h-125z" />
    <glyph glyph-name="gcommaaccent.ss02" horiz-adv-x="1253" 
d="M733 1119h-192l168 416h124zM1079 963v-963q0 -137 -67.5 -252t-183.5 -181.5t-253 -66.5q-96 0 -184 35t-157 97.5t-111 144.5l135 94q42 -93 127 -150t190 -57q91 0 167.5 45t121.5 122t45 169v125q-59 -69 -143.5 -106t-192.5 -37q-136 0 -250.5 67t-181.5 181.5
t-67 250.5q0 137 67 252t181.5 181.5t250.5 66.5q108 0 192.5 -37t143.5 -106v125h170zM744.5 190.5q76.5 45.5 121.5 122.5t45 168q0 92 -44.5 169t-121 122t-167.5 45q-93 0 -170 -45t-121.5 -122t-44.5 -169q0 -91 44.5 -168t121.5 -122.5t170 -45.5q90 0 166.5 45.5z
" />
    <glyph glyph-name="lcaron.ss02" horiz-adv-x="516" 
d="M174 1536h168v-1536h-168v1536zM456 963l86 573h193l-154 -573h-125z" />
    <glyph glyph-name="tcaron.ss02" horiz-adv-x="633" 
d="M602 809h-201v-809h-170v809h-202v154h202v346h170v-346h201v-154zM477 1065l86 573h193l-154 -573h-125z" />
    <glyph glyph-name="f_t" horiz-adv-x="1219" 
d="M1188 809h-201v-809h-170v809h-432v-809h-168v809h-162v154h162v297q0 91 35.5 158.5t100.5 104t151 36.5q41 0 76.5 -8t54.5 -21v-166q-22 17 -52 27t-59 10q-63 0 -101 -44.5t-38 -117.5v-276h432v346h170v-346h201v-154z" />
    <glyph glyph-name="t_t" horiz-adv-x="1198" 
d="M1167 809h-201v-809h-170v809h-395v-809h-170v809h-202v154h202v346h170v-346h395v346h170v-346h201v-154z" />
    <glyph glyph-name="zero.lf" horiz-adv-x="1327" 
d="M381 82.5q-126 102.5 -198 282.5t-72 403q0 225 68 404.5t193.5 281.5t291.5 102q164 0 290 -102t194.5 -281.5t68.5 -404.5q0 -222 -72.5 -402t-199 -283t-281.5 -103q-157 0 -283 102.5zM865 212q85 79 131 223t46 333q0 195 -49 333.5t-134.5 209.5t-192.5 71
q-108 0 -194 -71t-135.5 -209.5t-49.5 -333.5q0 -190 46 -333.5t132 -222.5t201 -79q114 0 199 79z" />
    <glyph glyph-name="one.lf" horiz-adv-x="721" 
d="M338 1362h-318v174h492v-1536h-174v1362z" />
    <glyph glyph-name="two.lf" horiz-adv-x="1157" 
d="M1085 174v-174h-1044v16q336 345 507 555.5t226 329t55 221.5q0 83 -37 142t-100 89.5t-139 30.5q-84 0 -147 -36t-97.5 -100t-34.5 -148l-188 2q0 134 62.5 238t170.5 161.5t240 57.5q127 0 228.5 -52t159 -148.5t57.5 -223.5q0 -145 -72 -295t-197 -305t-322 -361h672z
" />
    <glyph glyph-name="three.lf" horiz-adv-x="1204" 
d="M319.5 36q-120.5 56 -190.5 157.5t-70 232.5l174 2q0 -86 46 -150.5t126 -99.5t181 -35q103 0 182.5 36.5t124.5 104.5t45 160q0 93 -45.5 160t-125 102t-181.5 35h-156v164h148q80 0 140.5 33t93 90t32.5 127q0 69 -32.5 123t-92.5 84.5t-141 30.5q-79 0 -140 -28.5
t-95 -80t-34 -117.5h-174q0 114 58.5 202.5t159.5 137.5t225 49q122 0 222.5 -49t159 -138t58.5 -204q0 -113 -57.5 -196.5t-161.5 -128.5q147 -46 230 -151t83 -253q0 -136 -69.5 -239.5t-189.5 -160t-267 -56.5q-146 0 -266.5 56z" />
    <glyph glyph-name="four.lf" horiz-adv-x="1249" 
d="M1221 324h-273v-324h-174v324h-741v112l698 1100h217v-1049h273v-163zM774 487v836l-513 -836h513z" />
    <glyph glyph-name="five.lf" horiz-adv-x="1247" 
d="M911.5 957.5q112.5 -64.5 176 -180t63.5 -261.5q0 -153 -69.5 -274.5t-192 -189.5t-273.5 -68q-129 0 -243 51.5t-189 152.5t-88 244h185q15 -93 66 -155.5t122.5 -92.5t148.5 -30q98 0 176.5 45.5t122.5 126.5t44 182q0 102 -44.5 183t-120 126t-167.5 45
q-86 0 -167.5 -40.5t-133.5 -112.5h-183l140 827h798v-168h-660l-77 -452q62 53 143.5 79.5t169.5 26.5q140 0 252.5 -64.5z" />
    <glyph glyph-name="six.lf" horiz-adv-x="1202" 
d="M1068.5 247.5q-70.5 -120.5 -190.5 -192t-260 -71.5q-148 0 -273.5 65t-201.5 179t-82 255q-8 195 132 369l542 684h215l-449 -535q59 23 148 23q109 0 223.5 -65t190.5 -183.5t76 -268.5q0 -139 -70.5 -259.5zM798 201q81 47 126.5 127t45.5 175l-1 23q-6 105 -57 184.5
t-133 123t-179 43.5q-109 0 -193 -49t-129.5 -132.5t-45.5 -185.5q0 -107 49.5 -188t137 -124.5t197.5 -43.5q101 0 182 47z" />
    <glyph glyph-name="seven.lf" horiz-adv-x="1128" 
d="M1104 1536v-115l-795 -1421h-205l783 1370h-848v166h1065z" />
    <glyph glyph-name="eight.lf" horiz-adv-x="1180" 
d="M339 41.5q-113 61.5 -178 168t-65 234.5q0 132 69.5 240t186.5 166q-83 48 -125.5 132t-42.5 192q0 106 53 193.5t146 138t207 50.5q113 0 205 -50.5t145 -138t53 -193.5q0 -109 -42.5 -192.5t-125.5 -131.5q118 -58 187 -165.5t69 -240.5q0 -128 -65 -234.5t-177.5 -168
t-250.5 -61.5q-136 0 -249 61.5zM711.5 937.5q55.5 32.5 87.5 88t32 121.5q0 67 -32 123t-87.5 88.5t-121.5 32.5q-67 0 -123 -32.5t-88.5 -88.5t-32.5 -123t32.5 -122t88.5 -87.5t123 -32.5q66 0 121.5 32.5zM748 177q73 44 115 118.5t42 161.5q0 88 -42 160.5
t-114.5 114.5t-160.5 42q-87 0 -159.5 -42t-114.5 -114.5t-42 -160.5q0 -87 42.5 -161.5t115 -118.5t158.5 -44q87 0 160 44z" />
    <glyph glyph-name="nine.lf" horiz-adv-x="1204" 
d="M998 684l-543 -684h-215l449 535q-61 -23 -148 -23q-109 0 -223.5 65t-190.5 184t-76 270q0 139 70.5 259t190.5 191t260 71q152 0 279.5 -68t202.5 -187t75 -265q0 -185 -131 -348zM783.5 708q83.5 49 129 132.5t45.5 185.5q0 107 -49.5 188t-137 124.5t-197.5 43.5
q-101 0 -181.5 -47t-126 -126.5t-45.5 -174.5q0 -111 50 -196.5t134.5 -132t184.5 -46.5q110 0 193.5 49z" />
    <glyph glyph-name="zero.dnom" horiz-adv-x="809" 
d="M224 46.5q-77 58.5 -119 166t-42 248.5t42 248t119 166t179 59t179.5 -59t120 -166t42.5 -248t-42.5 -248.5t-120 -166t-179.5 -58.5t-179 58.5zM494 186.5q39 39.5 61.5 111t22.5 163.5q0 91 -22.5 162.5t-61.5 111t-88 39.5q-51 0 -91 -39.5t-62 -110.5t-22 -163
t22 -163.5t62 -111t91 -39.5q49 0 88 39.5z" />
    <glyph glyph-name="one.dnom" horiz-adv-x="477" 
d="M172 770h-133v152h299v-922h-166v770z" />
    <glyph glyph-name="two.dnom" horiz-adv-x="713" 
d="M643 152v-152h-604v86q182 193 271.5 302t118 164.5t28.5 100.5q0 68 -35.5 98.5t-85.5 30.5q-59 0 -91 -36t-32 -97h-166q0 87 36.5 152t102.5 100t152 35q82 0 145.5 -33t99 -95.5t35.5 -147.5q0 -71 -30.5 -141t-99.5 -156t-191 -211h346z" />
    <glyph glyph-name="three.dnom" horiz-adv-x="707" 
d="M608 421q37 -61 37 -138q0 -81 -40.5 -148.5t-111 -107t-155.5 -39.5q-82 0 -150.5 35t-108.5 97.5t-40 141.5l168 2q0 -51 39 -85t94 -34q60 0 99.5 41t39.5 101q0 59 -39 96t-98 37h-86v141h76q47 0 78.5 33t31.5 80q0 46 -31.5 75t-78.5 29q-45 0 -73 -26.5t-28 -67.5
l-163 2q0 73 34.5 129t94.5 87.5t135 31.5q72 0 132 -32.5t95 -87.5t35 -122q0 -55 -23 -99.5t-65 -74.5q65 -36 102 -97z" />
    <glyph glyph-name="four.dnom" horiz-adv-x="762" 
d="M688 195h-84v-195h-166v195h-438v104l383 623h221v-576h84v-151zM438 346v406l-238 -406h238z" />
    <glyph glyph-name="five.dnom" horiz-adv-x="807" 
d="M597 591q63 -38 99.5 -107t36.5 -160q0 -99 -44 -175.5t-120 -118.5t-168 -42q-85 0 -158.5 33.5t-119 97t-49.5 147.5l176 4q10 -60 54.5 -91.5t103.5 -31.5q44 0 79.5 21.5t55.5 60.5t20 90q0 50 -20.5 88.5t-56 59t-78.5 20.5t-83.5 -23t-66.5 -63l-170 2l90 519h520
v-150h-398l-33 -204q32 26 81 43.5t109 17.5q77 0 140 -38z" />
    <glyph glyph-name="six.dnom" horiz-adv-x="723" 
d="M646.5 148q-45.5 -73 -122 -115.5t-166.5 -42.5q-92 0 -170 41.5t-124 113.5t-46 160q0 104 74 209l305 408h195l-233 -295q7 1 22 1q17 0 25 -1q73 -8 139 -51.5t106.5 -113.5t40.5 -153q0 -88 -45.5 -161zM446.5 161.5q38.5 22.5 60 61.5t21.5 86q0 50 -22.5 89.5
t-62 62t-87.5 22.5q-51 0 -89.5 -22.5t-59.5 -62.5t-21 -89q0 -75 48 -122.5t124 -47.5q50 0 88.5 22.5z" />
    <glyph glyph-name="seven.dnom" horiz-adv-x="653" 
d="M662 922v-121l-435 -801h-190l430 772h-434v150h629z" />
    <glyph glyph-name="eight.dnom" horiz-adv-x="754" 
d="M215 26q-73 38 -114.5 103t-41.5 145q0 76 37.5 138.5t102.5 99.5q-42 30 -63 76t-21 104q0 68 34 123t93.5 87t134.5 32q73 0 133 -32t94.5 -87t34.5 -123q0 -56 -22 -102.5t-62 -77.5q65 -37 102 -99.5t37 -138.5q0 -80 -41.5 -145t-114 -103t-161.5 -38t-162 38z
M460 591q34 34 34 83q0 50 -34 84.5t-83 34.5t-83 -34.5t-34 -84.5q0 -49 34 -83t83 -34t83 34zM452.5 154q34.5 21 54 57t19.5 78q0 41 -19.5 75t-54 53t-75.5 19q-42 0 -76 -19t-54 -53t-20 -75q0 -42 20 -78t54.5 -57t75.5 -21t75.5 21z" />
    <glyph glyph-name="nine.dnom" horiz-adv-x="723" 
d="M535 890.5q78 -41.5 124 -113.5t46 -161q0 -108 -74 -208l-305 -408h-195l234 295l-22 -1l-26 1q-73 7 -139 50.5t-106.5 113.5t-40.5 153q0 89 45.5 162t122 115.5t166.5 42.5q92 0 170 -41.5zM456.5 461q38.5 23 59.5 62.5t21 88.5q0 76 -48 123t-124 47
q-50 0 -88.5 -22.5t-60 -61.5t-21.5 -86q0 -49 22.5 -89t62 -62.5t87.5 -22.5q51 0 89.5 23z" />
    <glyph glyph-name="zero.numr" horiz-adv-x="809" 
d="M224 669.5q-77 58.5 -119 166t-42 248.5t42 248t119 166t179 59t179.5 -59t120 -166t42.5 -248t-42.5 -248.5t-120 -166t-179.5 -58.5t-179 58.5zM494 809.5q39 39.5 61.5 111t22.5 163.5q0 91 -22.5 162.5t-61.5 111t-88 39.5q-51 0 -91 -39.5t-62 -110.5t-22 -163
t22 -163.5t62 -111t91 -39.5q49 0 88 39.5z" />
    <glyph glyph-name="one.numr" horiz-adv-x="477" 
d="M172 1384h-133v152h299v-922h-166v770z" />
    <glyph glyph-name="two.numr" horiz-adv-x="713" 
d="M643 766v-152h-604v86q182 193 271.5 302t118 164.5t28.5 100.5q0 68 -35.5 98.5t-85.5 30.5q-59 0 -91 -36t-32 -97h-166q0 87 36.5 152t102.5 100t152 35q82 0 145.5 -33t99 -95.5t35.5 -147.5q0 -71 -30.5 -141t-99.5 -156t-191 -211h346z" />
    <glyph glyph-name="three.numr" horiz-adv-x="707" 
d="M608 1035q37 -61 37 -138q0 -81 -40.5 -148.5t-111 -107t-155.5 -39.5q-82 0 -150.5 35t-108.5 97.5t-40 141.5l168 2q0 -51 39 -85t94 -34q60 0 99.5 41t39.5 101q0 59 -39 96t-98 37h-86v141h76q47 0 78.5 33t31.5 80q0 46 -31.5 75t-78.5 29q-45 0 -73 -26.5
t-28 -67.5l-163 2q0 73 34.5 129t94.5 87.5t135 31.5q72 0 132 -32.5t95 -87.5t35 -122q0 -55 -23 -99.5t-65 -74.5q65 -36 102 -97z" />
    <glyph glyph-name="four.numr" horiz-adv-x="762" 
d="M688 809h-84v-195h-166v195h-438v104l383 623h221v-576h84v-151zM438 960v406l-238 -406h238z" />
    <glyph glyph-name="five.numr" horiz-adv-x="807" 
d="M597 1205q63 -38 99.5 -107t36.5 -160q0 -99 -44 -175.5t-120 -118.5t-168 -42q-85 0 -158.5 33.5t-119 97t-49.5 147.5l176 4q10 -60 54.5 -91.5t103.5 -31.5q44 0 79.5 21.5t55.5 60.5t20 90q0 50 -20.5 88.5t-56 59t-78.5 20.5t-83.5 -23t-66.5 -63l-170 2l90 519h520
v-150h-398l-33 -204q32 26 81 43.5t109 17.5q77 0 140 -38z" />
    <glyph glyph-name="six.numr" horiz-adv-x="723" 
d="M646.5 762q-45.5 -73 -122 -115.5t-166.5 -42.5q-92 0 -170 41.5t-124 113.5t-46 160q0 104 74 209l305 408h195l-233 -295q7 1 22 1q17 0 25 -1q73 -8 139 -51.5t106.5 -113.5t40.5 -153q0 -88 -45.5 -161zM446.5 775.5q38.5 22.5 60 61.5t21.5 86q0 50 -22.5 89.5
t-62 62t-87.5 22.5q-51 0 -89.5 -22.5t-59.5 -62.5t-21 -89q0 -75 48 -122.5t124 -47.5q50 0 88.5 22.5z" />
    <glyph glyph-name="seven.numr" horiz-adv-x="653" 
d="M662 1536v-121l-435 -801h-190l430 772h-434v150h629z" />
    <glyph glyph-name="eight.numr" horiz-adv-x="754" 
d="M215 640q-73 38 -114.5 103t-41.5 145q0 76 37.5 138.5t102.5 99.5q-42 30 -63 76t-21 104q0 68 34 123t93.5 87t134.5 32q73 0 133 -32t94.5 -87t34.5 -123q0 -56 -22 -102.5t-62 -77.5q65 -37 102 -99.5t37 -138.5q0 -80 -41.5 -145t-114 -103t-161.5 -38t-162 38z
M460 1205q34 34 34 83q0 50 -34 84.5t-83 34.5t-83 -34.5t-34 -84.5q0 -49 34 -83t83 -34t83 34zM452.5 768q34.5 21 54 57t19.5 78q0 41 -19.5 75t-54 53t-75.5 19q-42 0 -76 -19t-54 -53t-20 -75q0 -42 20 -78t54.5 -57t75.5 -21t75.5 21z" />
    <glyph glyph-name="nine.numr" horiz-adv-x="723" 
d="M535 1504.5q78 -41.5 124 -113.5t46 -161q0 -108 -74 -208l-305 -408h-195l234 295l-22 -1l-26 1q-73 7 -139 50.5t-106.5 113.5t-40.5 153q0 89 45.5 162t122 115.5t166.5 42.5q92 0 170 -41.5zM456.5 1075q38.5 23 59.5 62.5t21 88.5q0 76 -48 123t-124 47
q-50 0 -88.5 -22.5t-60 -61.5t-21.5 -86q0 -49 22.5 -89t62 -62.5t87.5 -22.5q51 0 89.5 23z" />
    <glyph glyph-name="comma.ss01" horiz-adv-x="645" 
d="M293 250h192l-168 -627h-124z" />
    <glyph glyph-name="semicolon.ss01" horiz-adv-x="643" 
d="M304 848.5q-34 33.5 -34 81.5q0 46 34 80t81 34q30 0 56.5 -16t42.5 -42t16 -56q0 -31 -16 -57.5t-42.5 -42t-56.5 -15.5q-47 0 -81 33.5zM295 250h192l-168 -627h-124z" />
    <glyph glyph-name="comma.ss02" horiz-adv-x="645" 
d="M293 250h192l-168 -627h-124z" />
    <glyph glyph-name="semicolon.ss02" horiz-adv-x="643" 
d="M304 848.5q-34 33.5 -34 81.5q0 46 34 80t81 34q30 0 56.5 -16t42.5 -42t16 -56q0 -31 -16 -57.5t-42.5 -42t-56.5 -15.5q-47 0 -81 33.5zM295 250h192l-168 -627h-124z" />
    <glyph glyph-name="quotedblbase.ss01" horiz-adv-x="909" 
d="M766 63l-150 -440h-125l110 371q-27 15 -44 41.5t-17 58.5q0 30 16 56.5t42.5 42.5t56.5 16q47 0 81 -34t34 -81q0 -18 -4 -31zM422 63l-150 -440h-125l110 371q-27 15 -44 41.5t-17 58.5q0 30 16 56.5t42.5 42.5t56.5 16q47 0 81 -34t34 -81q0 -18 -4 -31z" />
    <glyph glyph-name="quotedblleft.ss01" horiz-adv-x="942" 
d="M317 909h-192l168 627h124zM684 909h-192l168 627h124z" />
    <glyph glyph-name="quotedblright.ss01" horiz-adv-x="942" 
d="M625 1536h192l-168 -627h-124zM258 1536h192l-168 -627h-124z" />
    <glyph glyph-name="quoteleft.ss01" horiz-adv-x="575" 
d="M317 909h-192l168 627h124z" />
    <glyph glyph-name="quoteright.ss01" horiz-adv-x="575" 
d="M258 1536h192l-168 -627h-124z" />
    <glyph glyph-name="quotesinglbase.ss01" horiz-adv-x="575" 
d="M258 250h192l-168 -627h-124z" />
    <glyph glyph-name="quotedblleft.ss02" horiz-adv-x="1016" 
d="M391 909h-192l168 627h124zM758 909h-192l168 627h124z" />
    <glyph glyph-name="quotedblright.ss02" horiz-adv-x="942" 
d="M625 1536h192l-168 -627h-124zM258 1536h192l-168 -627h-124z" />
    <glyph glyph-name="quoteleft.ss02" horiz-adv-x="575" 
d="M317 909h-192l168 627h124z" />
    <glyph glyph-name="quoteright.ss02" horiz-adv-x="575" 
d="M258 1536h192l-168 -627h-124z" />
    <glyph glyph-name="quotesinglbase.ss02" horiz-adv-x="575" 
d="M258 250h192l-168 -627h-124z" />
    <glyph glyph-name="caroncomb.alt" 
d="M-144 1408l-3 -7l-146 -430h-125l110 370q-27 15 -43.5 42t-16.5 59q0 30 15.5 56.5t42 42t56.5 15.5t56.5 -15.5t42.5 -42t16 -56.5q0 -18 -4 -31z" />
    <glyph glyph-name="uni0308.case" 
d="M-708 1112.5q-34 33.5 -34 79.5q0 48 34 81.5t81 33.5q46 0 80.5 -33.5t34.5 -81.5q0 -30 -16 -56t-42.5 -41.5t-56.5 -15.5q-47 0 -81 33.5zM-331 1112.5q-34 33.5 -34 79.5q0 48 34 81.5t81 33.5t80.5 -33t33.5 -82q0 -47 -33.5 -80t-80.5 -33t-81 33.5z" />
    <glyph glyph-name="uni030A.case" 
d="M-438 1129.5q-50 29.5 -79.5 78.5t-29.5 107t29.5 107.5t79 78.5t108.5 29q58 0 106.5 -29t77.5 -78.5t29 -107.5t-29 -107t-78 -78.5t-106 -29.5q-58 0 -108 29.5zM-243 1226q36 36 36 89q0 33 -17 62.5t-45 47t-61 17.5q-34 0 -62.5 -17.5t-44.5 -47t-16 -62.5
q0 -54 35 -89.5t88 -35.5q51 0 87 36z" />
    <glyph glyph-name="caroncomb.alt.ss01" 
d="M-369 963l86 573h193l-154 -573h-125z" />
    <glyph glyph-name="uni03060301" 
d="M-559 1238.5q-77 38.5 -120.5 110t-43.5 167.5h136q0 -91 52.5 -150t149.5 -59q99 0 152 59t53 150h135q0 -96 -43.5 -167.5t-121 -110t-175.5 -38.5q-97 0 -174 38.5zM-490 1675l303 326l96 -108l-333 -289z" />
    <glyph glyph-name="uni03060300" 
d="M-517 1238.5q-77 38.5 -120.5 110t-43.5 167.5h136q0 -91 52.5 -150t149.5 -59q99 0 152 59t53 150h135q0 -96 -43.5 -167.5t-121 -110t-175.5 -38.5q-97 0 -174 38.5zM-675 1893l98 108l301 -326l-63 -71z" />
    <glyph glyph-name="uni03060309" 
d="M-529 1238.5q-77 38.5 -120.5 110t-43.5 167.5h136q0 -91 52.5 -150t149.5 -59q99 0 152 59t53 150h135q0 -96 -43.5 -167.5t-121 -110t-175.5 -38.5q-97 0 -174 38.5zM-408 1739q143 29 143 129q0 39 -27.5 65.5t-72.5 26.5q-54 0 -107 -35l-65 92q36 29 79.5 45
t88.5 16q62 0 113.5 -27t81.5 -75t30 -108q0 -66 -40 -118.5t-116 -74.5v-90h-108v154z" />
    <glyph glyph-name="uni03060303" 
d="M-611 1238.5q-77 38.5 -120.5 110t-43.5 167.5h136q0 -91 52.5 -150t149.5 -59q99 0 152 59t53 150h135q0 -96 -43.5 -167.5t-121 -110t-175.5 -38.5q-97 0 -174 38.5zM-409.5 1620.5q-44.5 31.5 -78.5 81.5q-20 30 -39 42.5t-43 12.5q-47 0 -72.5 -45t-25.5 -114h-125
q0 80 26.5 144t76 101t116.5 37q62 0 107 -30.5t81 -81.5q19 -27 37.5 -41.5t48.5 -14.5q47 0 72 40.5t25 119.5h123q0 -80 -25.5 -144.5t-75 -101.5t-119.5 -37q-65 0 -109.5 31.5z" />
    <glyph glyph-name="uni03020301" 
d="M-635 1239l200 297h173l202 -297l-86 -51l-200 237l-205 -237zM-456 1726l303 326l96 -108l-333 -289z" />
    <glyph glyph-name="uni03020300" 
d="M-573 1239l200 297h173l202 -297l-86 -51l-200 237l-205 -237zM-621 1944l98 108l301 -326l-63 -71z" />
    <glyph glyph-name="uni03020309" 
d="M-610 1239l200 297h173l202 -297l-86 -51l-200 237l-205 -237zM-379 1790q143 29 143 129q0 39 -27.5 65.5t-72.5 26.5q-54 0 -107 -35l-65 92q36 29 79.5 45t88.5 16q62 0 113.5 -27t81.5 -75t30 -108q0 -66 -40 -118.5t-116 -74.5v-90h-108v154z" />
    <glyph glyph-name="uni03020303" 
d="M-706 1239l200 297h173l202 -297l-86 -51l-200 237l-205 -237zM-394.5 1671.5q-44.5 31.5 -78.5 81.5q-20 30 -39 42.5t-43 12.5q-47 0 -72.5 -45t-25.5 -114h-125q0 80 26.5 144t76 101t116.5 37q62 0 107 -30.5t81 -81.5q19 -27 37.5 -41.5t48.5 -14.5q47 0 72 40.5
t25 119.5h123q0 -80 -25.5 -144.5t-75 -101.5t-119.5 -37q-65 0 -109.5 31.5z" />
    </font>
</defs>
</svg>
